<svg width="100" height="49" viewBox="0 0 100 49" fill="none" xmlns="http://www.w3.org/2000/svg">
<g clip-path="url(#clip0_1924_2351)">
<g clip-path="url(#clip1_1924_2351)">
<path fill-rule="evenodd" clip-rule="evenodd" d="M45.4061 22.9082H44.9961V25.5512H45.4061V22.9082Z" fill="white"/>
<path d="M50.9297 25.5506H51.3397V21.8906H50.9297V25.5506Z" fill="white"/>
<path fill-rule="evenodd" clip-rule="evenodd" d="M30.0604 17.418H29.6504V20.061H30.0604V17.418Z" fill="white"/>
<path d="M46.8379 20.0614H47.2479V16.4014H46.8379V20.0614Z" fill="white"/>
<path fill-rule="evenodd" clip-rule="evenodd" d="M48.4751 17.4177H48.0651V20.0607H48.4751V17.4177ZM90.2161 17.4177H89.8061V20.0607H90.2161V17.4177ZM89.8071 16.8077H90.2161V16.4017H89.8061L89.8071 16.8077ZM45.4061 11.9277H44.9961V14.5717H45.4061V11.9277ZM49.2941 11.9277H48.8841V14.5717H49.2941V11.9277ZM58.5011 11.9277H58.0911V14.5717H58.5011V11.9277Z" fill="white"/>
<path d="M27.1527 24.6282C27.1527 25.0582 26.8657 25.2282 26.6377 25.2282C26.3357 25.2282 26.1897 25.0182 26.1897 24.7052V22.9082H25.7637V24.8842C25.7637 25.3252 26.0137 25.5512 26.4707 25.5512C26.6039 25.5544 26.7356 25.5225 26.8525 25.4586C26.9694 25.3947 27.0674 25.3011 27.1367 25.1872H27.1527V25.5002H27.6047C27.5882 25.3207 27.5795 25.1405 27.5787 24.9602V22.9082H27.1527V24.6282ZM30.0607 25.5512V23.7552C30.0607 23.2412 29.9227 22.9082 29.3717 22.9082C29.0397 22.9082 28.8457 23.0002 28.6827 23.2932H28.6627V22.9592H28.2187C28.2347 23.1392 28.2437 23.3192 28.2437 23.4992V25.5512H28.6637V24.0172C28.6637 23.6622 28.7287 23.2522 29.1877 23.2522C29.5447 23.2522 29.6417 23.4782 29.6417 23.7552V25.5512H30.0607Z" fill="white"/>
<path fill-rule="evenodd" clip-rule="evenodd" d="M32.3049 24.2596C32.3049 24.7996 32.3049 25.4006 31.8379 25.4006C31.3159 25.4006 31.3159 24.8206 31.3159 24.4186C31.3159 23.7066 31.3759 23.3366 31.8229 23.3366C32.2839 23.3366 32.3049 23.9056 32.3049 24.2596ZM32.3049 23.3056H32.2899C32.1479 23.0946 31.9699 22.9836 31.7269 22.9836C30.8999 22.9836 30.8789 23.7486 30.8789 24.4136C30.8789 25.5846 31.2949 25.7536 31.7059 25.7536C31.9759 25.7536 32.1519 25.6336 32.2939 25.3836H32.3039V25.7006H32.7209V21.8906H32.3049V23.3056Z" fill="white"/>
<path d="M36.6075 25.5506V25.1466H35.0605V23.8786H36.4685V23.4726H35.0605V22.2966H36.5765V21.8916H34.5605V25.5516H36.6065L36.6075 25.5506ZM38.8585 25.5506V23.7546C38.8585 23.2406 38.7205 22.9076 38.1695 22.9076C37.8385 22.9076 37.6445 22.9996 37.4815 23.2926H37.4615V22.9586H37.0175C37.0325 23.1386 37.0425 23.3186 37.0425 23.4986V25.5506H37.4605V24.0166C37.4605 23.6616 37.5275 23.2516 37.9865 23.2516C38.3425 23.2516 38.4405 23.4776 38.4405 23.7546V25.5506H38.8585ZM39.2675 22.9736V23.2866H39.6975V25.0966C39.6975 25.3896 39.8775 25.5506 40.2805 25.5506C40.4205 25.5506 40.5605 25.5206 40.7005 25.5106V25.1926C40.6065 25.2026 40.5395 25.2126 40.5075 25.2126C40.1205 25.2126 40.1205 25.0056 40.1205 24.8446V23.2866H40.6895V22.9736H40.1195V22.2976L39.6965 22.4836V22.9736H39.2675ZM41.5645 25.5506H42.1395L42.7305 23.3006H42.7415L43.3065 25.5506H43.8815L44.5875 22.9076H44.1335L43.6105 25.1846H43.6005L43.0605 22.9076H42.4535L41.8675 25.1846H41.8575L41.3815 22.9076H40.9045L41.5645 25.5506Z" fill="white"/>
<path fill-rule="evenodd" clip-rule="evenodd" d="M44.9971 22.2976H45.4061V21.8916H44.9961V22.2976H44.9971Z" fill="white"/>
<path d="M47.8405 23.7726C47.8665 23.2046 47.5575 22.9076 47.0275 22.9076C46.1095 22.9076 46.0195 23.5216 46.0195 24.2676C46.0195 25.3896 46.4655 25.5506 47.0275 25.5506C47.3215 25.5506 47.8775 25.3696 47.8615 24.6546H47.4095C47.4255 25.1126 47.1275 25.2146 47.0275 25.2146C46.5815 25.2146 46.4715 24.9166 46.4715 24.0906C46.4715 23.3956 46.6965 23.2446 47.0275 23.2446C47.1895 23.2446 47.4045 23.3566 47.3945 23.7726H47.8405ZM49.0905 24.1166H49.1005L50.0005 25.5506H50.5215L49.5315 24.0906L50.3715 22.9906H49.8715L49.1015 24.0966H49.0915V21.8896H48.6805V25.5496H49.0905V24.1156V24.1166ZM53.3425 24.6276C53.3425 25.0576 53.0565 25.2276 52.8265 25.2276C52.5255 25.2276 52.3795 25.0176 52.3795 24.7046V22.9076H51.9535V24.8836C51.9535 25.3246 52.2035 25.5506 52.6605 25.5506C52.7937 25.5539 52.9254 25.5219 53.0424 25.458C53.1593 25.3941 53.2573 25.3005 53.3265 25.1866H53.3425V25.4996H53.7955C53.7783 25.3202 53.7693 25.14 53.7685 24.9596V22.9076H53.3425V24.6276ZM56.4555 25.5506V23.7546C56.4555 23.2406 56.3175 22.9076 55.7655 22.9076C55.4345 22.9076 55.2415 22.9996 55.0785 23.2926H55.0585V22.9586H54.6135C54.6295 23.1386 54.6395 23.3186 54.6395 23.4986V25.5506H55.0585V24.0166C55.0585 23.6616 55.1235 23.2516 55.5825 23.2516C55.9405 23.2516 56.0375 23.4776 56.0375 23.7546V25.5506H56.4555Z" fill="white"/>
<path fill-rule="evenodd" clip-rule="evenodd" d="M58.7064 24.2562C58.7064 24.6192 58.7214 25.2262 58.2154 25.2262C57.9034 25.2262 57.7134 25.0292 57.7134 24.1892C57.7134 23.8412 57.7294 23.2612 58.2054 23.2612C58.7314 23.2612 58.7064 23.8672 58.7064 24.2562ZM58.6964 23.2822H58.6864C58.5684 23.0272 58.3534 22.9082 58.0824 22.9082C57.8724 22.9082 57.2734 22.9852 57.2734 24.1882C57.2734 24.9672 57.4124 25.5782 58.1134 25.5782C58.3374 25.5782 58.5734 25.4582 58.6804 25.2512H58.6964V25.7962C58.6964 26.0662 58.5364 26.2462 58.2464 26.2462C58.0164 26.2462 57.8564 26.1132 57.8514 25.8682H57.3814C57.3454 26.3512 57.7344 26.5682 58.1634 26.5682C58.7314 26.5682 59.1154 26.4282 59.1154 25.8432V22.9602H58.6964V23.2822Z" fill="white"/>
<path d="M26.2176 20.061H26.7936L27.3846 17.811H27.3956L27.9596 20.061H28.5356L29.2416 17.418H28.7866L28.2636 19.695H28.2536L27.7136 17.418H27.1066L26.5206 19.695H26.5106L26.0346 17.418H25.5586L26.2186 20.061H26.2176Z" fill="white"/>
<path fill-rule="evenodd" clip-rule="evenodd" d="M29.6504 16.8083H30.0604V16.4023H29.6504V16.8083Z" fill="white"/>
<path d="M31.0938 17.4704H30.6738V20.0614H31.0938V18.5324C31.0938 18.1824 31.2108 17.8294 31.6768 17.8294C31.7528 17.8294 31.8248 17.8444 31.9018 17.8554V17.4184C31.4918 17.4184 31.2778 17.4644 31.1038 17.8594H31.0938V17.4704ZM32.1068 17.4844V17.7974H32.5358V19.6074C32.5358 19.9004 32.7168 20.0624 33.1198 20.0624C33.2598 20.0624 33.3998 20.0314 33.5398 20.0214V19.7034C33.4458 19.7134 33.3788 19.7234 33.3478 19.7234C32.9598 19.7234 32.9598 19.5164 32.9598 19.3554V17.7974H33.5288V17.4844H32.9598V16.8084L32.5358 16.9954V17.4854H32.1068V17.4844ZM35.7898 19.2864C35.7898 18.5114 34.4638 18.5204 34.4638 18.0724C34.4638 17.8514 34.6438 17.7304 34.8738 17.7304C35.1478 17.7304 35.2958 17.8714 35.2898 18.1384H35.7688C35.8048 17.6354 35.4008 17.4184 34.9268 17.4184C34.1798 17.4184 34.0108 17.8464 34.0108 18.1134C34.0108 18.8734 35.3368 18.8834 35.3368 19.3364C35.3368 19.5984 35.1368 19.7244 34.8798 19.7244C34.4428 19.7244 34.4378 19.3814 34.4378 19.2364H33.9478C33.9328 19.8204 34.2908 20.0614 34.8638 20.0614C35.3898 20.0614 35.7898 19.8454 35.7898 19.2864ZM38.0188 18.2844C38.0448 17.7154 37.7358 17.4184 37.2058 17.4184C36.2878 17.4184 36.1988 18.0324 36.1988 18.7784C36.1988 19.9004 36.6448 20.0624 37.2058 20.0624C37.4998 20.0624 38.0558 19.8804 38.0398 19.1654H37.5898C37.6048 19.6234 37.3058 19.7254 37.2058 19.7254C36.7598 19.7254 36.6498 19.4274 36.6498 18.6014C36.6498 17.9064 36.8758 17.7554 37.2058 17.7554C37.3688 17.7554 37.5838 17.8674 37.5728 18.2844H38.0188ZM40.4958 20.0614V18.2474C40.4958 17.6694 40.2478 17.4514 39.8048 17.4514C39.4648 17.4514 39.2678 17.5314 39.0978 17.8314H39.0768V16.4014H38.6538V20.0614H39.0768V18.5564C39.0768 18.1264 39.1848 17.7904 39.6088 17.7904C39.9688 17.7904 40.0728 18.0144 40.0728 18.3284V20.0614H40.4958Z" fill="white"/>
<path fill-rule="evenodd" clip-rule="evenodd" d="M42.4764 18.747C42.5174 19.568 42.1974 19.724 41.9394 19.724C41.6564 19.724 41.5324 19.503 41.5324 19.256C41.5324 18.716 42.0724 18.753 42.4764 18.747ZM42.4864 20.011H42.9504C42.9173 19.8113 42.8999 19.6094 42.8984 19.407V18.184C42.8984 17.755 42.7234 17.418 42.0534 17.418C41.5014 17.418 41.1914 17.614 41.1714 18.184H41.6294C41.6044 17.916 41.7544 17.73 42.0374 17.73C42.4914 17.73 42.4874 18.098 42.4764 18.435C41.8834 18.42 41.1094 18.455 41.1094 19.225C41.1094 19.715 41.2694 20.061 41.8214 20.061C42.1464 20.061 42.3474 19.935 42.4764 19.643H42.4864V20.011Z" fill="white"/>
<path d="M43.5645 17.5126V17.8256H43.9465V20.0606H44.3485V17.8256H44.9965V17.5126H44.3485V17.0776C44.3485 16.8716 44.4215 16.6836 44.8475 16.7146V16.4166C44.7844 16.4053 44.7205 16.4003 44.6565 16.4016C44.2995 16.4016 43.9465 16.5016 43.9465 17.0176V17.5126H43.5645ZM44.9975 17.4836V17.7966H45.4265V19.6066C45.4265 19.8996 45.6065 20.0616 46.0105 20.0616C46.1505 20.0616 46.2905 20.0306 46.4295 20.0206V19.7026C46.3365 19.7126 46.2695 19.7226 46.2375 19.7226C45.8505 19.7226 45.8505 19.5156 45.8505 19.3546V17.7966H46.4195V17.4836H45.8495V16.8076L45.4265 16.9946V17.4846H44.9965L44.9975 17.4836Z" fill="white"/>
<path fill-rule="evenodd" clip-rule="evenodd" d="M48.0664 16.8083H48.4764V16.4023H48.0664V16.8083Z" fill="white"/>
<path d="M50.9098 18.2844C50.9358 17.7154 50.6258 17.4184 50.0968 17.4184C49.1788 17.4184 49.0898 18.0324 49.0898 18.7784C49.0898 19.9004 49.5358 20.0624 50.0968 20.0624C50.3908 20.0624 50.9468 19.8804 50.9308 19.1654H50.4798C50.4948 19.6234 50.1958 19.7254 50.0968 19.7254C49.6508 19.7254 49.5408 19.4274 49.5408 18.6014C49.5408 17.9064 49.7668 17.7554 50.0968 17.7554C50.2588 17.7554 50.4738 17.8674 50.4638 18.2844H50.9098ZM53.3868 20.0614V18.2474C53.3868 17.6694 53.1388 17.4514 52.6948 17.4514C52.3548 17.4514 52.1588 17.5314 51.9878 17.8314H51.9678V16.4014H51.5448V20.0614H51.9678V18.5564C51.9678 18.1264 52.0758 17.7904 52.4998 17.7904C52.8598 17.7904 52.9638 18.0144 52.9638 18.3284V20.0614H53.3858H53.3868Z" fill="white"/>
<path fill-rule="evenodd" clip-rule="evenodd" d="M54.6401 18.561C54.6451 17.856 54.8571 17.731 55.1151 17.731C55.4121 17.731 55.6151 17.821 55.6151 18.561H54.6401ZM56.0461 18.873V18.657C56.0461 17.816 55.8671 17.418 55.1551 17.418C54.2881 17.418 54.2051 18.032 54.2051 18.778C54.2051 19.9 54.6251 20.062 55.1551 20.062C55.6801 20.062 56.0201 19.805 56.0251 19.241H55.5801C55.5661 19.497 55.4221 19.724 55.1451 19.724C54.8281 19.724 54.6391 19.584 54.6391 18.873H56.0461Z" fill="white"/>
<path d="M59.6885 16.4023H57.5385V16.8073H59.2255V16.8173L57.4785 19.5343V20.0613H59.7285V19.6563H57.9035L59.6885 16.8683V16.4023ZM61.7325 19.1383C61.7325 19.5683 61.4465 19.7383 61.2165 19.7383C60.9155 19.7383 60.7695 19.5283 60.7695 19.2153V17.4183H60.3425V19.3943C60.3425 19.8353 60.5925 20.0623 61.0505 20.0623C61.1838 20.0654 61.3155 20.0332 61.4324 19.9691C61.5494 19.9051 61.6473 19.8113 61.7165 19.6973H61.7325V20.0103H62.1845C62.1687 19.8311 62.1604 19.6513 62.1595 19.4713V17.4183H61.7325V19.1383ZM64.6405 19.2863C64.6405 18.5113 63.3155 18.5203 63.3155 18.0723C63.3155 17.8513 63.4935 17.7303 63.7255 17.7303C63.9985 17.7303 64.1455 17.8713 64.1405 18.1383H64.6185C64.6555 17.6353 64.2515 17.4183 63.7785 17.4183C63.0295 17.4183 62.8625 17.8463 62.8625 18.1133C62.8625 18.8733 64.1875 18.8833 64.1875 19.3363C64.1875 19.5983 63.9875 19.7243 63.7305 19.7243C63.2935 19.7243 63.2885 19.3813 63.2885 19.2363H62.7985C62.7835 19.8203 63.1405 20.0613 63.7135 20.0613C64.2405 20.0613 64.6405 19.8453 64.6405 19.2863Z" fill="white"/>
<path fill-rule="evenodd" clip-rule="evenodd" d="M66.6209 18.747C66.6629 19.568 66.3429 19.724 66.0849 19.724C65.7999 19.724 65.6779 19.503 65.6779 19.256C65.6779 18.716 66.2169 18.753 66.6209 18.747ZM66.6309 20.011H67.0959C67.064 19.8112 67.0473 19.6093 67.0459 19.407V18.184C67.0459 17.755 66.8689 17.418 66.1979 17.418C65.6459 17.418 65.3369 17.614 65.3159 18.184H65.7759C65.7499 17.916 65.8989 17.73 66.1829 17.73C66.6369 17.73 66.6309 18.098 66.6219 18.435C66.0279 18.42 65.2539 18.455 65.2539 19.225C65.2539 19.715 65.4139 20.061 65.9669 20.061C66.2919 20.061 66.4919 19.935 66.6219 19.643H66.6319L66.6309 20.011Z" fill="white"/>
<path d="M69.47 20.061V18.317C69.47 18.219 69.49 17.962 69.614 17.859C69.729 17.767 69.775 17.762 69.937 17.762C70.279 17.762 70.352 18.003 70.352 18.265V20.061H70.778V18.091C70.778 17.48 70.337 17.418 70.061 17.418C69.821 17.418 69.583 17.474 69.438 17.752C69.34 17.516 69.064 17.418 68.825 17.418C68.518 17.418 68.295 17.516 68.17 17.793H68.16V17.47H67.709C67.723 17.65 67.734 17.829 67.734 18.009V20.061H68.16V18.317C68.16 18.219 68.18 18.065 68.258 17.937C68.321 17.839 68.498 17.762 68.628 17.762C68.97 17.762 69.043 18.003 69.043 18.265V20.061H69.47ZM73.153 20.061V18.317C73.153 18.219 73.173 17.962 73.297 17.859C73.412 17.767 73.459 17.762 73.62 17.762C73.963 17.762 74.036 18.003 74.036 18.265V20.061H74.461V18.091C74.461 17.48 74.02 17.418 73.744 17.418C73.505 17.418 73.266 17.474 73.121 17.752C73.023 17.516 72.747 17.418 72.508 17.418C72.201 17.418 71.978 17.516 71.854 17.793H71.844V17.47H71.392C71.406 17.65 71.417 17.829 71.417 18.009V20.061H71.844V18.317C71.844 18.219 71.864 18.065 71.942 17.937C72.004 17.839 72.18 17.762 72.31 17.762C72.654 17.762 72.726 18.003 72.726 18.265V20.061H73.153Z" fill="white"/>
<path fill-rule="evenodd" clip-rule="evenodd" d="M75.7143 18.561C75.7193 17.856 75.9323 17.731 76.1893 17.731C76.4863 17.731 76.6893 17.821 76.6893 18.561H75.7143ZM77.1203 18.873V18.657C77.1203 17.816 76.9413 17.418 76.2293 17.418C75.3623 17.418 75.2793 18.032 75.2793 18.778C75.2793 19.9 75.6993 20.062 76.2293 20.062C76.7543 20.062 77.0953 19.805 77.0993 19.241H76.6543C76.6403 19.497 76.4963 19.724 76.2193 19.724C75.9023 19.724 75.7143 19.584 75.7143 18.873H77.1203Z" fill="white"/>
<path d="M79.7804 20.061V18.265C79.7804 17.752 79.6435 17.418 79.0925 17.418C78.7605 17.418 78.5675 17.51 78.4035 17.803H78.3835V17.47H77.9395C77.9555 17.65 77.9654 17.829 77.9654 18.009V20.061H78.3835V18.527C78.3835 18.172 78.4504 17.762 78.9094 17.762C79.2654 17.762 79.3634 17.988 79.3634 18.265V20.061H79.7804Z" fill="white"/>
<path fill-rule="evenodd" clip-rule="evenodd" d="M81.7615 18.747C81.8035 19.568 81.4835 19.724 81.2245 19.724C80.9415 19.724 80.8185 19.503 80.8185 19.256C80.8185 18.716 81.3595 18.753 81.7615 18.747ZM81.7715 20.011H82.2365C82.2031 19.8113 82.1857 19.6094 82.1845 19.407V18.184C82.1845 17.755 82.0095 17.418 81.3395 17.418C80.7875 17.418 80.4775 17.614 80.4565 18.184H80.9165C80.8905 17.916 81.0395 17.73 81.3235 17.73C81.7775 17.73 81.7725 18.098 81.7615 18.435C81.1685 18.42 80.3945 18.455 80.3945 19.225C80.3945 19.715 80.5545 20.061 81.1065 20.061C81.4315 20.061 81.6325 19.935 81.7615 19.643H81.7715V20.011Z" fill="white"/>
<path d="M83.4747 17.47H83.0547V20.061H83.4747V18.532C83.4747 18.182 83.5917 17.829 84.0577 17.829C84.1347 17.829 84.2067 17.844 84.2827 17.855V17.418C83.8737 17.418 83.6597 17.464 83.4847 17.859H83.4747V17.47Z" fill="white"/>
<path fill-rule="evenodd" clip-rule="evenodd" d="M85.1087 18.5681C85.1087 18.2141 85.1287 17.6441 85.5897 17.6441C86.0367 17.6441 86.0977 18.0141 86.0977 18.7261C86.0977 19.1271 86.0977 19.7081 85.5747 19.7081C85.0627 19.7081 85.1087 18.9741 85.1087 18.5681ZM85.1087 19.6921H85.1187C85.2607 19.9401 85.4377 20.0621 85.7067 20.0621C86.1167 20.0621 86.5337 19.8921 86.5337 18.7221C86.5337 18.0561 86.5137 17.2911 85.6867 17.2911C85.4427 17.2911 85.2647 17.4011 85.1237 17.6131H85.1087V16.1981H84.6917V20.0081H85.1087V19.6921ZM87.7887 18.5611C87.7927 17.8561 88.0057 17.7311 88.2627 17.7311C88.5607 17.7311 88.7627 17.8211 88.7627 18.5611H87.7887ZM89.1937 18.8731V18.6571C89.1937 17.8161 89.0157 17.4181 88.3037 17.4181C87.4367 17.4181 87.3527 18.0321 87.3527 18.7781C87.3527 19.9001 87.7727 20.0621 88.3027 20.0621C88.8267 20.0621 89.1687 19.8051 89.1737 19.2411H88.7287C88.7137 19.4971 88.5697 19.7241 88.2927 19.7241C87.9757 19.7241 87.7887 19.5841 87.7887 18.8731H89.1937ZM26.2247 12.8591H26.7157C27.1877 12.8591 27.5437 12.9591 27.5437 13.5431C27.5437 13.8111 27.3677 14.1661 26.8767 14.1661H26.2247V12.8591ZM26.2247 11.3171H26.8767C27.2627 11.3171 27.4337 11.5651 27.4337 11.8701C27.4337 12.2251 27.2567 12.4481 26.8957 12.4531H26.2247V11.3171ZM26.9267 14.5721C27.3377 14.5721 28.0137 14.4811 28.0137 13.5421C28.0137 13.0421 27.7887 12.7261 27.2727 12.6661V12.6411C27.7387 12.5341 27.8947 12.2301 27.8947 11.7741C27.8893 11.6018 27.839 11.4339 27.7487 11.2871C27.6137 11.0841 27.4437 10.9121 26.9417 10.9121H25.7637V14.5721H26.9267Z" fill="white"/>
<path d="M30.017 13.6477C30.017 14.0787 29.73 14.2477 29.501 14.2477C29.2 14.2477 29.054 14.0377 29.054 13.7247V11.9287H28.627V13.9047C28.627 14.3447 28.877 14.5717 29.335 14.5717C29.4683 14.5748 29.6 14.5427 29.717 14.4787C29.8339 14.4146 29.9319 14.3208 30.001 14.2067H30.017V14.5197H30.469C30.4527 14.3408 30.444 14.1614 30.443 13.9817V11.9287H30.017V13.6477ZM33.13 14.5717V12.7747C33.13 12.2617 32.991 11.9277 32.44 11.9277C32.109 11.9277 31.915 12.0197 31.752 12.3127H31.731V11.9797H31.288C31.303 12.1597 31.313 12.3387 31.313 12.5187V14.5717H31.731V13.0367C31.731 12.6827 31.797 12.2717 32.257 12.2717C32.614 12.2717 32.711 12.4977 32.711 12.7747V14.5717H33.13Z" fill="white"/>
<path fill-rule="evenodd" clip-rule="evenodd" d="M35.1672 13.078C35.1672 13.616 35.1672 14.218 34.7002 14.218C34.1782 14.218 34.1782 13.638 34.1782 13.236C34.1782 12.524 34.2382 12.154 34.6852 12.154C35.1472 12.154 35.1672 12.724 35.1672 13.078ZM35.1672 12.123H35.1522C35.0102 11.912 34.8322 11.801 34.5892 11.801C33.7622 11.801 33.7422 12.566 33.7422 13.231C33.7422 14.403 34.1582 14.571 34.5692 14.571C34.8372 14.571 35.0152 14.45 35.1572 14.202H35.1672V14.519H35.5832V10.709H35.1672V12.123ZM36.8382 13.071C36.8422 12.367 37.0562 12.241 37.3132 12.241C37.6102 12.241 37.8132 12.331 37.8132 13.071H36.8382ZM38.2432 13.383V13.167C38.2432 12.327 38.0652 11.928 37.3532 11.928C36.4862 11.928 36.4022 12.542 36.4022 13.288C36.4022 14.411 36.8222 14.572 37.3522 14.572C37.8772 14.572 38.2192 14.315 38.2232 13.751H37.7782C37.7642 14.007 37.6202 14.234 37.3422 14.234C37.0252 14.234 36.8382 14.094 36.8382 13.384L38.2432 13.383Z" fill="white"/>
<path d="M40.6999 13.7958C40.6999 13.0208 39.3739 13.0308 39.3739 12.5828C39.3739 12.3608 39.5529 12.2408 39.7839 12.2408C40.0569 12.2408 40.2059 12.3808 40.1999 12.6478H40.6789C40.7149 12.1448 40.3099 11.9278 39.8369 11.9278C39.0899 11.9278 38.9219 12.3558 38.9219 12.6228C38.9219 13.3828 40.2469 13.3928 40.2469 13.8458C40.2469 14.1078 40.0469 14.2338 39.7899 14.2338C39.3529 14.2338 39.3479 13.8918 39.3479 13.7458H38.8579C38.8429 14.3298 39.2009 14.5718 39.7739 14.5718C40.2999 14.5718 40.6999 14.3548 40.6999 13.7958ZM43.0729 14.5718V12.8268C43.0729 12.7288 43.0939 12.4728 43.2189 12.3698C43.3329 12.2778 43.3789 12.2718 43.5409 12.2718C43.8839 12.2718 43.9559 12.5138 43.9559 12.7748V14.5718H44.3829V12.5998C44.3829 11.9898 43.9409 11.9268 43.6659 11.9268C43.4259 11.9268 43.1879 11.9838 43.0419 12.2608C42.9439 12.0248 42.6679 11.9268 42.4289 11.9268C42.1229 11.9268 41.8999 12.0248 41.7759 12.3018H41.7659V11.9788H41.3129C41.3289 12.1588 41.3389 12.3378 41.3389 12.5178V14.5708H41.7649V12.8258C41.7649 12.7278 41.7859 12.5738 41.8639 12.4458C41.9259 12.3478 42.1029 12.2708 42.2319 12.2708C42.5749 12.2708 42.6479 12.5128 42.6479 12.7738V14.5708L43.0729 14.5718Z" fill="white"/>
<path fill-rule="evenodd" clip-rule="evenodd" d="M44.9971 11.3191H45.4061V10.9121H44.9961V11.3181L44.9971 11.3191Z" fill="white"/>
<path d="M48.0666 14.5717V12.7747C48.0666 12.2617 47.9276 11.9277 47.3776 11.9277C47.0456 11.9277 46.8516 12.0197 46.6886 12.3127H46.6686V11.9797H46.2246C46.2396 12.1597 46.2506 12.3387 46.2506 12.5187V14.5717H46.6686V13.0367C46.6686 12.6827 46.7346 12.2717 47.1936 12.2717C47.5506 12.2717 47.6476 12.4977 47.6476 12.7747V14.5717H48.0666Z" fill="white"/>
<path fill-rule="evenodd" clip-rule="evenodd" d="M48.8848 11.3191H49.2948V10.9121H48.8848V11.3181V11.3191Z" fill="white"/>
<path d="M51.7487 13.7963C51.7487 13.0213 50.4227 13.0313 50.4227 12.5833C50.4227 12.3613 50.6017 12.2413 50.8327 12.2413C51.1067 12.2413 51.2547 12.3813 51.2497 12.6483H51.7277C51.7647 12.1453 51.3597 11.9283 50.8857 11.9283C50.1387 11.9283 49.9707 12.3563 49.9707 12.6233C49.9707 13.3833 51.2967 13.3933 51.2967 13.8463C51.2967 14.1083 51.0967 14.2343 50.8387 14.2343C50.4017 14.2343 50.3967 13.8923 50.3967 13.7463H49.9067C49.8917 14.3303 50.2497 14.5723 50.8227 14.5723C51.3497 14.5723 51.7487 14.3553 51.7487 13.7963ZM51.9527 11.9943V12.3073H52.3827V14.1173C52.3827 14.4103 52.5627 14.5723 52.9657 14.5723C53.1057 14.5723 53.2457 14.5423 53.3857 14.5313V14.2143C53.2917 14.2243 53.2247 14.2343 53.1927 14.2343C52.8057 14.2343 52.8057 14.0263 52.8057 13.8653V12.3073H53.3747V11.9943H52.8047V11.3193L52.3827 11.5053V11.9953L51.9527 11.9943Z" fill="white"/>
<path fill-rule="evenodd" clip-rule="evenodd" d="M54.2309 13.0707C54.2359 12.3667 54.4489 12.2407 54.7059 12.2407C55.0029 12.2407 55.2059 12.3307 55.2059 13.0707H54.2309ZM55.6369 13.3827V13.1667C55.6369 12.3267 55.4589 11.9277 54.7449 11.9277C53.8799 11.9277 53.7949 12.5417 53.7949 13.2877C53.7949 14.4107 54.2159 14.5717 54.7449 14.5717C55.2709 14.5717 55.6119 14.3147 55.6169 13.7507H55.1719C55.1569 14.0067 55.0139 14.2337 54.7359 14.2337C54.4199 14.2337 54.2309 14.0937 54.2309 13.3837L55.6369 13.3827Z" fill="white"/>
<path d="M56.8731 11.9797H56.4531V14.5717H56.8731V13.0417C56.8731 12.6917 56.9911 12.3387 57.4571 12.3387C57.5331 12.3387 57.6051 12.3537 57.6811 12.3647V11.9277C57.2721 11.9277 57.0581 11.9737 56.8831 12.3697H56.8731V11.9797Z" fill="white"/>
<path fill-rule="evenodd" clip-rule="evenodd" d="M58.0928 11.3191H58.5018V10.9121H58.0918V11.3181L58.0928 11.3191Z" fill="white"/>
<path d="M60.7084 13.6483C60.7084 14.0793 60.4214 14.2483 60.1934 14.2483C59.8924 14.2483 59.7454 14.0383 59.7454 13.7253V11.9293H59.3184V13.9053C59.3184 14.3453 59.5684 14.5723 60.0264 14.5723C60.1597 14.5755 60.2915 14.5435 60.4084 14.4794C60.5254 14.4153 60.6233 14.3214 60.6924 14.2073H60.7084V14.5203H61.1604C61.1445 14.3414 61.1361 14.1619 61.1354 13.9823V11.9293H60.7084V13.6483ZM63.5354 14.5723V12.8273C63.5354 12.7293 63.5564 12.4733 63.6804 12.3703C63.7944 12.2783 63.8414 12.2723 64.0024 12.2723C64.3454 12.2723 64.4184 12.5143 64.4184 12.7753V14.5723H64.8434V12.6003C64.8434 11.9903 64.4034 11.9273 64.1274 11.9273C63.8874 11.9273 63.6494 11.9843 63.5034 12.2613C63.4054 12.0253 63.1304 11.9273 62.8914 11.9273C62.5834 11.9273 62.3614 12.0253 62.2364 12.3023H62.2264V11.9793H61.7744C61.7894 12.1593 61.8004 12.3383 61.8004 12.5183V14.5713H62.2254V12.8263C62.2254 12.7283 62.2454 12.5743 62.3244 12.4463C62.3874 12.3483 62.5644 12.2713 62.6934 12.2713C63.0364 12.2713 63.1094 12.5133 63.1094 12.7743V14.5713L63.5354 14.5723ZM66.0714 12.0233V12.3363H66.4974V14.5723H66.9454V12.3363H67.5034V12.0233H66.9454V11.5883C66.9454 11.3823 67.0274 11.1953 67.5034 11.2253V10.9273C67.4326 10.916 67.361 10.911 67.2894 10.9123C66.8914 10.9123 66.4974 11.0123 66.4974 11.5283V12.0233H66.0714Z" fill="white"/>
<path fill-rule="evenodd" clip-rule="evenodd" d="M68.7301 10.9121H68.1171V11.5221H68.7311L68.7301 10.9121ZM69.5491 10.9121H69.1391V11.5221H69.5491V10.9121ZM69.3011 13.6481C69.3011 14.0791 69.0141 14.2481 68.7861 14.2481C68.4841 14.2481 68.3381 14.0381 68.3381 13.7251V11.9291H67.9121V13.9051C67.9121 14.3451 68.1621 14.5721 68.6191 14.5721C68.7524 14.5752 68.8842 14.5431 69.0011 14.479C69.118 14.415 69.216 14.3212 69.2851 14.2071H69.3011V14.5201H69.7541C69.7379 14.3412 69.7292 14.1617 69.7281 13.9821V11.9291H69.3011V13.6481Z" fill="white"/>
<path d="M70.9923 11.9797H70.5723V14.5717H70.9923V13.0417C70.9923 12.6917 71.1093 12.3387 71.5753 12.3387C71.6523 12.3387 71.7233 12.3537 71.8003 12.3647V11.9277C71.3903 11.9277 71.1763 11.9737 71.0023 12.3697H70.9923V11.9797ZM90.8293 17.4837V17.7967H91.2573V19.6067C91.2573 19.8997 91.4383 20.0617 91.8413 20.0617C91.9813 20.0617 92.1213 20.0307 92.2613 20.0207V19.7027C92.1673 19.7127 92.1013 19.7227 92.0703 19.7227C91.6823 19.7227 91.6823 19.5157 91.6823 19.3547V17.7967H92.2503V17.4837H91.6823V16.8077L91.2573 16.9947V17.4847H90.8293V17.4837Z" fill="white"/>
<path d="M20.8516 38.3599H22.4886V29.2109H20.8516V38.3599Z" fill="#F7D100"/>
<path d="M20.8516 29.2105H22.4886V20.0605H20.8516V29.2105Z" fill="#E3001B"/>
<path d="M20.8516 20.0611H22.4886V10.9111H20.8516V20.0611Z" fill="black"/>
<path fill-rule="evenodd" clip-rule="evenodd" d="M15.6596 12.3298C15.6596 11.8098 15.2746 11.3968 15.1396 11.2798L15.0416 11.3028C15.1856 11.4758 15.4396 11.7658 15.4396 12.1498C15.4396 12.9048 14.6286 13.5618 13.7026 13.5748C13.7096 13.6518 13.7096 13.7208 13.7096 13.7798C13.7096 13.8878 13.7026 13.9928 13.6896 14.0958C14.7396 14.0768 15.6596 13.2358 15.6596 12.3308V12.3298ZM14.2106 18.5878C13.7626 18.5878 13.6656 18.5418 13.5466 18.5418C13.4716 18.5418 13.3986 18.5488 13.3986 18.6548C13.3986 18.7278 13.4826 18.8348 13.5586 18.8918C13.6646 18.7888 13.8086 18.7668 14.0426 18.7668C14.1526 18.7668 14.3006 18.7868 14.3666 18.7958C14.3576 18.8598 14.3446 18.9418 14.3446 19.0578L14.3466 19.2638C14.3466 19.5248 14.3076 19.6638 14.2166 19.7678C14.2494 19.7819 14.2848 19.7894 14.3206 19.7898C14.4926 19.7898 14.5356 19.7038 14.5356 19.2648C14.5356 19.1318 14.5476 19.0098 14.5476 18.9778C14.7876 19.1578 15.0316 19.4798 15.0316 19.7128C15.1096 19.6728 15.2016 19.5558 15.2016 19.4688C15.2016 19.3108 14.9336 19.0748 14.6476 18.7898C14.6876 18.7798 14.7936 18.7498 14.8806 18.7498C15.1046 18.7498 15.2856 18.7878 15.3906 18.9098C15.4393 18.8335 15.4659 18.7452 15.4676 18.6548C15.4676 18.5228 15.3906 18.5268 15.3346 18.5268C15.0956 18.5268 14.8016 18.5638 14.5906 18.5978C14.5136 18.4978 14.0246 17.8458 13.8976 17.4978C13.8616 17.4858 13.8336 17.4748 13.7726 17.4748C13.6556 17.4748 13.6246 17.5558 13.5946 17.6668C13.8646 17.9888 14.1226 18.3388 14.2106 18.5878ZM11.5346 17.6678C11.5046 17.5558 11.4746 17.4758 11.3566 17.4758C11.2966 17.4758 11.2676 17.4858 11.2316 17.4988C11.1046 17.8458 10.6156 18.4968 10.5386 18.5978C10.2927 18.5558 10.044 18.532 9.79458 18.5268C9.73858 18.5268 9.66158 18.5228 9.66158 18.6548C9.66158 18.7308 9.69558 18.8648 9.73858 18.9098C9.84258 18.7878 10.0246 18.7498 10.2486 18.7498C10.3356 18.7498 10.4406 18.7798 10.4806 18.7898C10.1956 19.0748 9.92658 19.3098 9.92658 19.4688C9.92658 19.5558 10.0196 19.6728 10.0976 19.7128C10.0976 19.4798 10.3426 19.1578 10.5816 18.9778C10.5816 19.0098 10.5926 19.1318 10.5926 19.2648C10.5926 19.7048 10.6376 19.7898 10.8086 19.7898C10.8406 19.7898 10.8936 19.7798 10.9136 19.7678C10.8216 19.6628 10.7826 19.5248 10.7826 19.2638C10.7826 19.1888 10.7856 19.1188 10.7856 19.0578C10.7856 18.9418 10.7716 18.8598 10.7626 18.7958C10.8276 18.7878 10.9776 18.7658 11.0866 18.7658C11.3196 18.7658 11.4646 18.7888 11.5706 18.8918C11.6466 18.8348 11.7306 18.7278 11.7306 18.6548C11.7306 18.5488 11.6586 18.5418 11.5816 18.5418C11.4636 18.5418 11.3666 18.5878 10.9176 18.5878C11.0066 18.3388 11.2656 17.9888 11.5346 17.6678ZM9.68958 12.1498C9.68958 11.7658 9.94358 11.4758 10.0876 11.3018L9.99058 11.2808C9.85458 11.3968 9.47058 11.8098 9.47058 12.3308C9.47058 13.2428 10.4026 14.0898 11.4626 14.0958C11.4436 13.9231 11.4406 13.749 11.4536 13.5758C10.5166 13.5758 9.68958 12.9128 9.68958 12.1498ZM12.5386 11.4468C12.5866 11.3378 12.6516 11.2078 12.6516 11.0648C12.6516 10.6688 12.3186 10.4808 11.8726 10.4808C11.6436 10.4808 11.5276 10.5538 11.5276 10.6268C11.5276 10.6998 11.6036 10.8608 11.6326 10.9098C11.7146 10.8738 11.8636 10.8318 11.9506 10.8318C12.2566 10.8318 12.4846 11.1688 12.5386 11.4468ZM12.7576 10.9408C13.0176 10.9908 13.1956 10.6638 12.9476 10.6048C12.9826 10.7128 12.8156 10.7898 12.8156 10.7898C12.8156 10.7898 12.7516 10.6448 12.8346 10.5618C12.6826 10.4888 12.6446 10.5778 12.6416 10.6698C12.7016 10.7478 12.7396 10.8398 12.7576 10.9408ZM13.6006 13.1878C13.6426 13.1908 13.6826 13.1928 13.7246 13.1928C14.4576 13.1928 15.1856 12.7258 15.1856 12.1268C15.1856 11.8068 15.0396 11.5848 14.8596 11.3368C14.7677 11.3529 14.6748 11.3619 14.5816 11.3638C14.2496 11.3638 14.0686 11.1888 14.0556 11.0158C14.0556 10.8608 14.1836 10.7438 14.3826 10.7438C14.6916 10.7438 15.2546 11.0278 15.8206 11.0278C15.7399 11.0813 15.6524 11.124 15.5606 11.1548C15.8926 11.4488 16.1146 11.8438 16.1996 12.2668L17.0686 13.6358C17.2146 13.8638 17.5226 14.3138 17.9876 14.6648C17.4256 14.6648 17.0526 14.6778 16.5776 13.9378L16.1326 13.2358C16.0996 13.3258 16.0586 13.4158 16.0116 13.5018L16.8966 14.8978C17.0436 15.1278 17.3486 15.5748 17.8166 15.9278C17.2536 15.9278 16.8816 15.9408 16.4066 15.1998L15.6446 13.9978C15.5866 14.0578 15.5276 14.1158 15.4636 14.1718L16.5386 15.8678C16.6876 16.0998 16.9916 16.5438 17.4586 16.8968C16.8966 16.8968 16.5236 16.9098 16.0486 16.1688L15.0006 14.5168C14.9306 14.5598 14.8606 14.6008 14.7876 14.6408L16.0676 16.6578C16.2146 16.8888 16.5176 17.3328 16.9866 17.6868C16.4246 17.6868 16.0516 17.6998 15.5766 16.9588L14.2596 14.8818C14.1816 14.9118 14.1016 14.9398 14.0216 14.9648L15.5116 17.3128C15.6556 17.5408 15.9666 17.9918 16.4296 18.3418C15.8676 18.3418 15.4946 18.3548 15.0196 17.6138L13.4336 15.1118L13.3836 15.1208C13.3399 15.2456 13.3156 15.3765 13.3116 15.5088C13.3116 16.2938 13.8356 16.9888 14.4646 17.5238C14.4077 17.5419 14.3482 17.55 14.2886 17.5478C14.1596 17.5478 14.0756 17.5408 14.0166 17.5308C14.1626 17.8568 14.4756 18.2778 14.6336 18.4958C14.8653 18.4566 15.0996 18.4349 15.3346 18.4308C15.5396 18.4308 15.5616 18.5488 15.5616 18.6548C15.5616 18.8378 15.4756 18.9848 15.3736 19.0668C15.3366 18.9718 15.2596 18.8468 14.8806 18.8468L14.8416 18.8478C14.9536 18.9698 15.3006 19.2458 15.3006 19.4678C15.3006 19.6158 15.1356 19.8368 14.9196 19.8368C14.9336 19.7888 14.9306 19.7448 14.9306 19.7128C14.9306 19.5328 14.7686 19.3218 14.6326 19.1748C14.6356 19.2188 14.6346 19.2148 14.6346 19.2648C14.6346 19.6908 14.5946 19.8868 14.3206 19.8868C14.1866 19.8868 14.0926 19.8138 14.0606 19.7918C14.2396 19.6298 14.2486 19.5028 14.2486 19.2638L14.2466 19.0578C14.2466 19.0028 14.2466 18.9308 14.2566 18.8778C14.1576 18.8648 14.1186 18.8648 14.0426 18.8648C14.0426 18.8648 13.6526 18.8348 13.5586 19.0348C13.4536 18.9398 13.2996 18.8048 13.2996 18.6548C13.2996 18.5558 13.3466 18.4448 13.5466 18.4448C13.6236 18.4448 13.8626 18.4908 14.0626 18.4908C14.0096 18.3738 13.7696 18.0288 13.5626 17.7778C13.5305 17.8911 13.4641 17.9917 13.3726 18.0658C13.3576 17.9048 13.2626 17.3958 13.0066 17.0988C12.9766 17.2998 12.9366 17.5068 12.9366 17.9408C12.9366 18.9988 13.1956 19.7808 13.7436 19.9308C13.7047 19.9977 13.6499 20.054 13.5839 20.0945C13.5179 20.135 13.4429 20.1585 13.3656 20.1628C13.1646 20.1628 13.0556 19.9388 12.9436 19.7278C12.8856 19.8838 12.7256 20.2648 12.5636 20.2648C12.4036 20.2648 12.2436 19.8848 12.1856 19.7278C12.0746 19.9388 11.9656 20.1628 11.7636 20.1628C11.6862 20.1583 11.6111 20.1347 11.5451 20.0941C11.4791 20.0534 11.4243 19.9969 11.3856 19.9298C11.9336 19.7798 12.1926 18.9998 12.1926 17.9408C12.1926 17.5068 12.1526 17.3008 12.1226 17.0988C11.8666 17.3958 11.7706 17.9048 11.7566 18.0658C11.6649 17.9918 11.5985 17.8912 11.5666 17.7778C11.3596 18.0288 11.1206 18.3738 11.0666 18.4908C11.2666 18.4908 11.5066 18.4448 11.5816 18.4448C11.7826 18.4448 11.8296 18.5558 11.8296 18.6548C11.8296 18.8048 11.6756 18.9398 11.5706 19.0348C11.4766 18.8348 11.0866 18.8648 11.0866 18.8648C11.0106 18.8648 10.9716 18.8648 10.8736 18.8788C10.8816 18.9308 10.8836 19.0028 10.8816 19.0568L10.8806 19.2638C10.8806 19.5038 10.8906 19.6298 11.0686 19.7928C11.0366 19.8128 10.9436 19.8868 10.8086 19.8868C10.5336 19.8868 10.4946 19.6908 10.4946 19.2648C10.4946 19.2148 10.4926 19.2188 10.4976 19.1748C10.3596 19.3218 10.1976 19.5328 10.1976 19.7128C10.1976 19.7448 10.1966 19.7888 10.2096 19.8368C9.99358 19.8368 9.82958 19.6158 9.82958 19.4688C9.82958 19.2458 10.1766 18.9698 10.2866 18.8488L10.2486 18.8468C9.86958 18.8468 9.79258 18.9718 9.75458 19.0668C9.69481 19.0162 9.64696 18.953 9.61445 18.8818C9.58195 18.8106 9.5656 18.733 9.56658 18.6548C9.56658 18.5488 9.58958 18.4308 9.79458 18.4308C9.99158 18.4308 10.2906 18.4598 10.4956 18.4958C10.6536 18.2778 10.9656 17.8568 11.1126 17.5308C11.0546 17.5408 10.9696 17.5478 10.8406 17.5478C10.7813 17.55 10.7221 17.5419 10.6656 17.5238C11.2936 16.9878 11.8176 16.2938 11.8176 15.5088C11.8176 15.3818 11.7876 15.2558 11.7446 15.1208L11.6966 15.1118L10.1086 17.6138C9.63458 18.3538 9.26158 18.3408 8.69958 18.3408C9.16258 17.9908 9.47258 17.5408 9.61858 17.3128L11.1086 14.9648C11.0285 14.9394 10.9491 14.9117 10.8706 14.8818L9.55258 16.9598C9.07758 17.6998 8.70458 17.6878 8.14258 17.6878C8.61058 17.3338 8.91458 16.8898 9.06258 16.6578L10.3416 14.6418C10.2693 14.6027 10.1983 14.5613 10.1286 14.5178L9.08058 16.1698C8.60558 16.9098 8.23258 16.8978 7.67058 16.8978C8.03549 16.6113 8.34694 16.2626 8.59058 15.8678L9.66558 14.1728C9.60326 14.1172 9.54321 14.0592 9.48558 13.9988L8.72258 15.1998C8.24758 15.9398 7.87458 15.9268 7.31258 15.9268C7.78058 15.5748 8.08558 15.1288 8.23258 14.8968L9.11758 13.5018C9.07125 13.4161 9.03115 13.3272 8.99758 13.2358L8.55158 13.9368C8.07658 14.6768 7.70358 14.6648 7.14258 14.6648C7.60758 14.3138 7.91458 13.8648 8.06158 13.6348L8.92958 12.2668C9.01458 11.8438 9.23658 11.4488 9.56858 11.1548C9.47678 11.1238 9.38939 11.0812 9.30858 11.0278C9.87558 11.0278 10.4376 10.7438 10.7466 10.7438C10.9456 10.7438 11.0726 10.8608 11.0726 11.0158C11.0606 11.1888 10.8796 11.3638 10.5466 11.3638C10.4716 11.3638 10.3766 11.3538 10.2696 11.3368C10.0896 11.5848 9.94358 11.8068 9.94358 12.1268C9.94358 12.7258 10.6706 13.1928 11.4056 13.1928C11.4466 13.1928 11.4856 13.1908 11.5276 13.1878C11.6736 12.7028 11.9826 12.3848 12.2306 12.0728C11.9336 11.9668 11.6036 11.6898 11.6036 11.5638C11.6406 11.5428 12.2086 11.7188 12.2676 11.7338C12.28 11.7371 12.2931 11.7371 12.3056 11.7338C12.3756 11.7138 12.4326 11.6138 12.4326 11.6038C12.3726 11.5938 12.0156 11.5488 11.7726 11.4608C11.5866 11.3948 11.4926 11.2738 11.4926 11.2278C11.5526 11.2178 11.7776 11.3348 12.1086 11.3348C12.2306 11.3348 12.2546 11.3298 12.3766 11.3148C12.2906 11.1148 12.1306 10.9458 11.9496 10.9458C11.8776 10.9458 11.7196 10.9908 11.5856 11.0558C11.4936 10.9148 11.4126 10.7288 11.4126 10.6258C11.4126 10.5068 11.5326 10.3658 11.8726 10.3658C11.9676 10.3658 12.0566 10.3738 12.1396 10.3898C12.2017 10.4006 12.2627 10.4173 12.3216 10.4398C12.3157 10.4262 12.313 10.4115 12.3136 10.3968C12.3136 10.3508 12.3566 10.3018 12.5166 10.3018C12.7956 10.3018 13.0826 10.3918 13.4346 10.3918C13.5038 10.397 13.5734 10.3889 13.6396 10.3678C13.6176 10.4368 13.5176 10.5378 13.4276 10.6208C13.4836 10.6958 13.6286 10.8768 13.6286 11.1708C13.6286 11.6408 13.3136 12.0308 13.3136 12.5068C13.3136 12.7898 13.5346 13.0398 13.6006 13.1878Z" fill="white"/>
</g>
</g>
<defs>
<clipPath id="clip0_1924_2351">
<rect width="100" height="49" fill="white"/>
</clipPath>
<clipPath id="clip1_1924_2351">
<rect width="100" height="49" fill="white"/>
</clipPath>
</defs>
</svg>
