<svg width="140" height="55" viewBox="0 0 140 55" fill="none" xmlns="http://www.w3.org/2000/svg">
<g clip-path="url(#clip0_1924_2420)">
<g clip-path="url(#clip1_1924_2420)">
<path d="M34.0727 6.81055H33.3977V47.6795H34.0727V6.81055ZM26.9497 38.7805C26.9825 38.7027 26.9955 38.618 26.9877 38.5339C26.9798 38.4498 26.9513 38.3689 26.9047 38.2985C26.8582 38.2281 26.7949 38.1702 26.7206 38.1301C26.6462 38.09 26.5632 38.0688 26.4787 38.0685H25.9637C25.9297 38.0689 25.8962 38.0608 25.8662 38.0449C25.8361 38.029 25.8105 38.0058 25.7917 37.9775L25.5337 37.5915C25.5524 37.62 25.578 37.6432 25.608 37.6591C25.6381 37.675 25.6717 37.6831 25.7057 37.6825H26.3847C26.4197 37.6825 26.4527 37.6925 26.4817 37.7075C26.5107 37.7225 26.5357 37.7455 26.5557 37.7745L26.2437 37.3125C26.2245 37.2849 26.1989 37.2624 26.1692 37.2467C26.1394 37.231 26.1063 37.2228 26.0727 37.2225H25.3987C25.365 37.2224 25.3318 37.214 25.302 37.1982C25.2722 37.1823 25.2467 37.1594 25.2277 37.1315L24.9347 36.6965C24.9535 36.7246 24.979 36.7475 25.0088 36.7632C25.0387 36.7789 25.072 36.7869 25.1057 36.7865H25.7817C25.8177 36.7865 25.8507 36.7955 25.8787 36.8115C25.9087 36.8265 25.9337 36.8485 25.9537 36.8775L25.6417 36.4165C25.6227 36.3887 25.5972 36.3659 25.5674 36.3503C25.5376 36.3346 25.5044 36.3264 25.4707 36.3265H24.9327C24.8988 36.3264 24.8655 36.3178 24.8357 36.3015C24.8059 36.2857 24.7804 36.2627 24.7617 36.2345L24.4007 35.6995C25.1307 35.6115 25.7197 35.2115 25.8367 34.6615C25.9887 33.9475 25.2867 33.2555 24.2687 33.1045C24.1902 33.0932 24.1177 33.056 24.0627 32.9988C24.0077 32.9416 23.9733 32.8678 23.9649 32.7889C23.9566 32.71 23.9747 32.6306 24.0165 32.5632C24.0583 32.4957 24.1213 32.4441 24.1957 32.4165C24.0823 32.3679 23.9601 32.343 23.8367 32.3435C23.3867 32.3435 23.0217 32.6695 23.0217 33.0705C23.0217 33.1416 23.0332 33.2122 23.0557 33.2795C22.5517 33.4995 22.0927 33.8895 21.7407 34.3095C22.1253 34.2068 22.5217 34.155 22.9197 34.1555C22.911 34.0781 22.9187 33.9997 22.9424 33.9254C22.966 33.8511 23.0051 33.7827 23.057 33.7246C23.1089 33.6664 23.1725 33.6199 23.2436 33.588C23.3147 33.5561 23.3918 33.5396 23.4697 33.5395H23.4767C23.391 33.576 23.3169 33.635 23.2622 33.7105C23.2076 33.7859 23.1746 33.8748 23.1667 33.9675C23.1666 34.0199 23.1808 34.0713 23.2079 34.1162C23.235 34.161 23.2739 34.1975 23.3203 34.2218C23.3668 34.246 23.4189 34.257 23.4712 34.2536C23.5235 34.2503 23.5738 34.2326 23.6167 34.2025C23.597 34.1386 23.5937 34.0706 23.6073 34.0051C23.6209 33.9395 23.6508 33.8784 23.6943 33.8275C23.7378 33.7766 23.7935 33.7375 23.8562 33.714C23.9188 33.6904 23.9864 33.683 24.0527 33.6925C23.9544 33.7382 23.876 33.8179 23.8321 33.917C23.7882 34.0161 23.7818 34.1277 23.8141 34.2312C23.8464 34.3346 23.9152 34.4228 24.0076 34.4794C24.1001 34.5359 24.2099 34.5569 24.3167 34.5385C24.3042 34.4914 24.3027 34.4421 24.3121 34.3943C24.3216 34.3465 24.3419 34.3015 24.3714 34.2627C24.4009 34.2239 24.4389 34.1924 24.4825 34.1705C24.526 34.1487 24.574 34.1371 24.6227 34.1365C24.7072 34.1371 24.7881 34.171 24.8477 34.231C24.9073 34.2909 24.9407 34.372 24.9407 34.4565C24.9407 34.8425 24.5167 34.8775 24.2077 34.7885C23.3287 34.5325 22.5047 34.4185 21.7077 34.5305C20.6857 34.6745 19.0117 35.3725 17.2347 35.3145C16.8053 35.298 16.3794 35.2309 15.9657 35.1145C16.0197 35.1735 16.0547 35.2145 16.0767 35.2495C16.2497 35.5215 16.3097 35.8075 16.1567 36.1645C16.1607 35.7645 15.8337 35.4345 15.5597 35.2335C15.4487 35.1515 15.4037 35.0735 15.4227 34.9705L15.5027 34.5095C15.4972 34.5427 15.5 34.5767 15.5107 34.6085C15.5207 34.6405 15.5377 34.6695 15.5627 34.6945L15.7327 34.8625C15.7999 34.4033 15.6874 33.9359 15.4187 33.5575C15.5407 33.2355 15.5567 32.8805 15.4757 32.5475C15.4694 32.6364 15.4415 32.7223 15.3942 32.7978C15.347 32.8733 15.2819 32.9361 15.2047 32.9805C14.9877 33.1175 14.9527 33.3475 15.0647 33.5025C14.8817 33.4075 14.6297 33.0665 14.7747 32.8665C14.9327 32.6515 15.3627 32.7525 15.4157 32.3825C15.2019 32.3227 14.9759 32.322 14.7617 32.3805C14.6808 32.2862 14.5796 32.2116 14.4656 32.1622C14.3516 32.1128 14.2278 32.09 14.1037 32.0955C13.8877 31.8975 13.6107 31.8155 13.2717 31.8495C12.9327 31.8155 12.6557 31.8975 12.4397 32.0955C12.3156 32.09 12.1919 32.1128 12.0779 32.1622C11.9639 32.2116 11.8626 32.2862 11.7817 32.3805C11.5672 32.3219 11.3408 32.3226 11.1267 32.3825C11.1797 32.7525 11.6097 32.6505 11.7667 32.8665C11.9127 33.0665 11.6607 33.4075 11.4787 33.5025C11.5907 33.3475 11.5547 33.1175 11.3387 32.9805C11.2617 32.9359 11.1967 32.8732 11.1495 32.7977C11.1022 32.7222 11.0742 32.6363 11.0677 32.5475C10.9857 32.8805 11.0027 33.2355 11.1247 33.5575C10.8487 33.9605 10.7447 34.3955 10.8087 34.8625L10.9807 34.6945C11.0049 34.6709 11.023 34.6416 11.0333 34.6094C11.0435 34.5771 11.0458 34.5429 11.0397 34.5095L11.1197 34.9705C11.1387 35.0745 11.0947 35.1515 10.9837 35.2335C10.7087 35.4345 10.3817 35.7635 10.3857 36.1635C10.3169 36.0178 10.288 35.8563 10.3021 35.6957C10.3162 35.5351 10.3726 35.3812 10.4657 35.2495C9.94572 34.9655 9.54772 34.4995 9.47572 34.4135C9.31672 34.2285 9.33772 33.9925 9.48072 33.7855C9.75672 33.3875 9.82172 32.9635 9.47572 32.6735C9.49235 32.5382 9.45747 32.4016 9.37798 32.2908C9.2985 32.18 9.18025 32.1032 9.04672 32.0755C9.0978 32.1554 9.12327 32.249 9.11969 32.3437C9.11612 32.4384 9.08368 32.5298 9.02672 32.6055C9.08571 32.6844 9.11254 32.7826 9.10177 32.8805C9.091 32.9783 9.04344 33.0685 8.96872 33.1325C8.97732 33.0911 8.98168 33.0489 8.98172 33.0065C8.98172 32.7355 8.81472 32.5085 8.58972 32.4465C8.57239 32.3492 8.52145 32.2611 8.44579 32.1975C8.37014 32.1339 8.27456 32.0989 8.17572 32.0985C8.05572 32.0985 7.94872 32.1485 7.87272 32.2285C8.03272 32.2415 8.16072 32.3685 8.17772 32.5285C8.09973 32.5885 8.03873 32.6678 8.00072 32.7585H8.01072C8.08446 32.7586 8.15726 32.7751 8.22392 32.8066C8.29057 32.8382 8.34942 32.884 8.39625 32.941C8.44308 32.998 8.47673 33.0646 8.49479 33.1361C8.51285 33.2076 8.51488 33.2822 8.50072 33.3545C8.48154 33.2403 8.42739 33.1348 8.34572 33.0525C8.26886 32.9802 8.1726 32.9319 8.06871 32.9134C7.96481 32.895 7.85779 32.9072 7.76072 32.9485C7.71892 32.8955 7.66495 32.8533 7.60339 32.8256C7.54182 32.7979 7.47448 32.7854 7.40707 32.7892C7.33965 32.793 7.27416 32.8131 7.21613 32.8476C7.1581 32.8821 7.10925 32.9301 7.07372 32.9875C7.14661 32.9907 7.21782 33.0105 7.28194 33.0453C7.34605 33.0801 7.40138 33.1291 7.44372 33.1885C7.22672 33.4685 7.22372 33.8555 7.44572 34.0735C7.59572 34.2215 7.81072 34.2555 8.01072 34.1855C8.03083 34.1789 8.05223 34.1771 8.07316 34.1804C8.09409 34.1836 8.11396 34.1917 8.13113 34.2041C8.1483 34.2165 8.1623 34.2328 8.17196 34.2517C8.18162 34.2705 8.18668 34.2914 8.18672 34.3125C8.18664 34.3378 8.17944 34.3625 8.16594 34.3838C8.15244 34.4051 8.1332 34.4222 8.11042 34.4331C8.08764 34.444 8.06225 34.4482 8.03718 34.4452C8.01212 34.4423 7.98838 34.4324 7.96872 34.4165C7.92339 34.3796 7.86803 34.357 7.80977 34.3518C7.75151 34.3465 7.69301 34.3588 7.6418 34.3871C7.5906 34.4154 7.54904 34.4584 7.52247 34.5105C7.4959 34.5626 7.48554 34.6215 7.49272 34.6795C7.4426 34.6955 7.38907 34.6974 7.33795 34.685C7.28683 34.6727 7.24006 34.6466 7.20272 34.6095C7.1886 34.6651 7.18669 34.723 7.19713 34.7793C7.20757 34.8357 7.23011 34.8891 7.2632 34.9358C7.29628 34.9826 7.33912 35.0217 7.38876 35.0503C7.4384 35.0789 7.49366 35.0964 7.55072 35.1015C7.58485 35.1878 7.63813 35.2651 7.70654 35.3277C7.77495 35.3903 7.85669 35.4366 7.94559 35.463C8.03449 35.4894 8.12823 35.4952 8.21972 35.4801C8.31121 35.4649 8.39807 35.4292 8.47372 35.3755C8.51836 35.3437 8.57186 35.3265 8.62672 35.3265C8.66218 35.3267 8.69726 35.3338 8.72997 35.3475C8.76268 35.3612 8.79237 35.3812 8.81735 35.4063C8.84232 35.4315 8.8621 35.4613 8.87555 35.4941C8.889 35.527 8.89585 35.5621 8.89572 35.5975C8.89589 35.6589 8.87519 35.7184 8.83702 35.7664C8.79886 35.8144 8.7455 35.8479 8.68572 35.8615L8.47772 35.9085C8.44467 35.916 8.41026 35.915 8.37772 35.9055C8.34516 35.8967 8.3155 35.8795 8.29172 35.8555L8.76872 36.3145C8.79312 36.3381 8.82299 36.3551 8.85564 36.3642C8.88829 36.3733 8.92268 36.3741 8.95572 36.3665L9.34672 36.2785C9.37976 36.271 9.41419 36.272 9.44672 36.2815C9.47923 36.2905 9.50886 36.3077 9.53272 36.3315L9.86072 36.6455C9.83641 36.622 9.80645 36.6051 9.77372 36.5965C9.74151 36.5872 9.70744 36.5861 9.67472 36.5935L9.28472 36.6805C9.25168 36.6881 9.21725 36.6871 9.18472 36.6775C9.15214 36.6691 9.12222 36.6526 9.09772 36.6295L9.53572 37.0475C9.55981 37.0712 9.5895 37.0884 9.62203 37.0975C9.65455 37.1066 9.68885 37.1073 9.72172 37.0995L10.1137 37.0135C10.1468 37.006 10.1812 37.0068 10.2138 37.0159C10.2464 37.025 10.2763 37.042 10.3007 37.0655L10.6277 37.3805C10.6033 37.357 10.5734 37.34 10.5408 37.3309C10.5082 37.3218 10.4738 37.321 10.4407 37.3285L10.0507 37.4155C10.0177 37.423 9.98326 37.422 9.95072 37.4125C9.91789 37.4037 9.88792 37.3864 9.86372 37.3625L10.3017 37.7825C10.3277 37.8075 10.3577 37.8225 10.3887 37.8325C10.4213 37.8417 10.4558 37.8424 10.4887 37.8345L10.9617 37.7305C10.5017 37.9925 10.0137 38.2885 9.49472 38.6205C9.18872 38.8155 8.85372 38.8515 8.46872 38.7025C8.28646 38.6321 8.0894 38.6087 7.89572 38.6345C7.8061 38.6501 7.72099 38.6852 7.64636 38.7372C7.57173 38.7892 7.50939 38.8569 7.46372 38.9355C7.5769 38.89 7.70099 38.8788 7.8205 38.9033C7.94002 38.9279 8.04965 38.9871 8.13572 39.0735C7.93758 38.9944 7.71687 38.993 7.51772 39.0695C7.13072 39.2125 6.90572 39.5795 6.99372 39.9095C6.9331 39.9331 6.87937 39.9714 6.83746 40.0212C6.79555 40.0709 6.7668 40.1303 6.75386 40.194C6.74092 40.2577 6.74419 40.3237 6.76339 40.3858C6.78259 40.4479 6.81709 40.5042 6.86372 40.5495C6.88224 40.4643 6.92852 40.3876 6.99529 40.3316C7.06207 40.2755 7.14558 40.2431 7.23272 40.2395C7.30872 40.2895 7.39672 40.3255 7.49072 40.3445C7.51922 40.2949 7.55532 40.25 7.59772 40.2115C7.58243 40.113 7.59029 40.0123 7.6207 39.9173C7.6511 39.8224 7.70321 39.7358 7.77288 39.6645C7.84256 39.5931 7.92789 39.539 8.02211 39.5064C8.11633 39.4738 8.21686 39.4636 8.31572 39.4765C8.15676 39.5159 8.01875 39.6143 7.92977 39.7518C7.84079 39.8892 7.80752 40.0554 7.83672 40.2165C7.77631 40.2397 7.72233 40.277 7.6793 40.3253C7.63627 40.3736 7.60543 40.4315 7.58937 40.4942C7.57331 40.5568 7.5725 40.6224 7.587 40.6855C7.6015 40.7485 7.63089 40.8072 7.67272 40.8565C7.72693 40.7491 7.80743 40.6571 7.90674 40.5891C8.00604 40.5211 8.12093 40.4793 8.24072 40.4675C8.3968 40.5138 8.56157 40.5227 8.72172 40.4935C8.66638 40.4137 8.63551 40.3195 8.63287 40.2223C8.63023 40.1252 8.65594 40.0294 8.70686 39.9467C8.75778 39.864 8.83169 39.7979 8.91957 39.7565C9.00746 39.715 9.1055 39.7001 9.20172 39.7135C8.93972 39.8265 8.77972 40.0565 8.83472 40.2655C8.87472 40.4145 9.01272 40.5175 9.19172 40.5505C9.1895 40.6584 9.16027 40.7639 9.10672 40.8575C9.21779 40.8491 9.32474 40.8118 9.417 40.7494C9.50925 40.687 9.58361 40.6015 9.63272 40.5015C9.90372 40.3915 10.0707 40.1575 10.0157 39.9435C9.9945 39.8674 9.94838 39.8005 9.88472 39.7535C9.88154 39.7171 9.88594 39.6804 9.89764 39.6458C9.90934 39.6111 9.92809 39.5793 9.9527 39.5522C9.97731 39.5252 10.0072 39.5035 10.0406 39.4886C10.074 39.4737 10.1101 39.4658 10.1467 39.4655C10.2927 39.4655 10.4107 39.5855 10.4107 39.7325C10.4107 39.8025 10.3837 39.8655 10.3407 39.9125H10.8927C10.9262 39.9126 10.9592 39.9044 10.9887 39.8885C11.0188 39.8726 11.0443 39.8492 11.0627 39.8205L11.4167 39.2905C11.4297 39.2715 11.4472 39.2559 11.4676 39.2451C11.4879 39.2343 11.5106 39.2286 11.5337 39.2285H11.9667C11.9436 39.2287 11.9208 39.2345 11.9004 39.2455C11.88 39.2565 11.8626 39.2723 11.8497 39.2915L11.4947 39.8215C11.476 39.8494 11.4506 39.8721 11.4207 39.8875C11.3913 39.9038 11.3583 39.9124 11.3247 39.9125H11.9837C12.0172 39.9127 12.0502 39.9045 12.0797 39.8885C12.1103 39.8729 12.1361 39.8494 12.1547 39.8205L12.5517 39.2295C12.2777 39.0775 12.1647 38.8125 12.1647 38.4495C12.1647 38.2225 12.2917 37.9635 12.3107 37.7975L12.3177 37.7315C12.322 37.6977 12.3179 37.6634 12.3057 37.6315C12.2935 37.6005 12.2766 37.5715 12.2557 37.5455L12.5957 37.8965C12.6214 37.9186 12.641 37.9468 12.6527 37.9785C12.6655 38.0102 12.67 38.0446 12.6657 38.0785L12.6557 38.1585C12.6397 38.2985 12.4657 38.5985 12.7877 38.8735C12.8037 38.8875 12.8437 38.9155 12.8817 38.9405L13.1117 39.0855V38.2325H13.4317V39.1825C13.4317 39.2175 13.4417 39.2505 13.4587 39.2785C13.4748 39.3086 13.4982 39.334 13.5267 39.3525L13.8407 39.5525C13.869 39.5712 13.9015 39.5823 13.9353 39.585C13.969 39.5876 14.0029 39.5816 14.0337 39.5675L14.6117 39.3155C14.5806 39.3291 14.5465 39.3346 14.5127 39.3315C14.4792 39.329 14.4468 39.318 14.4187 39.2995L13.7547 38.8745C14.0777 38.5985 13.9037 38.2985 13.8867 38.1595L13.8767 38.0795C13.8724 38.0456 13.8765 38.0112 13.8887 37.9792C13.9009 37.9473 13.9208 37.9189 13.9467 37.8965L14.2867 37.5465C14.2659 37.5722 14.249 37.6009 14.2367 37.6315C14.2247 37.6634 14.2205 37.6977 14.2247 37.7315L14.2327 37.7975C14.2597 38.0345 14.4977 38.4645 14.2997 38.7045L14.9057 39.0935C14.9343 39.1118 14.967 39.1226 15.0008 39.1253C15.0347 39.1279 15.0686 39.1221 15.0997 39.1085L15.7037 38.8435C15.6727 38.8569 15.6389 38.8624 15.6052 38.8596C15.5716 38.8568 15.5391 38.8458 15.5107 38.8275L14.8547 38.4075C14.9977 38.1105 14.8777 37.6415 14.7387 37.3705L14.7187 37.3305C14.7033 37.2999 14.6957 37.2659 14.6967 37.2315C14.6967 37.1976 14.7053 37.1642 14.7217 37.1345L14.9467 36.7245C14.9304 36.7543 14.9218 36.7876 14.9217 36.8215C14.9208 36.8555 14.9284 36.8892 14.9437 36.9195L15.0257 37.0825C15.0697 37.1625 15.0937 37.2105 15.1317 37.3045C15.5017 36.9695 15.5827 36.6445 15.3477 36.3685L15.2777 36.2855C15.2555 36.2597 15.24 36.2288 15.2327 36.1955C15.2249 36.1626 15.2255 36.1282 15.2347 36.0955L15.3547 35.6435C15.3463 35.6763 15.3459 35.7105 15.3536 35.7434C15.3612 35.7763 15.3767 35.8069 15.3987 35.8325L15.6287 36.1045C16.0787 36.6165 15.8067 37.2765 15.2717 37.7785C15.3017 37.8755 15.3267 38.0565 15.3047 38.1545L16.0157 38.6095C16.0457 38.6295 16.0787 38.6395 16.1117 38.6415C16.1452 38.6444 16.1789 38.639 16.2097 38.6255L16.7237 38.3995C16.6871 38.4153 16.6471 38.4217 16.6074 38.4182C16.5676 38.4146 16.5294 38.4012 16.4961 38.3792C16.4629 38.3572 16.4356 38.3272 16.4169 38.292C16.3981 38.2568 16.3885 38.2174 16.3887 38.1775C16.3884 38.1264 16.4045 38.0765 16.4345 38.0352C16.4645 37.9938 16.507 37.9631 16.5557 37.9475C18.5187 37.3435 20.3257 35.7875 21.5127 35.7915C22.0887 35.7935 22.5567 36.1465 22.5567 36.5825C22.5567 36.6525 22.5447 36.7225 22.5217 36.7875C22.2687 37.5045 22.6377 38.1895 23.6097 38.4525C23.7032 38.4785 23.7827 38.5404 23.8309 38.6246C23.879 38.7089 23.8919 38.8088 23.8667 38.9025C24.0052 38.9143 24.1442 38.8893 24.27 38.8302C24.3957 38.771 24.5035 38.6797 24.5827 38.5655C24.7497 38.5655 24.9327 38.5555 25.1187 38.5355C25.1417 38.5805 25.1587 38.6335 25.1697 38.6895C25.2097 38.8955 25.1397 39.0825 25.0137 39.1235C24.7897 39.1965 24.5167 39.1085 24.3047 39.1105C24.2012 39.1122 24.0992 39.1357 24.0054 39.1796C23.9117 39.2234 23.8282 39.2866 23.7606 39.365C23.693 39.4434 23.6427 39.5352 23.6131 39.6344C23.5835 39.7336 23.5752 39.8379 23.5887 39.9405C23.4911 40.0018 23.4208 40.0983 23.3924 40.2101C23.3641 40.3218 23.38 40.4402 23.4367 40.5405C23.5597 40.3955 23.7197 40.2835 23.9027 40.2185C23.9067 40.1207 23.9323 40.0249 23.9776 39.9381C24.023 39.8513 24.0871 39.7756 24.1652 39.7165C24.2433 39.6574 24.3336 39.6164 24.4295 39.5963C24.5253 39.5763 24.6245 39.5777 24.7197 39.6005C24.5285 39.6258 24.3549 39.7252 24.2363 39.8772C24.1177 40.0293 24.0636 40.222 24.0857 40.4135C24.0334 40.4776 24.0082 40.5596 24.0155 40.642C24.0228 40.7244 24.062 40.8007 24.1247 40.8545C24.1927 40.7045 24.3567 40.5635 24.5677 40.4915C24.6958 40.4454 24.8337 40.4336 24.9677 40.4575C24.9367 40.364 24.9303 40.264 24.9489 40.1672C24.9675 40.0705 25.0106 39.98 25.0741 39.9046C25.1375 39.8292 25.2193 39.7713 25.3115 39.7365C25.4037 39.7016 25.5032 39.691 25.6007 39.7055C25.5104 39.7186 25.426 39.7584 25.3584 39.8197C25.2908 39.8811 25.2431 39.9612 25.2214 40.0499C25.1997 40.1386 25.205 40.2317 25.2366 40.3173C25.2682 40.403 25.3246 40.4772 25.3987 40.5305L25.3967 40.5565C25.3967 40.6815 25.4537 40.7935 25.5437 40.8675C25.5629 40.764 25.6176 40.6704 25.6986 40.603C25.7795 40.5356 25.8814 40.4987 25.9867 40.4985C26.1747 40.4985 26.3297 40.4745 26.4467 40.4365C26.53 40.409 26.6044 40.3598 26.6623 40.2939C26.7201 40.2281 26.7594 40.1479 26.776 40.0618C26.7926 39.9757 26.786 39.8868 26.7567 39.8041C26.7275 39.7214 26.6768 39.6481 26.6097 39.5915C26.6627 39.3455 26.6527 38.9415 26.5697 38.6045C26.6431 38.5946 26.7179 38.6058 26.7852 38.6368C26.8525 38.6678 26.9095 38.7183 26.9497 38.7805ZM11.5167 37.0825L11.5987 36.9195C11.6139 36.8891 11.6214 36.8555 11.6207 36.8216C11.62 36.7876 11.6111 36.7543 11.5947 36.7245L11.8207 37.1345C11.837 37.1645 11.8459 37.198 11.8466 37.2321C11.8473 37.2662 11.8398 37.2999 11.8247 37.3305L11.8047 37.3705C11.6657 37.6415 11.5367 38.1505 11.6797 38.4455C11.544 38.4003 11.4287 38.3085 11.354 38.1865C11.2794 38.0645 11.2502 37.92 11.2717 37.7785C10.6417 37.1765 10.4837 36.5655 10.9327 36.0545L11.1627 35.7815C11.1852 35.7563 11.2007 35.7256 11.2077 35.6925C11.2162 35.6598 11.2162 35.6253 11.2077 35.5925L11.3277 36.0455C11.3357 36.0795 11.3377 36.1135 11.3287 36.1455C11.3216 36.1787 11.3065 36.2096 11.2847 36.2355L11.2147 36.3185C10.9787 36.5945 11.0417 36.9685 11.4107 37.3045C11.4487 37.2105 11.4737 37.1615 11.5167 37.0825ZM12.3547 33.8125H12.2067C12.0467 33.8125 11.9037 33.5955 11.9037 33.3995C11.9917 33.4995 12.0847 33.5415 12.2107 33.5415H12.8907C12.9507 33.5415 13.0117 33.5895 13.0377 33.6685C13.0519 33.7443 13.0512 33.8221 13.0357 33.8975C13.0027 33.8345 12.9617 33.8125 12.9087 33.8125H12.7547C12.7929 33.8598 12.8134 33.9188 12.8127 33.9795C12.813 34.0483 12.786 34.1144 12.7376 34.1633C12.6893 34.2123 12.6235 34.24 12.5547 34.2405C12.505 34.2408 12.4562 34.2269 12.4142 34.2003C12.3722 34.1737 12.3386 34.1357 12.3176 34.0906C12.2965 34.0456 12.2889 33.9954 12.2954 33.9461C12.302 33.8969 12.3226 33.8505 12.3547 33.8125ZM12.5257 32.5745L12.8077 32.9365C12.8707 33.0135 12.8907 33.0645 12.9647 33.0755H12.7277C12.6759 33.0763 12.6245 33.065 12.5778 33.0424C12.5311 33.0198 12.4903 32.9867 12.4587 32.9455L12.1887 32.5895C12.1537 32.5373 12.1058 32.495 12.0497 32.4665H12.3177C12.3977 32.4665 12.4697 32.5025 12.5257 32.5745ZM13.3107 32.4855L13.6567 32.9775C13.7117 33.0575 13.7637 33.1025 13.8377 33.1335H13.5207C13.4697 33.1355 13.4193 33.1229 13.3752 33.0972C13.3311 33.0715 13.2952 33.0338 13.2717 32.9885L13.0007 32.5665C12.8967 32.4085 12.8547 32.3685 12.7357 32.3265H13.0297C13.1457 32.3265 13.2547 32.4025 13.3117 32.4865L13.3107 32.4855ZM14.5487 33.0755H14.3117C14.2599 33.0762 14.2086 33.0649 14.1619 33.0423C14.1152 33.0197 14.0744 32.9866 14.0427 32.9455L13.7727 32.5895C13.7378 32.5373 13.6899 32.4949 13.6337 32.4665H13.9017C13.9817 32.4665 14.0537 32.5025 14.1097 32.5745L14.3917 32.9365C14.4547 33.0135 14.4747 33.0645 14.5487 33.0755ZM14.6387 33.3995C14.6387 33.5955 14.4967 33.8125 14.3357 33.8125H14.1877C14.219 33.8507 14.2388 33.8969 14.245 33.9458C14.2511 33.9947 14.2434 34.0443 14.2226 34.089C14.2018 34.1337 14.1689 34.1717 14.1275 34.1985C14.0861 34.2253 14.038 34.2399 13.9887 34.2405C13.939 34.2408 13.8902 34.2269 13.8482 34.2003C13.8062 34.1737 13.7726 34.1357 13.7516 34.0906C13.7305 34.0456 13.7229 33.9954 13.7294 33.9461C13.736 33.8969 13.7566 33.8505 13.7887 33.8125H13.6337C13.5817 33.8125 13.5407 33.8345 13.5077 33.8965C13.492 33.8214 13.491 33.744 13.5047 33.6685C13.5317 33.5885 13.5917 33.5415 13.6527 33.5415H14.3327C14.3912 33.5433 14.4494 33.5313 14.5025 33.5067C14.5556 33.482 14.6022 33.4454 14.6387 33.3995ZM14.4297 34.8835C14.3827 34.8975 14.3577 34.9245 14.3517 34.9745C14.3237 35.2425 14.2157 35.3505 14.0437 35.4115C14.0417 35.6815 14.0047 35.8855 13.9327 36.1395C14.1367 36.5695 13.9797 36.8715 13.8147 36.9355C13.6567 36.9975 13.4537 36.9145 13.2727 36.9145C13.0927 36.9145 12.8867 36.9975 12.7287 36.9345C12.5627 36.8715 12.4067 36.5705 12.6107 36.1395C12.538 35.9037 12.5003 35.6584 12.4987 35.4115C12.3267 35.3515 12.2187 35.2425 12.1907 34.9745C12.1857 34.9245 12.1597 34.8975 12.1137 34.8845C11.4347 34.6965 11.3707 33.8455 11.7137 33.6045C11.6837 33.9855 11.6507 34.5235 12.4217 34.5945C12.4097 35.0415 12.6017 35.1615 12.7987 35.1615C12.9587 35.1615 13.0517 35.1095 13.0917 35.0875C13.2357 35.0105 13.1367 34.8935 13.0997 34.8585C13.0507 34.8142 13.0135 34.7584 12.9917 34.696C12.9699 34.6336 12.964 34.5668 12.9747 34.5015C12.9787 34.4775 12.9877 34.4655 13.0097 34.4655H13.5317C13.5547 34.4655 13.5637 34.4775 13.5687 34.5015C13.5791 34.5667 13.5732 34.6335 13.5513 34.6958C13.5295 34.7582 13.4925 34.8141 13.4437 34.8585C13.4067 34.8935 13.3077 35.0105 13.4507 35.0885C13.4907 35.1085 13.5837 35.1615 13.7447 35.1615C13.9417 35.1615 14.1337 35.0415 14.1207 34.5955C14.8927 34.5235 14.8597 33.9855 14.8287 33.6055C15.1727 33.8455 15.1077 34.6965 14.4297 34.8835ZM13.7467 36.5235C13.7667 36.2965 13.5107 36.2155 13.2717 36.2155C13.0317 36.2155 12.7757 36.2955 12.7957 36.5235C12.8197 36.8015 13.0777 36.6695 13.2717 36.6705C13.4647 36.6695 13.7217 36.8015 13.7467 36.5235ZM13.6667 35.9835C13.7047 35.7835 13.7197 35.5885 13.7127 35.4015L13.5347 35.6115C13.511 35.5509 13.4836 35.4918 13.4527 35.4345C13.4327 35.4005 13.4167 35.3775 13.3927 35.3725C13.3817 35.3785 13.3627 35.3885 13.3437 35.3925C13.3207 35.3985 13.2907 35.3975 13.2717 35.3975C13.2527 35.3975 13.2217 35.3985 13.1987 35.3935C13.1787 35.3885 13.1617 35.3785 13.1497 35.3735C13.1257 35.3775 13.1097 35.4005 13.0897 35.4345C13.0588 35.4918 13.0314 35.5509 13.0077 35.6115L12.8297 35.4015C12.8227 35.5885 12.8377 35.7835 12.8757 35.9835C13.0067 35.9535 13.1427 35.9435 13.2717 35.9435C13.3997 35.9435 13.5347 35.9535 13.6667 35.9835ZM16.9047 30.3785C16.9337 30.3785 16.9607 30.3805 16.9887 30.3835C16.8512 30.424 16.7248 30.4955 16.6194 30.5926C16.514 30.6897 16.4323 30.8098 16.3807 30.9435C16.3166 30.9651 16.2583 31.0011 16.2104 31.0489C16.1625 31.0967 16.1263 31.1549 16.1046 31.219C16.0829 31.2831 16.0763 31.3513 16.0854 31.4184C16.0944 31.4854 16.1188 31.5495 16.1567 31.6055C16.3067 31.4355 16.5047 31.3095 16.7287 31.2485C16.7599 31.089 16.8412 30.9436 16.9609 30.8335C17.0805 30.7234 17.2321 30.6544 17.3937 30.6365C17.294 30.6789 17.2038 30.7407 17.1284 30.8185C17.053 30.8962 16.9939 30.9882 16.9545 31.0891C16.9152 31.19 16.8965 31.2978 16.8994 31.4061C16.9024 31.5143 16.927 31.6209 16.9717 31.7195C16.9876 31.6621 17.0151 31.6085 17.0524 31.562C17.0898 31.5155 17.1363 31.4772 17.189 31.4494C17.2418 31.4216 17.2997 31.4048 17.3591 31.4002C17.4186 31.3956 17.4783 31.4032 17.5347 31.4225C17.6384 31.4596 17.7505 31.4666 17.858 31.4429C17.9656 31.4191 18.0643 31.3656 18.1428 31.2883C18.2212 31.2111 18.2764 31.1133 18.3019 31.0061C18.3273 30.899 18.3221 30.7868 18.2867 30.6825C18.3429 30.6992 18.3943 30.7288 18.4369 30.7691C18.4794 30.8093 18.5118 30.8591 18.5315 30.9142C18.5512 30.9694 18.5576 31.0284 18.5502 31.0865C18.5427 31.1446 18.5217 31.2001 18.4887 31.2485C18.5886 31.2663 18.691 31.2634 18.7897 31.24C18.8884 31.2166 18.9813 31.1733 19.0626 31.1127C19.1439 31.0521 19.212 30.9755 19.2625 30.8876C19.3131 30.7996 19.3452 30.7023 19.3567 30.6015C19.5467 30.4965 19.7137 30.3565 19.8577 30.1815L19.9587 30.6785C19.9659 30.7119 19.9647 30.7465 19.9553 30.7793C19.9459 30.8121 19.9285 30.8421 19.9047 30.8665L20.3227 30.4325C20.3466 30.4083 20.3638 30.3784 20.3727 30.3455C20.3823 30.3131 20.3837 30.2787 20.3767 30.2455L20.2537 29.6375C20.2467 29.6044 20.2481 29.57 20.2577 29.5375C20.2667 29.5045 20.2839 29.4742 20.3077 29.4495L20.6367 29.1115C20.6134 29.1363 20.5964 29.1663 20.5872 29.199C20.5779 29.2318 20.5767 29.2663 20.5837 29.2995L20.7067 29.9075C20.7133 29.9405 20.7119 29.9746 20.7027 30.0069C20.6934 30.0393 20.6767 30.069 20.6537 30.0935L21.0267 29.7025C21.0501 29.6778 21.0672 29.6478 21.0766 29.6151C21.086 29.5824 21.0874 29.5479 21.0807 29.5145L20.9577 28.9075C20.9507 28.8744 20.9521 28.84 20.9617 28.8075C20.9709 28.7749 20.9881 28.745 21.0117 28.7205L21.3407 28.3815C21.3174 28.4061 21.3004 28.4359 21.291 28.4685C21.2816 28.501 21.2801 28.5353 21.2867 28.5685L21.4107 29.1785C21.4171 29.2114 21.4156 29.2453 21.4064 29.2774C21.3972 29.3096 21.3805 29.3391 21.3577 29.3635L21.7307 28.9735C21.7545 28.9489 21.7718 28.9186 21.7807 28.8855C21.7902 28.853 21.7916 28.8187 21.7847 28.7855L21.7247 28.4875C21.6617 28.1525 22.0047 27.7655 22.2777 27.7275C22.3105 27.6642 22.3277 27.5939 22.3277 27.5225C22.3277 27.1825 21.9257 26.9055 21.4297 26.9055C21.1877 26.9055 20.9677 26.9715 20.8057 27.0795C20.8707 27.2735 20.8847 27.4695 20.2477 27.5615C19.7437 27.6335 19.2997 27.7325 18.9627 28.0215C18.4427 28.4675 18.4847 29.0615 18.1887 29.2875C18.3207 29.3195 18.4877 29.3195 18.6667 29.2815C18.7797 29.2565 18.8847 29.2185 18.9767 29.1715C18.9217 29.2795 18.7947 29.3815 18.6277 29.4525C18.5727 29.6625 18.3877 29.8635 18.1377 29.9575C17.9964 30.0139 17.8408 30.0233 17.6937 29.9845L17.0857 29.8065C17.0093 29.7845 16.9302 29.7734 16.8507 29.7735C16.4027 29.7735 16.0327 30.1235 15.9777 30.5735C15.9063 30.5839 15.8385 30.6118 15.7804 30.6546C15.7223 30.6975 15.6757 30.754 15.6446 30.8191C15.6136 30.8843 15.5991 30.9561 15.6024 31.0282C15.6057 31.1003 15.6268 31.1705 15.6637 31.2325C15.8087 31.0825 15.9937 30.9715 16.2017 30.9145C16.2446 30.7609 16.3364 30.6254 16.4633 30.5286C16.5902 30.4319 16.7452 30.3792 16.9047 30.3785ZM16.9477 33.8445C16.9374 33.7903 16.9381 33.7345 16.9497 33.6805C16.9607 33.6284 16.9892 33.5816 17.0305 33.5479C17.0718 33.5143 17.1234 33.4958 17.1767 33.4955C17.2221 33.4964 17.2663 33.5103 17.3039 33.5356C17.3416 33.5609 17.3712 33.5965 17.3891 33.6382C17.4071 33.6799 17.4126 33.7259 17.4051 33.7706C17.3976 33.8154 17.3773 33.857 17.3467 33.8905C17.5036 33.9054 17.6618 33.8936 17.8147 33.8555C17.9056 33.8314 17.9845 33.775 18.0368 33.6969C18.0891 33.6188 18.1112 33.5243 18.099 33.4311C18.0867 33.3379 18.041 33.2524 17.9703 33.1904C17.8995 33.1285 17.8087 33.0944 17.7147 33.0945L17.6797 33.0955C17.7508 33.0661 17.8282 33.0554 17.9046 33.0645C17.981 33.0737 18.0537 33.1023 18.1158 33.1478C18.1779 33.1932 18.2273 33.2538 18.2591 33.3238C18.291 33.3939 18.3043 33.4709 18.2977 33.5475C18.9627 33.5335 19.7107 32.9215 19.8747 32.6885C19.6549 32.7387 19.4302 32.7639 19.2047 32.7635C18.9377 32.7635 18.6827 32.7305 18.4517 32.6685C18.1601 32.5865 17.8595 32.5408 17.5567 32.5325C16.7417 32.5325 16.0817 33.0695 16.0817 33.7315C16.0817 34.2775 16.5287 34.7555 17.1487 34.8835C18.5597 35.1735 20.2187 34.3285 21.6217 34.0355C21.9717 33.6895 22.3777 33.4005 22.8227 33.1815C22.8094 33.1289 22.8027 33.0748 22.8027 33.0205V33.0165C20.9427 33.3265 19.2687 34.2895 17.7577 34.2815C17.3337 34.2795 17.0017 34.1155 16.9477 33.8445ZM26.9507 29.6705C26.9835 29.5927 26.9965 29.508 26.9887 29.4239C26.9808 29.3398 26.9523 29.2589 26.9057 29.1885C26.8591 29.1181 26.7959 29.0602 26.7216 29.0201C26.6472 28.98 26.5642 28.9588 26.4797 28.9585H25.9637C25.93 28.9586 25.8969 28.9504 25.8671 28.9347C25.8373 28.919 25.8118 28.8963 25.7927 28.8685L25.5337 28.4825C25.5526 28.5107 25.5782 28.5337 25.6083 28.5494C25.6383 28.5652 25.6718 28.5731 25.7057 28.5725H26.3847C26.4197 28.5725 26.4527 28.5825 26.4817 28.5975C26.5107 28.6125 26.5357 28.6355 26.5557 28.6645L26.2437 28.2035C26.2248 28.1752 26.199 28.1521 26.1687 28.1365C26.1392 28.1207 26.1062 28.1125 26.0727 28.1125H25.3987C25.3652 28.1126 25.3322 28.1044 25.3027 28.0885C25.2725 28.0729 25.2467 28.0498 25.2277 28.0215L24.9347 27.5865C24.9534 27.6147 24.9789 27.6378 25.0087 27.6536C25.0386 27.6695 25.0719 27.6777 25.1057 27.6775H25.7817C25.8177 27.6775 25.8507 27.6855 25.8787 27.7015C25.9087 27.7165 25.9337 27.7385 25.9537 27.7675L25.6417 27.3075C25.6229 27.2794 25.5975 27.2563 25.5677 27.2403C25.5379 27.2242 25.5046 27.2157 25.4707 27.2155H24.9327C24.899 27.2152 24.8659 27.2068 24.8361 27.1909C24.8063 27.1751 24.7808 27.1523 24.7617 27.1245L24.4007 26.5895C25.1307 26.5015 25.7197 26.1015 25.8367 25.5515C25.9887 24.8385 25.2867 24.1455 24.2687 23.9945C24.1843 23.9818 24.1072 23.9392 24.0516 23.8744C23.996 23.8096 23.9655 23.7269 23.9657 23.6415C23.9657 23.4885 24.0617 23.3575 24.1957 23.3075C24.0825 23.2583 23.9602 23.2331 23.8367 23.2335C23.3867 23.2335 23.0217 23.5585 23.0217 23.9605C23.0217 24.0316 23.0332 24.1022 23.0557 24.1695C22.5517 24.3895 22.0927 24.7795 21.7407 25.1995C22.1167 25.0995 22.5117 25.0455 22.9197 25.0455C22.911 24.9681 22.9187 24.8897 22.9424 24.8154C22.966 24.7411 23.0051 24.6727 23.057 24.6146C23.1089 24.5564 23.1725 24.5099 23.2436 24.478C23.3147 24.4461 23.3918 24.4296 23.4697 24.4295H23.4767C23.391 24.466 23.3169 24.525 23.2622 24.6005C23.2076 24.6759 23.1746 24.7648 23.1667 24.8575C23.1659 24.9102 23.1797 24.9621 23.2066 25.0073C23.2335 25.0526 23.2725 25.0895 23.3192 25.1139C23.3659 25.1383 23.4185 25.1492 23.471 25.1454C23.5235 25.1416 23.574 25.1233 23.6167 25.0925C23.597 25.0286 23.5937 24.9606 23.6073 24.8951C23.6209 24.8295 23.6508 24.7684 23.6943 24.7175C23.7378 24.6666 23.7935 24.6275 23.8562 24.604C23.9188 24.5804 23.9864 24.573 24.0527 24.5825C23.9534 24.6276 23.874 24.7073 23.8294 24.8068C23.7848 24.9063 23.7781 25.0186 23.8105 25.1227C23.843 25.2267 23.9123 25.3154 24.0056 25.3719C24.0988 25.4284 24.2094 25.4489 24.3167 25.4295C24.3042 25.3824 24.3027 25.3331 24.3121 25.2853C24.3216 25.2375 24.3419 25.1925 24.3714 25.1537C24.4009 25.1149 24.4389 25.0834 24.4825 25.0615C24.526 25.0397 24.574 25.028 24.6227 25.0275C24.7072 25.0281 24.7881 25.062 24.8477 25.122C24.9073 25.1819 24.9407 25.263 24.9407 25.3475C24.9407 25.7325 24.5167 25.7675 24.2077 25.6775C23.3287 25.4225 22.5047 25.3075 21.7077 25.4205C20.6857 25.5655 19.0117 26.2625 17.2347 26.2045C16.8053 26.188 16.3794 26.1209 15.9657 26.0045C16.0197 26.0645 16.0547 26.1045 16.0767 26.1395C16.2497 26.4115 16.3097 26.6975 16.1567 27.0545C16.1607 26.6545 15.8337 26.3245 15.5597 26.1225C15.4487 26.0425 15.4037 25.9645 15.4227 25.8605L15.5027 25.3995C15.4969 25.4329 15.4993 25.4672 15.5098 25.4995C15.5202 25.5317 15.5384 25.5609 15.5627 25.5845L15.7327 25.7525C15.7999 25.2933 15.6874 24.8259 15.4187 24.4475C15.5407 24.1255 15.5567 23.7705 15.4757 23.4375C15.4694 23.5264 15.4413 23.6123 15.3941 23.6878C15.3468 23.7632 15.2818 23.826 15.2047 23.8705C14.9877 24.0075 14.9527 24.2375 15.0647 24.3925C14.8817 24.2985 14.6297 23.9565 14.7747 23.7565C14.9327 23.5405 15.3627 23.6425 15.4157 23.2725C15.2019 23.2127 14.9759 23.212 14.7617 23.2705C14.6808 23.1762 14.5796 23.1016 14.4656 23.0522C14.3516 23.0028 14.2278 22.98 14.1037 22.9855C13.8877 22.7875 13.6107 22.7055 13.2717 22.7395C12.9327 22.7055 12.6557 22.7875 12.4397 22.9855C12.3156 22.98 12.1919 23.0028 12.0779 23.0522C11.9639 23.1016 11.8626 23.1762 11.7817 23.2705C11.5672 23.2119 11.3408 23.2126 11.1267 23.2725C11.1797 23.6425 11.6097 23.5405 11.7667 23.7565C11.9127 23.9565 11.6607 24.2985 11.4787 24.3925C11.5907 24.2375 11.5547 24.0075 11.3387 23.8705C11.2617 23.8259 11.1967 23.7632 11.1495 23.6877C11.1022 23.6122 11.0742 23.5263 11.0677 23.4375C10.9857 23.7705 11.0027 24.1255 11.1247 24.4475C10.8487 24.8505 10.7447 25.2855 10.8087 25.7525L10.9807 25.5845C11.0049 25.5608 11.0229 25.5316 11.0331 25.4994C11.0434 25.4671 11.0457 25.4329 11.0397 25.3995L11.1197 25.8595C11.1387 25.9645 11.0947 26.0415 10.9837 26.1225C10.7087 26.3245 10.3817 26.6535 10.3857 27.0545C10.3167 26.9086 10.2878 26.747 10.3018 26.5862C10.3159 26.4254 10.3724 26.2713 10.4657 26.1395C9.94572 25.8555 9.54772 25.3895 9.47572 25.3035C9.31672 25.1185 9.33772 24.8825 9.48072 24.6755C9.75672 24.2785 9.82172 23.8545 9.47572 23.5635C9.49235 23.4282 9.45747 23.2916 9.37798 23.1808C9.2985 23.07 9.18025 22.9932 9.04672 22.9655C9.0978 23.0454 9.12327 23.139 9.11969 23.2337C9.11612 23.3284 9.08368 23.4198 9.02672 23.4955C9.08641 23.5741 9.11368 23.6726 9.10289 23.7706C9.09209 23.8687 9.04407 23.9589 8.96872 24.0225C8.97735 23.9811 8.98171 23.9389 8.98172 23.8965C8.98172 23.6255 8.81472 23.3985 8.58972 23.3365C8.57239 23.2392 8.52145 23.1511 8.44579 23.0875C8.37014 23.0239 8.27456 22.9889 8.17572 22.9885C8.05572 22.9885 7.94872 23.0385 7.87272 23.1185C8.03272 23.1315 8.16072 23.2585 8.17772 23.4185C8.09967 23.4785 8.03865 23.5578 8.00072 23.6485H8.01072C8.08446 23.6487 8.15726 23.6651 8.22392 23.6966C8.29057 23.7282 8.34942 23.7741 8.39625 23.831C8.44308 23.888 8.47673 23.9546 8.49479 24.0261C8.51285 24.0976 8.51488 24.1722 8.50072 24.2445C8.48154 24.1306 8.42737 24.0254 8.34572 23.9435C8.26904 23.871 8.17282 23.8224 8.0689 23.8037C7.96497 23.7851 7.85786 23.7972 7.76072 23.8385C7.71892 23.7855 7.66495 23.7433 7.60339 23.7156C7.54182 23.6879 7.47448 23.6754 7.40707 23.6792C7.33965 23.683 7.27416 23.7031 7.21613 23.7376C7.1581 23.7721 7.10925 23.8201 7.07372 23.8775C7.14661 23.8807 7.21782 23.9005 7.28194 23.9353C7.34605 23.9701 7.40138 24.0191 7.44372 24.0785C7.22672 24.3585 7.22372 24.7455 7.44572 24.9635C7.59572 25.1115 7.81072 25.1455 8.01072 25.0755C8.03083 25.0689 8.05223 25.0671 8.07316 25.0704C8.09409 25.0736 8.11396 25.0817 8.13113 25.0941C8.1483 25.1065 8.1623 25.1228 8.17196 25.1417C8.18162 25.1605 8.18668 25.1814 8.18672 25.2025C8.18664 25.2278 8.17944 25.2525 8.16594 25.2738C8.15244 25.2951 8.1332 25.3122 8.11042 25.3231C8.08764 25.334 8.06225 25.3382 8.03718 25.3352C8.01212 25.3323 7.98838 25.3224 7.96872 25.3065C7.92339 25.2696 7.86803 25.247 7.80977 25.2418C7.75151 25.2365 7.69301 25.2488 7.6418 25.2771C7.5906 25.3054 7.54904 25.3484 7.52247 25.4005C7.4959 25.4526 7.48554 25.5115 7.49272 25.5695C7.4426 25.5855 7.38907 25.5874 7.33795 25.575C7.28683 25.5627 7.24006 25.5366 7.20272 25.4995C7.18842 25.5551 7.18638 25.6131 7.19675 25.6695C7.20711 25.7259 7.22964 25.7793 7.26275 25.8262C7.29587 25.873 7.33878 25.912 7.38851 25.9406C7.43824 25.9691 7.49359 25.9865 7.55072 25.9915C7.58485 26.0778 7.63813 26.1551 7.70654 26.2177C7.77495 26.2803 7.85669 26.3266 7.94559 26.353C8.03449 26.3794 8.12823 26.3852 8.21972 26.3701C8.31121 26.3549 8.39807 26.3192 8.47372 26.2655C8.51405 26.2372 8.56142 26.2206 8.6106 26.2174C8.65979 26.2143 8.70889 26.2247 8.75251 26.2477C8.79612 26.2706 8.83257 26.3052 8.85784 26.3475C8.8831 26.3898 8.89621 26.4383 8.89572 26.4875C8.89589 26.5489 8.87519 26.6084 8.83702 26.6564C8.79886 26.7044 8.7455 26.7379 8.68572 26.7515L8.47772 26.7985C8.44467 26.806 8.41026 26.805 8.37772 26.7955C8.34537 26.7868 8.31578 26.7699 8.29172 26.7465L8.76872 27.2045C8.79312 27.2281 8.82299 27.2451 8.85564 27.2542C8.88829 27.2633 8.92268 27.2641 8.95572 27.2565L9.34672 27.1685C9.37976 27.161 9.41419 27.162 9.44672 27.1715C9.47914 27.1807 9.50872 27.1979 9.53272 27.2215L9.86072 27.5355C9.83642 27.5122 9.80672 27.4952 9.77426 27.4861C9.74181 27.4771 9.7076 27.4762 9.67472 27.4835L9.28472 27.5705C9.25168 27.5781 9.21725 27.5771 9.18472 27.5675C9.15203 27.5589 9.12208 27.542 9.09772 27.5185L9.53572 27.9385C9.55996 27.962 9.58967 27.979 9.62214 27.9881C9.65461 27.9972 9.68884 27.998 9.72172 27.9905L10.1137 27.9035C10.1468 27.8961 10.1812 27.8971 10.2137 27.9065C10.2464 27.9157 10.2764 27.9329 10.3007 27.9565L10.6277 28.2705C10.6033 28.2471 10.5734 28.2301 10.5408 28.221C10.5081 28.2119 10.4738 28.2111 10.4407 28.2185L10.0507 28.3055C10.0177 28.313 9.98326 28.312 9.95072 28.3025C9.91808 28.2938 9.88816 28.2769 9.86372 28.2535L10.3017 28.6725C10.3277 28.6975 10.3577 28.7125 10.3887 28.7225C10.4213 28.7317 10.4558 28.7324 10.4887 28.7245L10.9617 28.6205C10.5017 28.8825 10.0137 29.1785 9.49472 29.5105C9.18872 29.7055 8.85372 29.7415 8.46872 29.5925C8.28641 29.5223 8.0894 29.4989 7.89572 29.5245C7.80608 29.5401 7.72094 29.5751 7.6463 29.6271C7.57166 29.6791 7.50933 29.7468 7.46372 29.8255C7.57691 29.7796 7.70119 29.7683 7.82083 29.793C7.94046 29.8178 8.05005 29.8775 8.13572 29.9645C7.93763 29.8851 7.71682 29.8837 7.51772 29.9605C7.13072 30.1025 6.90572 30.4705 6.99372 30.8005C6.9331 30.8241 6.87937 30.8624 6.83746 30.9122C6.79555 30.9619 6.7668 31.0213 6.75386 31.085C6.74092 31.1487 6.74419 31.2147 6.76339 31.2768C6.78259 31.3389 6.81709 31.3952 6.86372 31.4405C6.88205 31.3551 6.92824 31.2782 6.99503 31.2219C7.06183 31.1656 7.14544 31.1331 7.23272 31.1295C7.30872 31.1795 7.39672 31.2155 7.49072 31.2345C7.51922 31.1849 7.55532 31.14 7.59772 31.1015C7.58243 31.003 7.59029 30.9023 7.6207 30.8073C7.6511 30.7124 7.70321 30.6258 7.77288 30.5545C7.84256 30.4831 7.92789 30.429 8.02211 30.3964C8.11633 30.3638 8.21686 30.3536 8.31572 30.3665C8.15676 30.4059 8.01875 30.5043 7.92977 30.6418C7.84079 30.7792 7.80752 30.9454 7.83672 31.1065C7.77631 31.1297 7.72233 31.167 7.6793 31.2153C7.63627 31.2636 7.60543 31.3215 7.58937 31.3842C7.57331 31.4468 7.5725 31.5124 7.587 31.5755C7.6015 31.6385 7.63089 31.6972 7.67272 31.7465C7.72693 31.6391 7.80743 31.5471 7.90674 31.4791C8.00604 31.4111 8.12093 31.3693 8.24072 31.3575C8.3968 31.4038 8.56157 31.4127 8.72172 31.3835C8.66526 31.2996 8.6353 31.2007 8.63572 31.0995C8.63548 31.0281 8.65058 30.9575 8.67998 30.8924C8.70939 30.8273 8.75242 30.7693 8.80617 30.7223C8.85992 30.6753 8.92314 30.6404 8.99155 30.6199C9.05996 30.5994 9.13197 30.5938 9.20272 30.6035C8.93972 30.7165 8.77972 30.9465 8.83472 31.1555C8.87472 31.3045 9.01272 31.4065 9.19172 31.4415C9.18933 31.549 9.16011 31.6542 9.10672 31.7475C9.21779 31.7391 9.32474 31.7018 9.417 31.6394C9.50925 31.577 9.58361 31.4915 9.63272 31.3915C9.90372 31.2815 10.0707 31.0475 10.0157 30.8335C9.99459 30.7576 9.94843 30.691 9.88472 30.6445C9.88154 30.6081 9.88594 30.5714 9.89764 30.5368C9.90934 30.5021 9.92809 30.4703 9.9527 30.4432C9.97731 30.4162 10.0072 30.3945 10.0406 30.3796C10.074 30.3647 10.1101 30.3568 10.1467 30.3565C10.2927 30.3565 10.4107 30.4765 10.4107 30.6225C10.4107 30.6925 10.3837 30.7555 10.3407 30.8025H10.8927C10.9262 30.8026 10.9592 30.7944 10.9887 30.7785C11.0188 30.7625 11.0442 30.7391 11.0627 30.7105L11.4167 30.1805C11.4296 30.1614 11.447 30.1457 11.4674 30.1348C11.4878 30.124 11.5106 30.1184 11.5337 30.1185H11.9667C11.9438 30.1189 11.9214 30.1247 11.9012 30.1355C11.8811 30.1463 11.8637 30.1617 11.8507 30.1805L11.4947 30.7105C11.4761 30.7391 11.4507 30.7624 11.4207 30.7785C11.3912 30.7945 11.3582 30.8027 11.3247 30.8025H11.9837C12.0172 30.8027 12.0502 30.7945 12.0797 30.7785C12.1102 30.7628 12.1361 30.7394 12.1547 30.7105L12.5517 30.1195C12.2777 29.9675 12.1647 29.7025 12.1647 29.3395C12.1647 29.1125 12.2917 28.8535 12.3107 28.6875L12.3177 28.6215C12.3221 28.5877 12.3179 28.5534 12.3057 28.5215C12.2936 28.4905 12.2767 28.4615 12.2557 28.4355L12.5957 28.7865C12.6214 28.8085 12.6411 28.8368 12.6527 28.8685C12.6647 28.8995 12.6697 28.9335 12.6657 28.9685L12.6557 29.0485C12.6397 29.1885 12.4657 29.4885 12.7877 29.7645C12.8177 29.7884 12.8491 29.8104 12.8817 29.8305L13.1117 29.9765V29.1225H13.4317V30.0725C13.4323 30.1065 13.4413 30.1398 13.4579 30.1695C13.4744 30.1991 13.4981 30.2242 13.5267 30.2425L13.8407 30.4425C13.8692 30.4605 13.9017 30.4713 13.9353 30.4741C13.9689 30.4769 14.0026 30.4716 14.0337 30.4585L14.6117 30.2055C14.5807 30.2194 14.5465 30.2249 14.5127 30.2215C14.4793 30.2191 14.447 30.2084 14.4187 30.1905L13.7547 29.7645C14.0777 29.4885 13.9037 29.1885 13.8867 29.0495L13.8767 28.9695C13.8725 28.9356 13.8766 28.9012 13.8888 28.8693C13.901 28.8374 13.9209 28.809 13.9467 28.7865L14.2867 28.4365C14.2658 28.4622 14.2489 28.4908 14.2367 28.5215C14.2245 28.5534 14.2204 28.5877 14.2247 28.6215L14.2327 28.6875C14.2597 28.9245 14.4977 29.3545 14.2997 29.5955L14.9057 29.9835C14.9341 30.0019 14.9666 30.0129 15.0003 30.0155C15.034 30.0182 15.0678 30.0123 15.0987 29.9985L15.7027 29.7335C15.6718 29.7466 15.6382 29.752 15.6047 29.7492C15.5713 29.7465 15.539 29.7356 15.5107 29.7175L14.8547 29.2975C14.9977 29.0015 14.8777 28.5315 14.7387 28.2605L14.7187 28.2205C14.7033 28.1899 14.6957 28.1559 14.6967 28.1215C14.6967 28.0885 14.7047 28.0555 14.7217 28.0245L14.9467 27.6145C14.9303 27.6442 14.9216 27.6776 14.9217 27.7115C14.9208 27.7455 14.9284 27.7792 14.9437 27.8095L15.0257 27.9725C15.0697 28.0525 15.0937 28.1005 15.1317 28.1945C15.5017 27.8595 15.5827 27.5345 15.3477 27.2595L15.2777 27.1755C15.2555 27.1498 15.24 27.1191 15.2325 27.0859C15.225 27.0528 15.2257 27.0183 15.2347 26.9855L15.3547 26.5335C15.3464 26.5663 15.346 26.6005 15.3537 26.6334C15.3614 26.6663 15.3768 26.6969 15.3987 26.7225L15.6287 26.9945C16.0787 27.5065 15.8067 28.1655 15.2717 28.6695C15.3017 28.7655 15.3267 28.9465 15.3047 29.0445L16.0157 29.4995C16.0457 29.5195 16.0787 29.5295 16.1117 29.5315C16.1452 29.5345 16.1789 29.529 16.2097 29.5155L16.7237 29.2895C16.6871 29.3053 16.6471 29.3118 16.6074 29.3082C16.5676 29.3046 16.5294 29.2912 16.4961 29.2692C16.4629 29.2472 16.4356 29.2172 16.4169 29.182C16.3981 29.1468 16.3885 29.1074 16.3887 29.0675C16.3884 29.0164 16.4045 28.9665 16.4345 28.9252C16.4645 28.8838 16.507 28.8531 16.5557 28.8375C18.5187 28.2335 20.3257 26.6775 21.5127 26.6815C22.0887 26.6845 22.5567 27.0365 22.5567 27.4725C22.5567 27.5425 22.5447 27.6125 22.5217 27.6765C22.2687 28.3945 22.6377 29.0795 23.6097 29.3435C23.7034 29.3693 23.783 29.4311 23.8312 29.5154C23.8794 29.5998 23.8922 29.6998 23.8667 29.7935C24.0052 29.8053 24.1442 29.7803 24.27 29.7212C24.3957 29.662 24.5035 29.5707 24.5827 29.4565C24.7497 29.4555 24.9327 29.4445 25.1187 29.4255C25.1417 29.4705 25.1587 29.5235 25.1697 29.5795C25.2097 29.7865 25.1397 29.9725 25.0137 30.0135C24.7897 30.0865 24.5167 29.9985 24.3047 30.0005C24.2012 30.0022 24.0992 30.0257 24.0054 30.0696C23.9117 30.1134 23.8282 30.1766 23.7606 30.255C23.693 30.3334 23.6427 30.4252 23.6131 30.5244C23.5835 30.6236 23.5752 30.7279 23.5887 30.8305C23.4909 30.8916 23.4204 30.9882 23.3921 31.1C23.3637 31.2118 23.3797 31.3302 23.4367 31.4305C23.5597 31.2855 23.7197 31.1735 23.9027 31.1085C23.9067 31.0107 23.9323 30.9149 23.9776 30.8281C24.023 30.7413 24.0871 30.6656 24.1652 30.6065C24.2433 30.5474 24.3336 30.5064 24.4295 30.4863C24.5253 30.4663 24.6245 30.4677 24.7197 30.4905C24.5285 30.5158 24.3549 30.6152 24.2363 30.7672C24.1177 30.9193 24.0636 31.1119 24.0857 31.3035C24.0336 31.3679 24.0085 31.45 24.0158 31.5324C24.0231 31.6149 24.0621 31.6913 24.1247 31.7455C24.1927 31.5945 24.3567 31.4535 24.5677 31.3815C24.6958 31.3353 24.8337 31.3235 24.9677 31.3475C24.9367 31.254 24.9303 31.154 24.9489 31.0572C24.9675 30.9605 25.0106 30.87 25.0741 30.7946C25.1375 30.7192 25.2193 30.6613 25.3115 30.6265C25.4037 30.5916 25.5032 30.581 25.6007 30.5955C25.5107 30.6093 25.4268 30.6495 25.3596 30.711C25.2925 30.7725 25.2451 30.8525 25.2234 30.941C25.2018 31.0294 25.2069 31.1223 25.2381 31.2079C25.2693 31.2934 25.3252 31.3678 25.3987 31.4215L25.3967 31.4455C25.3967 31.5725 25.4537 31.6835 25.5437 31.7575C25.5629 31.654 25.6176 31.5604 25.6986 31.493C25.7795 31.4256 25.8814 31.3887 25.9867 31.3885C26.1747 31.3885 26.3297 31.3645 26.4467 31.3265C26.53 31.299 26.6044 31.2498 26.6623 31.1839C26.7201 31.1181 26.7594 31.0379 26.776 30.9518C26.7926 30.8657 26.786 30.7768 26.7567 30.6941C26.7275 30.6114 26.6768 30.5381 26.6097 30.4815C26.6627 30.2355 26.6527 29.8315 26.5697 29.4945C26.6431 29.4846 26.7179 29.4958 26.7852 29.5268C26.8525 29.5578 26.9095 29.6073 26.9497 29.6695L26.9507 29.6705ZM11.5167 27.9725L11.5987 27.8095C11.6143 27.7795 11.6221 27.746 11.6216 27.7122C11.6211 27.6783 11.6122 27.6451 11.5957 27.6155L11.8207 28.0255C11.8371 28.0553 11.846 28.0886 11.8467 28.1226C11.8474 28.1565 11.8399 28.1901 11.8247 28.2205L11.8047 28.2605C11.6657 28.5315 11.5367 29.0405 11.6797 29.3355C11.5441 29.2905 11.4288 29.1989 11.3541 29.077C11.2795 28.9552 11.2503 28.8108 11.2717 28.6695C10.6417 28.0665 10.4837 27.4555 10.9327 26.9445L11.1627 26.6715C11.1852 26.6463 11.2007 26.6156 11.2077 26.5825C11.2162 26.5498 11.2162 26.5153 11.2077 26.4825L11.3277 26.9355C11.3357 26.9695 11.3377 27.0035 11.3287 27.0355C11.3216 27.0687 11.3065 27.0996 11.2847 27.1255L11.2147 27.2085C10.9787 27.4845 11.0417 27.8585 11.4107 28.1945C11.4487 28.1005 11.4737 28.0525 11.5167 27.9725ZM12.3547 24.7025H12.2067C12.0467 24.7025 11.9037 24.4855 11.9037 24.2905C11.9917 24.3895 12.0847 24.4315 12.2107 24.4315H12.8907C12.9507 24.4315 13.0117 24.4795 13.0377 24.5585C13.0518 24.6343 13.0512 24.7121 13.0357 24.7875C13.0027 24.7255 12.9617 24.7025 12.9087 24.7025H12.7547C12.7929 24.7498 12.8134 24.8088 12.8127 24.8695C12.813 24.9383 12.786 25.0044 12.7376 25.0533C12.6893 25.1023 12.6235 25.13 12.5547 25.1305C12.505 25.1308 12.4562 25.1169 12.4142 25.0903C12.3722 25.0637 12.3386 25.0257 12.3176 24.9806C12.2965 24.9356 12.2889 24.8854 12.2954 24.8361C12.302 24.7869 12.3226 24.7405 12.3547 24.7025ZM12.5257 23.4645L12.8077 23.8265C12.8707 23.9035 12.8907 23.9545 12.9647 23.9655H12.7277C12.6759 23.9663 12.6245 23.955 12.5778 23.9324C12.5311 23.9098 12.4903 23.8767 12.4587 23.8355L12.1887 23.4795C12.1538 23.4274 12.1059 23.3854 12.0497 23.3575H12.3177C12.3977 23.3575 12.4697 23.3915 12.5257 23.4645ZM13.3107 23.3755L13.6567 23.8675C13.7117 23.9475 13.7637 23.9925 13.8377 24.0235H13.5207C13.4697 24.0253 13.4191 24.0125 13.3751 23.9866C13.331 23.9608 13.2952 23.923 13.2717 23.8775L13.0007 23.4565C12.8967 23.2985 12.8547 23.2595 12.7357 23.2165H13.0297C13.1457 23.2165 13.2547 23.2925 13.3117 23.3765L13.3107 23.3755ZM14.5487 23.9655H14.3117C14.2599 23.9663 14.2085 23.955 14.1618 23.9324C14.1151 23.9098 14.0743 23.8767 14.0427 23.8355L13.7727 23.4795C13.7379 23.4274 13.6899 23.3853 13.6337 23.3575H13.9017C13.9817 23.3575 14.0537 23.3915 14.1097 23.4645L14.3917 23.8265C14.4547 23.9035 14.4747 23.9545 14.5487 23.9655ZM14.6387 24.2905C14.6387 24.4855 14.4967 24.7025 14.3357 24.7025H14.1877C14.219 24.7407 14.2388 24.7869 14.245 24.8358C14.2511 24.8847 14.2434 24.9343 14.2226 24.979C14.2018 25.0237 14.1689 25.0617 14.1275 25.0885C14.0861 25.1153 14.038 25.1299 13.9887 25.1305C13.939 25.1308 13.8902 25.1169 13.8482 25.0903C13.8062 25.0637 13.7726 25.0257 13.7516 24.9806C13.7305 24.9356 13.7229 24.8854 13.7294 24.8361C13.736 24.7869 13.7566 24.7405 13.7887 24.7025H13.6337C13.5817 24.7025 13.5407 24.7255 13.5077 24.7875C13.4918 24.7118 13.4908 24.6337 13.5047 24.5575C13.5317 24.4795 13.5917 24.4315 13.6527 24.4315H14.3327C14.3912 24.4333 14.4492 24.4215 14.5023 24.397C14.5554 24.3726 14.6021 24.3361 14.6387 24.2905ZM14.4297 25.7745C14.3827 25.7875 14.3577 25.8145 14.3517 25.8645C14.3237 26.1325 14.2157 26.2405 14.0437 26.3015C14.0424 26.5483 14.005 26.7936 13.9327 27.0295C14.1367 27.4595 13.9797 27.7615 13.8147 27.8255C13.6567 27.8875 13.4537 27.8045 13.2727 27.8045C13.0927 27.8045 12.8867 27.8875 12.7287 27.8245C12.5627 27.7615 12.4067 27.4605 12.6107 27.0295C12.538 26.7937 12.5003 26.5484 12.4987 26.3015C12.3267 26.2415 12.2187 26.1325 12.1907 25.8645C12.1857 25.8145 12.1597 25.7875 12.1137 25.7745C11.4347 25.5865 11.3707 24.7355 11.7137 24.4945C11.6837 24.8755 11.6507 25.4135 12.4217 25.4845C12.4097 25.9315 12.6017 26.0515 12.7987 26.0515C12.9587 26.0515 13.0517 25.9995 13.0917 25.9785C13.2357 25.9015 13.1367 25.7835 13.0997 25.7485C13.0507 25.7042 13.0135 25.6484 12.9917 25.586C12.9699 25.5236 12.964 25.4568 12.9747 25.3915C12.9787 25.3675 12.9877 25.3555 13.0097 25.3555H13.5317C13.5547 25.3555 13.5637 25.3675 13.5687 25.3915C13.5791 25.4568 13.5732 25.5235 13.5513 25.5858C13.5295 25.6482 13.4925 25.7041 13.4437 25.7485C13.4067 25.7835 13.3077 25.9015 13.4507 25.9785C13.4907 25.9995 13.5837 26.0525 13.7447 26.0515C13.9417 26.0515 14.1337 25.9315 14.1207 25.4845C14.8927 25.4135 14.8597 24.8755 14.8287 24.4945C15.1727 24.7355 15.1077 25.5865 14.4297 25.7745ZM13.7467 27.4145C13.7667 27.1865 13.5107 27.1045 13.2717 27.1045C13.0317 27.1045 12.7757 27.1865 12.7957 27.4145C12.8197 27.6915 13.0777 27.5595 13.2717 27.5605C13.4647 27.5595 13.7217 27.6915 13.7467 27.4145ZM13.6667 26.8745C13.7047 26.6735 13.7197 26.4785 13.7127 26.2915L13.5347 26.5015C13.5109 26.441 13.4835 26.3819 13.4527 26.3245C13.4327 26.2905 13.4167 26.2675 13.3927 26.2625C13.3774 26.2716 13.3609 26.2783 13.3437 26.2825C13.3207 26.2885 13.2907 26.2865 13.2717 26.2865C13.2527 26.2865 13.2217 26.2885 13.1987 26.2835C13.1815 26.2792 13.165 26.2725 13.1497 26.2635C13.1257 26.2675 13.1097 26.2905 13.0897 26.3245C13.0589 26.3819 13.0316 26.441 13.0077 26.5015L12.8297 26.2915C12.8227 26.4785 12.8377 26.6735 12.8757 26.8735C13.0067 26.8455 13.1427 26.8335 13.2717 26.8335C13.3997 26.8335 13.5357 26.8455 13.6677 26.8735L13.6667 26.8745ZM16.9047 21.2685C16.9337 21.2685 16.9607 21.2705 16.9887 21.2735C16.8512 21.314 16.7248 21.3855 16.6194 21.4826C16.514 21.5797 16.4323 21.6998 16.3807 21.8335C16.3166 21.8551 16.2583 21.8911 16.2104 21.9389C16.1625 21.9867 16.1263 22.0449 16.1046 22.109C16.0829 22.1731 16.0763 22.2413 16.0854 22.3084C16.0944 22.3754 16.1188 22.4395 16.1567 22.4955C16.3067 22.3255 16.5047 22.1995 16.7287 22.1385C16.7599 21.979 16.8412 21.8336 16.9609 21.7235C17.0805 21.6134 17.2321 21.5444 17.3937 21.5265C17.294 21.5689 17.2038 21.6307 17.1284 21.7085C17.053 21.7862 16.9939 21.8782 16.9545 21.9791C16.9152 22.08 16.8965 22.1878 16.8994 22.2961C16.9024 22.4043 16.927 22.5109 16.9717 22.6095C16.9876 22.5521 17.0151 22.4985 17.0524 22.452C17.0898 22.4055 17.1363 22.3672 17.189 22.3394C17.2418 22.3116 17.2997 22.2948 17.3591 22.2902C17.4186 22.2856 17.4783 22.2932 17.5347 22.3125C17.6384 22.3496 17.7505 22.3566 17.858 22.3329C17.9656 22.3091 18.0643 22.2556 18.1428 22.1783C18.2212 22.1011 18.2764 22.0033 18.3019 21.8961C18.3273 21.789 18.3221 21.6768 18.2867 21.5725C18.343 21.589 18.3946 21.6185 18.4373 21.6587C18.48 21.699 18.5125 21.7488 18.5322 21.804C18.5519 21.8592 18.5582 21.9183 18.5507 21.9765C18.5431 22.0347 18.5219 22.0902 18.4887 22.1385C18.5887 22.1563 18.6912 22.1533 18.7899 22.1299C18.8887 22.1065 18.9816 22.0631 19.0629 22.0023C19.1442 21.9416 19.2123 21.8649 19.2628 21.7769C19.3133 21.6888 19.3453 21.5914 19.3567 21.4905C19.5467 21.3865 19.7137 21.2465 19.8577 21.0705L19.9587 21.5685C19.9655 21.6019 19.9641 21.6364 19.9547 21.6691C19.9453 21.7019 19.9282 21.7318 19.9047 21.7565L20.3227 21.3225C20.3467 21.2984 20.3639 21.2684 20.3727 21.2355C20.3824 21.2031 20.3838 21.1687 20.3767 21.1355L20.2537 20.5275C20.2467 20.4944 20.2481 20.46 20.2577 20.4275C20.2667 20.3945 20.2839 20.3642 20.3077 20.3395L20.6367 20.0005C20.6135 20.0253 20.5965 20.0554 20.5873 20.0881C20.5781 20.1208 20.5768 20.1553 20.5837 20.1885L20.7067 20.7975C20.7133 20.8305 20.7119 20.8646 20.7027 20.8969C20.6934 20.9293 20.6767 20.959 20.6537 20.9835L21.0267 20.5925C21.0503 20.5679 21.0675 20.538 21.0769 20.5052C21.0864 20.4725 21.0876 20.4379 21.0807 20.4045L20.9577 19.7975C20.9507 19.7644 20.9521 19.73 20.9617 19.6975C20.9709 19.6649 20.9881 19.635 21.0117 19.6105L21.3407 19.2715C21.3174 19.2961 21.3004 19.3259 21.291 19.3585C21.2816 19.391 21.2801 19.4253 21.2867 19.4585L21.4107 20.0685C21.4172 20.1014 21.4158 20.1353 21.4065 20.1674C21.3973 20.1996 21.3806 20.2291 21.3577 20.2535L21.7307 19.8635C21.7545 19.8389 21.7718 19.8086 21.7807 19.7755C21.7902 19.743 21.7916 19.7087 21.7847 19.6755L21.7247 19.3785C21.6617 19.0425 22.0047 18.6555 22.2777 18.6165C22.3104 18.5535 22.3275 18.4836 22.3277 18.4125C22.3277 18.0725 21.9257 17.7955 21.4297 17.7955C21.1877 17.7955 20.9677 17.8615 20.8057 17.9695C20.8707 18.1635 20.8847 18.3595 20.2477 18.4515C19.7437 18.5245 19.2997 18.6225 18.9627 18.9115C18.4427 19.3575 18.4847 19.9515 18.1887 20.1775C18.3207 20.2095 18.4877 20.2095 18.6667 20.1705C18.7741 20.1476 18.8783 20.1113 18.9767 20.0625C18.9217 20.1695 18.7947 20.2705 18.6277 20.3425C18.5727 20.5525 18.3877 20.7535 18.1377 20.8475C17.9964 20.9037 17.8408 20.9132 17.6937 20.8745L17.0857 20.6965C17.0093 20.6745 16.9302 20.6634 16.8507 20.6635C16.4027 20.6635 16.0327 21.0135 15.9777 21.4635C15.9063 21.4739 15.8385 21.5018 15.7804 21.5446C15.7223 21.5875 15.6757 21.644 15.6446 21.7091C15.6136 21.7743 15.5991 21.8461 15.6024 21.9182C15.6057 21.9903 15.6268 22.0605 15.6637 22.1225C15.8087 21.9725 15.9937 21.8615 16.2017 21.8045C16.2446 21.6509 16.3364 21.5154 16.4633 21.4186C16.5902 21.3219 16.7452 21.2692 16.9047 21.2685ZM16.9477 24.7345C16.9374 24.6806 16.9381 24.6252 16.9497 24.5715C16.9605 24.5192 16.9889 24.4722 17.0303 24.4383C17.0716 24.4045 17.1233 24.3858 17.1767 24.3855C17.2221 24.3864 17.2663 24.4003 17.3039 24.4256C17.3416 24.4509 17.3712 24.4865 17.3891 24.5282C17.4071 24.5699 17.4126 24.6159 17.4051 24.6606C17.3976 24.7054 17.3773 24.747 17.3467 24.7805C17.5036 24.7954 17.6618 24.7836 17.8147 24.7455C17.9094 24.7214 17.9914 24.6624 18.0444 24.5803C18.0973 24.4981 18.1173 24.399 18.1002 24.3028C18.0831 24.2067 18.0303 24.1205 17.9523 24.0616C17.8743 24.0028 17.7769 23.9756 17.6797 23.9855C17.7509 23.956 17.8284 23.9453 17.9049 23.9545C17.9814 23.9637 18.0542 23.9925 18.1163 24.038C18.1784 24.0835 18.2277 24.1443 18.2595 24.2145C18.2913 24.2846 18.3045 24.3618 18.2977 24.4385C18.9627 24.4235 19.7107 23.8115 19.8747 23.5785C19.6549 23.6287 19.4302 23.6539 19.2047 23.6535C18.9377 23.6535 18.6827 23.6205 18.4517 23.5585C18.1601 23.4765 17.8595 23.4308 17.5567 23.4225C16.7417 23.4225 16.0817 23.9595 16.0817 24.6215C16.0817 25.1675 16.5287 25.6455 17.1487 25.7735C18.5597 26.0645 20.2187 25.2185 21.6217 24.9255C21.9717 24.5795 22.3777 24.2905 22.8227 24.0725C22.8094 24.0196 22.8027 23.9652 22.8027 23.9105V23.9065C20.9427 24.2165 19.2687 25.1795 17.7577 25.1715C17.3337 25.1695 17.0017 25.0055 16.9477 24.7345ZM26.9507 20.5605C26.9835 20.4827 26.9965 20.398 26.9887 20.3139C26.9808 20.2298 26.9523 20.1489 26.9057 20.0785C26.8591 20.0081 26.7959 19.9502 26.7216 19.9101C26.6472 19.87 26.5642 19.8488 26.4797 19.8485H25.9637C25.93 19.8487 25.8968 19.8405 25.867 19.8248C25.8372 19.8092 25.8117 19.7864 25.7927 19.7585L25.5337 19.3715C25.5537 19.4015 25.5787 19.4235 25.6087 19.4385C25.6384 19.4548 25.6719 19.4631 25.7057 19.4625H26.3847C26.4197 19.4625 26.4527 19.4725 26.4817 19.4875C26.5107 19.5025 26.5357 19.5255 26.5557 19.5545L26.2437 19.0935C26.2248 19.0652 26.199 19.0421 26.1687 19.0265C26.1393 19.0103 26.1063 19.0017 26.0727 19.0015L25.3987 19.0025C25.3651 19.0024 25.332 18.9942 25.3022 18.9785C25.2724 18.9628 25.2469 18.9402 25.2277 18.9125L24.9347 18.4765C24.9534 18.5047 24.9789 18.5278 25.0087 18.5436C25.0386 18.5595 25.0719 18.5677 25.1057 18.5675H25.7817C25.8154 18.5673 25.8487 18.5754 25.8785 18.5911C25.9083 18.6068 25.9338 18.6296 25.9527 18.6575L25.6417 18.1965C25.6225 18.169 25.5969 18.1464 25.5672 18.1307C25.5374 18.115 25.5043 18.1068 25.4707 18.1065H24.9327C24.899 18.1064 24.8658 18.098 24.836 18.0822C24.8062 18.0663 24.7807 18.0435 24.7617 18.0155L24.4007 17.4795C25.1307 17.3915 25.7197 16.9915 25.8367 16.4415C25.9887 15.7285 25.2867 15.0355 24.2687 14.8845C24.1843 14.8718 24.1072 14.8292 24.0516 14.7644C23.996 14.6996 23.9655 14.6169 23.9657 14.5315C23.9657 14.3785 24.0617 14.2475 24.1957 14.1975C24.0825 14.1483 23.9602 14.1231 23.8367 14.1235C23.3867 14.1235 23.0217 14.4485 23.0217 14.8505C23.0217 14.9216 23.0332 14.9922 23.0557 15.0595C22.5517 15.2795 22.0927 15.6695 21.7407 16.0895C22.1167 15.9895 22.5117 15.9355 22.9197 15.9355C22.9112 15.8581 22.919 15.7798 22.9427 15.7056C22.9664 15.6314 23.0055 15.563 23.0574 15.5049C23.1092 15.4468 23.1728 15.4003 23.2438 15.3683C23.3149 15.3364 23.3918 15.3198 23.4697 15.3195H23.4767C23.3909 15.3559 23.3167 15.4149 23.2621 15.4904C23.2075 15.5658 23.1745 15.6547 23.1667 15.7475C23.1657 15.8003 23.1793 15.8523 23.2062 15.8977C23.2331 15.9431 23.272 15.9802 23.3188 16.0047C23.3655 16.0292 23.4181 16.0402 23.4707 16.0364C23.5234 16.0327 23.5739 16.0144 23.6167 15.9835C23.597 15.9196 23.5937 15.8516 23.6073 15.7861C23.6209 15.7205 23.6508 15.6594 23.6943 15.6085C23.7378 15.5576 23.7935 15.5185 23.8562 15.495C23.9188 15.4714 23.9864 15.464 24.0527 15.4735C23.9544 15.5192 23.876 15.5989 23.8321 15.698C23.7882 15.7971 23.7818 15.9087 23.8141 16.0122C23.8464 16.1156 23.9152 16.2038 24.0076 16.2604C24.1001 16.3169 24.2099 16.3379 24.3167 16.3195C24.304 16.2724 24.3023 16.223 24.3117 16.1751C24.3211 16.1273 24.3413 16.0822 24.3709 16.0433C24.4005 16.0045 24.4385 15.973 24.4822 15.9512C24.5258 15.9294 24.5739 15.9179 24.6227 15.9175C24.7987 15.9175 24.9407 16.0605 24.9407 16.2375C24.9407 16.6225 24.5167 16.6575 24.2077 16.5675C23.3287 16.3125 22.5047 16.1975 21.7077 16.3105C20.6857 16.4555 19.0117 17.1525 17.2347 17.0945C16.8053 17.078 16.3794 17.0108 15.9657 16.8945C16.0197 16.9545 16.0547 16.9945 16.0767 17.0295C16.2497 17.3015 16.3097 17.5875 16.1567 17.9445C16.1607 17.5445 15.8337 17.2145 15.5597 17.0125C15.4487 16.9325 15.4037 16.8545 15.4227 16.7505L15.5027 16.2895C15.4969 16.3229 15.4993 16.3572 15.5098 16.3895C15.5202 16.4217 15.5384 16.4509 15.5627 16.4745L15.7327 16.6425C15.7999 16.1833 15.6874 15.7159 15.4187 15.3375C15.5407 15.0155 15.5567 14.6605 15.4757 14.3275C15.4694 14.4164 15.4413 14.5023 15.3941 14.5778C15.3468 14.6532 15.2818 14.716 15.2047 14.7605C14.9877 14.8975 14.9527 15.1275 15.0647 15.2825C14.8817 15.1885 14.6297 14.8465 14.7747 14.6465C14.9327 14.4305 15.3627 14.5325 15.4157 14.1625C15.2019 14.1027 14.9759 14.102 14.7617 14.1605C14.6808 14.0662 14.5796 13.9916 14.4656 13.9422C14.3516 13.8928 14.2278 13.87 14.1037 13.8755C13.8877 13.6775 13.6107 13.5955 13.2717 13.6295C12.9327 13.5955 12.6557 13.6775 12.4397 13.8755C12.3156 13.87 12.1919 13.8928 12.0779 13.9422C11.9639 13.9916 11.8626 14.0662 11.7817 14.1605C11.5672 14.1019 11.3408 14.1026 11.1267 14.1625C11.1797 14.5325 11.6097 14.4305 11.7667 14.6465C11.9127 14.8465 11.6607 15.1885 11.4787 15.2825C11.5907 15.1275 11.5547 14.8975 11.3387 14.7605C11.2617 14.7159 11.1967 14.6532 11.1495 14.5777C11.1022 14.5022 11.0742 14.4163 11.0677 14.3275C10.9857 14.6605 11.0027 15.0155 11.1247 15.3375C10.8487 15.7405 10.7447 16.1765 10.8087 16.6425L10.9807 16.4745C11.0047 16.4507 11.0226 16.4215 11.0329 16.3893C11.0432 16.3571 11.0455 16.3229 11.0397 16.2895L11.1197 16.7495C11.1387 16.8545 11.0947 16.9315 10.9837 17.0125C10.7087 17.2145 10.3817 17.5435 10.3857 17.9445C10.3167 17.7986 10.2878 17.637 10.3018 17.4762C10.3159 17.3154 10.3724 17.1613 10.4657 17.0295C9.94572 16.7455 9.54772 16.2795 9.47572 16.1935C9.31672 16.0085 9.33772 15.7725 9.48072 15.5655C9.75672 15.1685 9.82172 14.7435 9.47572 14.4535C9.49232 14.3183 9.4574 14.1818 9.37791 14.0712C9.29841 13.9606 9.18017 13.8839 9.04672 13.8565C9.09836 13.9362 9.12415 14.0299 9.12057 14.1247C9.11699 14.2196 9.08421 14.311 9.02672 14.3865C9.08635 14.4649 9.11359 14.5632 9.10279 14.6611C9.092 14.759 9.044 14.849 8.96872 14.9125C8.97734 14.8711 8.9817 14.8289 8.98172 14.7865C8.98172 14.5155 8.81472 14.2885 8.58972 14.2265C8.57239 14.1292 8.52145 14.0411 8.44579 13.9775C8.37014 13.9139 8.27456 13.8789 8.17572 13.8785C8.05572 13.8785 7.94872 13.9285 7.87272 14.0085C8.03272 14.0215 8.16072 14.1485 8.17772 14.3085C8.09983 14.3686 8.03885 14.4479 8.00072 14.5385H8.01072C8.08446 14.5386 8.15726 14.5551 8.22392 14.5866C8.29057 14.6182 8.34942 14.6641 8.39625 14.721C8.44308 14.778 8.47673 14.8446 8.49479 14.9161C8.51285 14.9876 8.51488 15.0622 8.50072 15.1345C8.48154 15.0206 8.42737 14.9154 8.34572 14.8335C8.26904 14.761 8.17282 14.7124 8.0689 14.6937C7.96497 14.6751 7.85786 14.6872 7.76072 14.7285C7.71892 14.6755 7.66495 14.6333 7.60339 14.6056C7.54182 14.5779 7.47448 14.5654 7.40707 14.5692C7.33965 14.5731 7.27416 14.5931 7.21613 14.6276C7.1581 14.6621 7.10925 14.7101 7.07372 14.7675C7.14661 14.7707 7.21782 14.7905 7.28194 14.8253C7.34605 14.8601 7.40138 14.9091 7.44372 14.9685C7.22672 15.2485 7.22372 15.6355 7.44572 15.8535C7.59572 16.0015 7.81072 16.0355 8.01072 15.9655C8.03083 15.9589 8.05223 15.9571 8.07316 15.9604C8.09409 15.9636 8.11396 15.9717 8.13113 15.9841C8.1483 15.9965 8.1623 16.0128 8.17196 16.0317C8.18162 16.0505 8.18668 16.0714 8.18672 16.0925C8.18664 16.1178 8.17944 16.1425 8.16594 16.1638C8.15244 16.1851 8.1332 16.2022 8.11042 16.2131C8.08764 16.224 8.06225 16.2282 8.03718 16.2252C8.01212 16.2223 7.98838 16.2124 7.96872 16.1965C7.92339 16.1596 7.86803 16.137 7.80977 16.1318C7.75151 16.1265 7.69301 16.1388 7.6418 16.1671C7.5906 16.1954 7.54904 16.2384 7.52247 16.2905C7.4959 16.3426 7.48554 16.4015 7.49272 16.4595C7.4426 16.4755 7.38907 16.4774 7.33795 16.465C7.28683 16.4527 7.24006 16.4266 7.20272 16.3895C7.18842 16.4451 7.18638 16.5031 7.19675 16.5595C7.20711 16.6159 7.22964 16.6693 7.26275 16.7162C7.29587 16.763 7.33878 16.802 7.38851 16.8306C7.43824 16.8591 7.49359 16.8765 7.55072 16.8815C7.58485 16.9678 7.63813 17.0451 7.70654 17.1077C7.77495 17.1703 7.85669 17.2166 7.94559 17.243C8.03449 17.2694 8.12823 17.2752 8.21972 17.2601C8.31121 17.2449 8.39807 17.2092 8.47372 17.1555C8.51851 17.124 8.57191 17.1069 8.62672 17.1065C8.66218 17.1067 8.69726 17.1138 8.72997 17.1275C8.76268 17.1412 8.79237 17.1612 8.81735 17.1863C8.84232 17.2115 8.8621 17.2413 8.87555 17.2741C8.889 17.307 8.89585 17.3421 8.89572 17.3775C8.89589 17.4389 8.87519 17.4984 8.83702 17.5464C8.79886 17.5944 8.7455 17.6279 8.68572 17.6415L8.47772 17.6885C8.44467 17.6961 8.41025 17.695 8.37772 17.6855C8.34537 17.6768 8.31578 17.6599 8.29172 17.6365L8.76872 18.0945C8.79312 18.1181 8.82299 18.1351 8.85564 18.1442C8.88829 18.1533 8.92268 18.1541 8.95572 18.1465L9.34672 18.0585C9.37976 18.051 9.41419 18.052 9.44672 18.0615C9.47914 18.0707 9.50872 18.0879 9.53272 18.1115L9.86072 18.4255C9.83642 18.4022 9.80672 18.3852 9.77426 18.3761C9.74181 18.3671 9.7076 18.3662 9.67472 18.3735L9.28472 18.4605C9.25168 18.4681 9.21725 18.4671 9.18472 18.4575C9.15214 18.4491 9.12222 18.4326 9.09772 18.4095L9.53572 18.8285C9.55981 18.8522 9.5895 18.8694 9.62203 18.8785C9.65455 18.8876 9.68885 18.8883 9.72172 18.8805L10.1137 18.7935C10.1468 18.7864 10.1811 18.7873 10.2137 18.7964C10.2462 18.8055 10.2761 18.8223 10.3007 18.8455L10.6277 19.1605C10.603 19.1375 10.5731 19.1208 10.5406 19.1118C10.508 19.1027 10.4738 19.1016 10.4407 19.1085L10.0507 19.1955C10.0177 19.203 9.98326 19.202 9.95072 19.1925C9.91791 19.1836 9.88794 19.1664 9.86372 19.1425L10.3017 19.5625C10.3277 19.5865 10.3577 19.6025 10.3887 19.6125C10.4213 19.6217 10.4558 19.6224 10.4887 19.6145L10.9617 19.5105C10.5017 19.7725 10.0137 20.0685 9.49472 20.4005C9.18872 20.5955 8.85372 20.6315 8.46872 20.4825C8.28646 20.4121 8.0894 20.3887 7.89572 20.4145C7.8061 20.4301 7.72099 20.4652 7.64636 20.5172C7.57173 20.5692 7.50939 20.6369 7.46372 20.7155C7.57691 20.6696 7.70119 20.6583 7.82083 20.683C7.94046 20.7078 8.05005 20.7675 8.13572 20.8545C7.93763 20.7751 7.71682 20.7737 7.51772 20.8505C7.13072 20.9925 6.90572 21.3605 6.99372 21.6905C6.9331 21.7141 6.87937 21.7524 6.83746 21.8022C6.79555 21.8519 6.7668 21.9113 6.75386 21.975C6.74092 22.0387 6.74419 22.1047 6.76339 22.1668C6.78259 22.2289 6.81709 22.2852 6.86372 22.3305C6.88205 22.2451 6.92824 22.1682 6.99503 22.1119C7.06183 22.0556 7.14544 22.0231 7.23272 22.0195C7.30872 22.0695 7.39672 22.1055 7.49072 22.1245C7.51938 22.075 7.55547 22.0302 7.59772 21.9915C7.58243 21.893 7.59029 21.7923 7.6207 21.6973C7.6511 21.6024 7.70321 21.5158 7.77288 21.4445C7.84256 21.3731 7.92789 21.319 8.02211 21.2864C8.11633 21.2538 8.21686 21.2436 8.31572 21.2565C8.15676 21.2959 8.01875 21.3943 7.92977 21.5318C7.84079 21.6692 7.80752 21.8354 7.83672 21.9965C7.77631 22.0197 7.72233 22.057 7.6793 22.1053C7.63627 22.1536 7.60543 22.2115 7.58937 22.2742C7.57331 22.3368 7.5725 22.4024 7.587 22.4655C7.6015 22.5285 7.63089 22.5872 7.67272 22.6365C7.72693 22.5291 7.80743 22.4371 7.90674 22.3691C8.00604 22.3011 8.12093 22.2593 8.24072 22.2475C8.3968 22.2938 8.56157 22.3027 8.72172 22.2735C8.66777 22.1934 8.63804 22.0995 8.63606 22.0029C8.63409 21.9063 8.65995 21.8113 8.71057 21.729C8.76119 21.6467 8.83442 21.5808 8.92152 21.539C9.00861 21.4973 9.10589 21.4815 9.20172 21.4935C8.93972 21.6065 8.77972 21.8365 8.83472 22.0455C8.87472 22.1945 9.01272 22.2965 9.19172 22.3315C9.18937 22.439 9.16015 22.5442 9.10672 22.6375C9.21782 22.6292 9.32481 22.592 9.41708 22.5295C9.50935 22.4671 9.58369 22.3816 9.63272 22.2815C9.90372 22.1715 10.0707 21.9375 10.0157 21.7235C9.99459 21.6476 9.94843 21.581 9.88472 21.5345C9.88154 21.4981 9.88594 21.4614 9.89764 21.4268C9.90934 21.3921 9.92809 21.3603 9.9527 21.3332C9.97731 21.3062 10.0072 21.2845 10.0406 21.2696C10.074 21.2547 10.1101 21.2468 10.1467 21.2465C10.2927 21.2465 10.4107 21.3665 10.4107 21.5125C10.4107 21.5825 10.3837 21.6455 10.3407 21.6925H10.8927C10.9262 21.6926 10.9592 21.6844 10.9887 21.6685C11.0188 21.6525 11.0442 21.6291 11.0627 21.6005L11.4167 21.0705C11.4297 21.0514 11.4471 21.0358 11.4675 21.025C11.4879 21.0141 11.5106 21.0085 11.5337 21.0085H11.9667C11.9438 21.0089 11.9214 21.0147 11.9012 21.0255C11.8811 21.0363 11.8637 21.0517 11.8507 21.0705L11.4947 21.6005C11.4762 21.6291 11.4508 21.6525 11.4207 21.6685C11.3912 21.6845 11.3582 21.6927 11.3247 21.6925H11.9837C12.0172 21.6927 12.0502 21.6845 12.0797 21.6685C12.1102 21.6528 12.1361 21.6294 12.1547 21.6005L12.5517 21.0095C12.2777 20.8575 12.1647 20.5925 12.1647 20.2295C12.1647 20.0025 12.2917 19.7435 12.3107 19.5775L12.3177 19.5115C12.322 19.4777 12.3179 19.4434 12.3057 19.4115C12.2935 19.3805 12.2767 19.3515 12.2557 19.3255L12.5957 19.6765C12.6214 19.6986 12.641 19.7268 12.6527 19.7585C12.6655 19.7902 12.67 19.8246 12.6657 19.8585L12.6557 19.9385C12.6397 20.0785 12.4657 20.3785 12.7877 20.6535C12.8177 20.6778 12.8491 20.7001 12.8817 20.7205L13.1117 20.8655V20.0125H13.4317V20.9625C13.4323 20.9965 13.4413 21.0298 13.4579 21.0595C13.4744 21.0891 13.4981 21.1142 13.5267 21.1325L13.8407 21.3325C13.8689 21.3513 13.9013 21.3627 13.935 21.3657C13.9688 21.3687 14.0027 21.3631 14.0337 21.3495L14.6117 21.0955C14.5807 21.1094 14.5465 21.1149 14.5127 21.1115C14.4793 21.1091 14.447 21.0985 14.4187 21.0805L13.7547 20.6535C14.0777 20.3785 13.9037 20.0785 13.8867 19.9395L13.8767 19.8595C13.8724 19.8256 13.8765 19.7912 13.8887 19.7592C13.9009 19.7273 13.9208 19.6989 13.9467 19.6765L14.2867 19.3265C14.2658 19.3522 14.249 19.3808 14.2367 19.4115C14.2246 19.4434 14.2205 19.4777 14.2247 19.5115L14.2327 19.5775C14.2597 19.8145 14.4977 20.2445 14.2997 20.4845L14.9057 20.8735C14.9344 20.8915 14.9671 20.9023 15.0009 20.9049C15.0347 20.9075 15.0686 20.9019 15.0997 20.8885L15.7037 20.6235C15.6727 20.6368 15.6389 20.6423 15.6052 20.6395C15.5716 20.6367 15.5391 20.6257 15.5107 20.6075L14.8547 20.1875C14.9977 19.8915 14.8777 19.4215 14.7387 19.1505L14.7187 19.1105C14.7033 19.0799 14.6957 19.0459 14.6967 19.0115C14.6967 18.9795 14.7047 18.9455 14.7217 18.9145L14.9467 18.5045C14.9303 18.5342 14.9217 18.5676 14.9217 18.6015C14.9208 18.6355 14.9284 18.6692 14.9437 18.6995L15.0257 18.8625C15.0697 18.9425 15.0937 18.9905 15.1317 19.0845C15.5017 18.7495 15.5827 18.4245 15.3477 18.1495L15.2777 18.0665C15.2556 18.0408 15.2401 18.01 15.2326 17.9769C15.2251 17.9438 15.2258 17.9093 15.2347 17.8765L15.3547 17.4235C15.3461 17.4564 15.3457 17.4909 15.3533 17.524C15.361 17.5571 15.3766 17.5878 15.3987 17.6135L15.6287 17.8845C16.0787 18.3965 15.8067 19.0555 15.2717 19.5585C15.3017 19.6555 15.3267 19.8365 15.3047 19.9345L16.0157 20.3895C16.0442 20.4082 16.0768 20.4194 16.1107 20.4222C16.1446 20.425 16.1786 20.4193 16.2097 20.4055L16.7237 20.1795C16.6871 20.1953 16.6471 20.2017 16.6074 20.1982C16.5676 20.1946 16.5294 20.1812 16.4961 20.1592C16.4629 20.1372 16.4356 20.1072 16.4169 20.072C16.3981 20.0368 16.3885 19.9974 16.3887 19.9575C16.3884 19.9064 16.4045 19.8565 16.4345 19.8152C16.4645 19.7738 16.507 19.7431 16.5557 19.7275C18.5187 19.1245 20.3257 17.5675 21.5127 17.5725C22.0887 17.5745 22.5567 17.9265 22.5567 18.3625C22.5567 18.4325 22.5447 18.5015 22.5217 18.5665C22.2687 19.2845 22.6377 19.9695 23.6097 20.2335C23.7034 20.2593 23.783 20.3211 23.8312 20.4054C23.8794 20.4898 23.8922 20.5898 23.8667 20.6835C24.0052 20.6955 24.1443 20.6706 24.2701 20.6114C24.3958 20.5523 24.5037 20.4609 24.5827 20.3465C24.7497 20.3455 24.9327 20.3345 25.1187 20.3155C25.1417 20.3605 25.1587 20.4135 25.1697 20.4695C25.2097 20.6765 25.1397 20.8625 25.0137 20.9035C24.7897 20.9765 24.5167 20.8885 24.3047 20.8915C24.2012 20.893 24.0991 20.9165 24.0052 20.9603C23.9114 21.0041 23.8279 21.0673 23.7602 21.1457C23.6926 21.2241 23.6423 21.316 23.6128 21.4152C23.5832 21.5145 23.575 21.6189 23.5887 21.7215C23.4911 21.7826 23.4208 21.879 23.3925 21.9906C23.3642 22.1021 23.38 22.2203 23.4367 22.3205C23.5597 22.1755 23.7197 22.0635 23.9027 21.9985C23.9067 21.9007 23.9323 21.8049 23.9776 21.7181C24.023 21.6313 24.0871 21.5556 24.1652 21.4965C24.2433 21.4374 24.3336 21.3964 24.4295 21.3763C24.5253 21.3563 24.6245 21.3577 24.7197 21.3805C24.5285 21.4058 24.3549 21.5052 24.2363 21.6572C24.1177 21.8093 24.0636 22.002 24.0857 22.1935C24.0333 22.2576 24.0081 22.3398 24.0156 22.4222C24.023 22.5047 24.0626 22.5809 24.1257 22.6345C24.1927 22.4845 24.3557 22.3445 24.5677 22.2715C24.6958 22.2253 24.8337 22.2136 24.9677 22.2375C24.9367 22.144 24.9303 22.044 24.9489 21.9472C24.9675 21.8505 25.0106 21.76 25.0741 21.6846C25.1375 21.6092 25.2193 21.5513 25.3115 21.5165C25.4037 21.4816 25.5032 21.471 25.6007 21.4855C25.5107 21.4993 25.4268 21.5395 25.3596 21.601C25.2925 21.6625 25.2451 21.7425 25.2234 21.831C25.2018 21.9194 25.2069 22.0123 25.2381 22.0979C25.2693 22.1834 25.3252 22.2578 25.3987 22.3115L25.3967 22.3355C25.3967 22.4625 25.4537 22.5735 25.5437 22.6475C25.5629 22.544 25.6176 22.4504 25.6986 22.383C25.7795 22.3156 25.8814 22.2787 25.9867 22.2785C26.1747 22.2785 26.3297 22.2545 26.4467 22.2165C26.53 22.189 26.6044 22.1398 26.6623 22.0739C26.7201 22.0081 26.7594 21.9279 26.776 21.8418C26.7926 21.7558 26.786 21.6668 26.7567 21.5841C26.7275 21.5014 26.6768 21.4281 26.6097 21.3715C26.6627 21.1255 26.6527 20.7215 26.5697 20.3845C26.6431 20.3749 26.7178 20.3861 26.785 20.4171C26.8523 20.4481 26.9094 20.4975 26.9497 20.5595L26.9507 20.5605ZM11.5167 18.8625L11.5987 18.6995C11.6142 18.6695 11.622 18.636 11.6215 18.6022C11.621 18.5683 11.6121 18.5352 11.5957 18.5055L11.8207 18.9155C11.837 18.9453 11.8459 18.9786 11.8466 19.0126C11.8473 19.0465 11.8398 19.0801 11.8247 19.1105L11.8047 19.1505C11.6657 19.4215 11.5367 19.9305 11.6797 20.2255C11.544 20.1803 11.4287 20.0885 11.354 19.9665C11.2794 19.8445 11.2502 19.7 11.2717 19.5585C10.6417 18.9565 10.4837 18.3455 10.9327 17.8345L11.1627 17.5615C11.1852 17.5363 11.2007 17.5056 11.2077 17.4725C11.2162 17.4398 11.2162 17.4053 11.2077 17.3725L11.3277 17.8255C11.3357 17.8595 11.3377 17.8935 11.3287 17.9255C11.3216 17.9587 11.3065 17.9896 11.2847 18.0155L11.2147 18.0985C10.9787 18.3745 11.0417 18.7485 11.4107 19.0845C11.4487 18.9905 11.4737 18.9415 11.5167 18.8615V18.8625ZM12.3547 15.5925H12.2067C12.0467 15.5925 11.9037 15.3755 11.9037 15.1805C11.9917 15.2795 12.0847 15.3225 12.2107 15.3225H12.8907C12.9507 15.3225 13.0117 15.3695 13.0377 15.4485C13.0519 15.5243 13.0512 15.6021 13.0357 15.6775C13.0027 15.6145 12.9617 15.5925 12.9087 15.5925H12.7547C12.786 15.6307 12.8059 15.677 12.812 15.726C12.8181 15.775 12.8103 15.8247 12.7894 15.8695C12.7685 15.9142 12.7354 15.9521 12.6938 15.9789C12.6523 16.0056 12.6041 16.02 12.5547 16.0205C12.505 16.0208 12.4562 16.0069 12.4142 15.9803C12.3722 15.9537 12.3386 15.9157 12.3176 15.8706C12.2965 15.8256 12.2889 15.7754 12.2954 15.7261C12.302 15.6769 12.3226 15.6305 12.3547 15.5925ZM12.5257 14.3545L12.8077 14.7165C12.8707 14.7935 12.8907 14.8445 12.9647 14.8555H12.7277C12.6759 14.8563 12.6245 14.845 12.5778 14.8224C12.5311 14.7998 12.4903 14.7667 12.4587 14.7255L12.1887 14.3695C12.1538 14.3175 12.1059 14.2754 12.0497 14.2475H12.3177C12.3977 14.2475 12.4697 14.2825 12.5257 14.3545ZM13.3107 14.2655L13.6567 14.7575C13.7117 14.8375 13.7637 14.8825 13.8377 14.9135H13.5207C13.4697 14.9153 13.4191 14.9025 13.3751 14.8766C13.331 14.8508 13.2952 14.8129 13.2717 14.7675L13.0007 14.3475C12.8967 14.1895 12.8547 14.1505 12.7357 14.1075H13.0297C13.1457 14.1075 13.2547 14.1835 13.3117 14.2675L13.3107 14.2655ZM14.5487 14.8555H14.3117C14.2599 14.8563 14.2085 14.845 14.1618 14.8224C14.1151 14.7998 14.0743 14.7667 14.0427 14.7255L13.7727 14.3695C13.7379 14.3174 13.6899 14.2753 13.6337 14.2475H13.9017C13.9817 14.2475 14.0537 14.2825 14.1097 14.3545L14.3917 14.7165C14.4547 14.7935 14.4747 14.8445 14.5487 14.8555ZM14.6387 15.1805C14.6387 15.3755 14.4967 15.5925 14.3357 15.5925H14.1877C14.2198 15.6305 14.2404 15.6769 14.247 15.7261C14.2536 15.7754 14.2459 15.8256 14.2248 15.8706C14.2038 15.9157 14.1703 15.9537 14.1282 15.9803C14.0862 16.0069 14.0374 16.0208 13.9877 16.0205C13.9381 16.0207 13.8894 16.0066 13.8476 15.9799C13.8057 15.9533 13.7723 15.9152 13.7514 15.8702C13.7305 15.8252 13.7229 15.7751 13.7295 15.7259C13.7361 15.6767 13.7566 15.6304 13.7887 15.5925H13.6337C13.5817 15.5925 13.5407 15.6155 13.5077 15.6775C13.4919 15.6021 13.4909 15.5244 13.5047 15.4485C13.5317 15.3685 13.5917 15.3225 13.6527 15.3225H14.3327C14.3912 15.324 14.4493 15.312 14.5023 15.2874C14.5554 15.2627 14.6021 15.2262 14.6387 15.1805ZM14.4297 16.6645C14.3827 16.6775 14.3577 16.7045 14.3517 16.7545C14.3237 17.0225 14.2157 17.1305 14.0437 17.1915C14.0424 17.4383 14.005 17.6836 13.9327 17.9195C14.1367 18.3495 13.9797 18.6515 13.8147 18.7155C13.6567 18.7775 13.4537 18.6945 13.2727 18.6945C13.0927 18.6945 12.8867 18.7775 12.7287 18.7155C12.5627 18.6515 12.4067 18.3505 12.6107 17.9195C12.538 17.6837 12.5003 17.4384 12.4987 17.1915C12.3267 17.1315 12.2187 17.0225 12.1907 16.7545C12.1857 16.7045 12.1597 16.6775 12.1137 16.6645C11.4347 16.4765 11.3707 15.6255 11.7137 15.3845C11.6837 15.7655 11.6507 16.3035 12.4217 16.3745C12.4097 16.8215 12.6017 16.9415 12.7987 16.9415C12.9587 16.9415 13.0517 16.8895 13.0917 16.8685C13.2357 16.7915 13.1367 16.6735 13.0997 16.6385C13.0507 16.5942 13.0135 16.5384 12.9917 16.476C12.9699 16.4136 12.964 16.3468 12.9747 16.2815C12.9787 16.2585 12.9877 16.2455 13.0097 16.2455H13.5317C13.5547 16.2455 13.5637 16.2585 13.5687 16.2815C13.5791 16.3468 13.5732 16.4135 13.5513 16.4758C13.5295 16.5382 13.4925 16.5941 13.4437 16.6385C13.4067 16.6735 13.3077 16.7915 13.4507 16.8685C13.4907 16.8895 13.5837 16.9415 13.7447 16.9415C13.9417 16.9415 14.1337 16.8215 14.1207 16.3745C14.8927 16.3035 14.8597 15.7655 14.8287 15.3845C15.1727 15.6255 15.1077 16.4765 14.4297 16.6645ZM13.7467 18.3045C13.7667 18.0765 13.5107 17.9945 13.2717 17.9945C13.0317 17.9945 12.7757 18.0765 12.7957 18.3045C12.8197 18.5815 13.0777 18.4495 13.2717 18.4505C13.4647 18.4495 13.7217 18.5815 13.7467 18.3045ZM13.6667 17.7645C13.7047 17.5635 13.7197 17.3685 13.7127 17.1815L13.5347 17.3915C13.5109 17.331 13.4835 17.2719 13.4527 17.2145C13.4327 17.1805 13.4167 17.1575 13.3927 17.1525C13.3774 17.1616 13.3609 17.1683 13.3437 17.1725C13.3207 17.1785 13.2907 17.1765 13.2717 17.1765C13.2527 17.1765 13.2217 17.1785 13.1987 17.1735C13.1815 17.1692 13.165 17.1625 13.1497 17.1535C13.1257 17.1575 13.1097 17.1805 13.0897 17.2145C13.0589 17.2719 13.0316 17.331 13.0077 17.3915L12.8297 17.1815C12.8227 17.3685 12.8377 17.5635 12.8757 17.7635C13.0067 17.7345 13.1427 17.7235 13.2717 17.7235C13.3997 17.7235 13.5357 17.7345 13.6677 17.7635L13.6667 17.7645ZM21.6217 15.8145C21.9734 15.4675 22.379 15.1798 22.8227 14.9625C22.8094 14.9096 22.8027 14.8552 22.8027 14.8005V14.7965C20.9427 15.1065 19.2687 16.0695 17.7577 16.0615C17.3337 16.0595 17.0017 15.8955 16.9477 15.6245C16.9374 15.5706 16.9381 15.5152 16.9497 15.4615C16.9605 15.4092 16.9889 15.3622 17.0303 15.3283C17.0716 15.2945 17.1233 15.2758 17.1767 15.2755C17.2221 15.2764 17.2663 15.2903 17.3039 15.3156C17.3416 15.3409 17.3712 15.3765 17.3891 15.4182C17.4071 15.4599 17.4126 15.5059 17.4051 15.5506C17.3976 15.5954 17.3773 15.637 17.3467 15.6705C17.5036 15.6854 17.6618 15.6736 17.8147 15.6355C17.9094 15.6114 17.9914 15.5524 18.0444 15.4703C18.0973 15.3881 18.1173 15.289 18.1002 15.1928C18.0831 15.0967 18.0303 15.0105 17.9523 14.9516C17.8743 14.8928 17.7769 14.8656 17.6797 14.8755C17.7509 14.846 17.8284 14.8353 17.9049 14.8445C17.9814 14.8537 18.0542 14.8825 18.1163 14.928C18.1784 14.9735 18.2277 15.0343 18.2595 15.1045C18.2913 15.1746 18.3045 15.2518 18.2977 15.3285C18.9627 15.3135 19.7107 14.7015 19.8747 14.4685C19.6549 14.5187 19.4302 14.5439 19.2047 14.5435C18.9377 14.5435 18.6827 14.5105 18.4517 14.4485C18.1601 14.3665 17.8595 14.3208 17.5567 14.3125C16.7417 14.3125 16.0817 14.8495 16.0817 15.5115C16.0817 16.0575 16.5287 16.5355 17.1487 16.6635C18.5597 16.9545 20.2187 16.1085 21.6217 15.8155V15.8145ZM15.6037 40.1195C15.6037 40.1995 15.6257 40.2765 15.6637 40.3425C15.8087 40.1925 15.9937 40.0815 16.2017 40.0245C16.2484 39.857 16.3532 39.7115 16.4975 39.6142C16.6417 39.5169 16.8158 39.4741 16.9887 39.4935C16.8512 39.534 16.7248 39.6055 16.6194 39.7026C16.514 39.7997 16.4323 39.9198 16.3807 40.0535C16.3166 40.0751 16.2583 40.1111 16.2104 40.1589C16.1625 40.2067 16.1263 40.2649 16.1046 40.329C16.0829 40.3931 16.0763 40.4613 16.0854 40.5284C16.0944 40.5954 16.1188 40.6595 16.1567 40.7155C16.3067 40.5455 16.5047 40.4195 16.7287 40.3585C16.7599 40.199 16.8412 40.0536 16.9609 39.9435C17.0805 39.8334 17.2321 39.7644 17.3937 39.7465C17.294 39.7889 17.2038 39.8507 17.1284 39.9285C17.053 40.0062 16.9939 40.0982 16.9545 40.1991C16.9152 40.3 16.8965 40.4078 16.8994 40.5161C16.9024 40.6243 16.927 40.7309 16.9717 40.8295C16.9876 40.7721 17.0151 40.7185 17.0524 40.672C17.0898 40.6255 17.1363 40.5872 17.189 40.5594C17.2418 40.5316 17.2997 40.5148 17.3591 40.5102C17.4186 40.5056 17.4783 40.5132 17.5347 40.5325C17.6384 40.5696 17.7505 40.5766 17.858 40.5529C17.9656 40.5291 18.0643 40.4756 18.1428 40.3983C18.2212 40.3211 18.2764 40.2233 18.3019 40.1161C18.3273 40.009 18.3221 39.8968 18.2867 39.7925C18.3427 39.8092 18.394 39.8388 18.4364 39.879C18.4789 39.9192 18.5112 39.9688 18.5309 40.0239C18.5506 40.0789 18.557 40.1378 18.5497 40.1957C18.5423 40.2537 18.5215 40.3091 18.4887 40.3575C18.5886 40.3753 18.691 40.3724 18.7897 40.349C18.8884 40.3256 18.9813 40.2823 19.0626 40.2217C19.1439 40.1611 19.212 40.0845 19.2625 39.9966C19.3131 39.9086 19.3452 39.8113 19.3567 39.7105C19.5467 39.6065 19.7137 39.4665 19.8577 39.2905L19.9587 39.7885C19.9657 39.8217 19.9643 39.8561 19.9547 39.8885C19.9457 39.9216 19.9285 39.9519 19.9047 39.9765L20.3227 39.5425C20.3466 39.5183 20.3638 39.4884 20.3727 39.4555C20.3823 39.4231 20.3837 39.3887 20.3767 39.3555L20.2537 38.7475C20.2467 38.7144 20.2481 38.68 20.2577 38.6475C20.2667 38.6145 20.2839 38.5842 20.3077 38.5595L20.6367 38.2205C20.6135 38.2451 20.5965 38.275 20.5873 38.3075C20.5781 38.3401 20.5768 38.3744 20.5837 38.4075L20.7067 39.0175C20.7131 39.0505 20.7116 39.0846 20.7024 39.1169C20.6932 39.1492 20.6765 39.1789 20.6537 39.2035L21.0267 38.8125C21.0503 38.7879 21.0675 38.758 21.0769 38.7252C21.0864 38.6925 21.0876 38.6579 21.0807 38.6245L20.9577 38.0175C20.9507 37.9844 20.9521 37.95 20.9617 37.9175C20.9709 37.8849 20.9881 37.855 21.0117 37.8305L21.3407 37.4915C21.3174 37.5161 21.3004 37.5459 21.291 37.5785C21.2816 37.611 21.2801 37.6453 21.2867 37.6785L21.4107 38.2885C21.4171 38.3214 21.4156 38.3553 21.4064 38.3874C21.3972 38.4196 21.3805 38.4491 21.3577 38.4735L21.7307 38.0835C21.7544 38.0588 21.7716 38.0286 21.7807 37.9955C21.7902 37.963 21.7916 37.9287 21.7847 37.8955L21.7247 37.5985C21.6617 37.2625 22.0047 36.8765 22.2777 36.8365C22.3104 36.7735 22.3276 36.7036 22.3277 36.6325C22.3277 36.2925 21.9257 36.0155 21.4297 36.0155C21.1877 36.0155 20.9677 36.0815 20.8057 36.1895C20.8707 36.3835 20.8847 36.5795 20.2477 36.6715C19.7437 36.7435 19.2997 36.8425 18.9627 37.1315C18.4427 37.5775 18.4847 38.1715 18.1887 38.3975C18.3207 38.4295 18.4877 38.4295 18.6667 38.3905C18.7797 38.3665 18.8847 38.3285 18.9767 38.2815C18.9217 38.3895 18.7947 38.4915 18.6277 38.5625C18.5727 38.7725 18.3877 38.9735 18.1377 39.0675C17.9964 39.1239 17.8408 39.1333 17.6937 39.0945L17.0857 38.9165C17.0093 38.8945 16.9302 38.8834 16.8507 38.8835C16.4027 38.8835 16.0327 39.2335 15.9777 39.6835C15.8731 39.6987 15.7776 39.7513 15.7086 39.8314C15.6397 39.9115 15.6031 40.0139 15.6037 40.1195ZM131.19 30.9755L131.197 30.9535C131.207 30.5395 131.087 30.2175 130.836 29.9835C130.587 29.7515 130.238 29.6345 129.792 29.6345C129.358 29.6345 129.013 29.7455 128.758 29.9665C128.632 30.074 128.533 30.2083 128.467 30.3594C128.4 30.5105 128.369 30.6746 128.375 30.8395C128.375 31.2095 128.482 31.4895 128.695 31.6755C128.909 31.8615 129.249 32.0215 129.718 32.1525C130.024 32.2545 130.234 32.3605 130.349 32.4715C130.463 32.5815 130.521 32.7255 130.521 32.9045C130.524 32.9893 130.508 33.0737 130.475 33.1521C130.443 33.2304 130.394 33.3008 130.332 33.3585C130.206 33.4745 130.02 33.5335 129.773 33.5335C129.569 33.5416 129.369 33.4771 129.209 33.3515C129.063 33.2305 128.989 33.0325 128.989 32.7585H128.272L128.261 32.7815C128.248 33.2265 128.383 33.5595 128.664 33.7795C128.945 33.9995 129.315 34.1075 129.773 34.1075C130.23 34.1075 130.592 34.0005 130.863 33.7855C131.133 33.5705 131.268 33.2755 131.268 32.9015C131.268 32.5355 131.16 32.2575 130.946 32.0645C130.731 31.8725 130.399 31.7095 129.947 31.5775C129.612 31.4735 129.391 31.3695 129.283 31.2655C129.228 31.2081 129.185 31.1399 129.157 31.0653C129.129 30.9906 129.117 30.9111 129.122 30.8315C129.122 30.6515 129.177 30.5025 129.287 30.3855C129.396 30.2685 129.565 30.2095 129.792 30.2095C130.016 30.2095 130.185 30.2795 130.3 30.4195C130.415 30.5595 130.472 30.7455 130.472 30.9755H131.19ZM126.678 34.0455H127.451V33.9815C127.412 33.9051 127.39 33.8212 127.386 33.7355C127.375 33.6249 127.369 33.5138 127.369 33.4025V33.0025C127.376 32.773 127.323 32.5457 127.214 32.3435C127.1 32.1586 126.92 32.0244 126.711 31.9685C126.918 31.8715 127.076 31.7385 127.185 31.5685C127.293 31.3995 127.347 31.1985 127.347 30.9685C127.347 30.5675 127.223 30.2555 126.975 30.0305C126.728 29.8065 126.384 29.6945 125.945 29.6945H124.506V34.0445H125.254V32.2825H126.008C126.205 32.2825 126.357 32.3465 126.463 32.4725C126.569 32.5995 126.622 32.7785 126.622 33.0065V33.3985C126.622 33.5285 126.625 33.6555 126.631 33.7785C126.631 33.8693 126.647 33.9593 126.678 34.0445V34.0455ZM126.596 31.0015C126.596 31.2285 126.542 31.4015 126.436 31.5245C126.328 31.6465 126.165 31.7075 125.945 31.7075H125.254V30.2695H125.945C126.162 30.2695 126.325 30.3355 126.434 30.4675C126.541 30.5995 126.596 30.7775 126.596 31.0015ZM122.643 34.0445H123.39V29.6945H122.643V34.0445ZM121.115 34.0445H121.899L120.464 29.6945H119.691L118.249 34.0445H119.037L119.344 33.0625H120.805L121.115 34.0445ZM120.627 32.4875H119.521L120.061 30.7555H120.083L120.627 32.4875ZM116.114 30.2695H118.008V29.6945H115.367V34.0445H116.114V32.1665H117.738V31.5915H116.114V30.2695ZM112.571 30.2695H114.465V29.6945H111.824V34.0445H112.571V32.1665H114.194V31.5915H112.571V30.2695ZM110.204 34.0445H110.966L109.324 28.6075H108.599L106.942 34.0445H107.704L108.096 32.6705H109.812L110.204 34.0445ZM109.642 32.0695H108.27L108.947 29.6945H108.969L109.642 32.0695ZM103.624 34.0445H104.375V29.6945H103.624V32.6965L103.602 32.7045L101.949 29.6945H101.202V34.0445H101.949V31.0395L101.971 31.0325L103.624 34.0455V34.0445ZM102.481 25.8745H102.944L101.501 21.5245H101.072L99.6257 25.8745H100.088L100.45 24.7435H102.119L102.481 25.8745ZM101.993 24.3625H100.577L101.272 22.1925H101.294L101.993 24.3625ZM98.3007 25.8755H98.7407V21.5255H98.3007V25.8755ZM98.6087 29.6355C98.1357 29.6355 97.7477 29.8005 97.4437 30.1315C97.1407 30.4625 96.9887 30.8905 96.9887 31.4165V32.3235C96.9887 32.8535 97.1407 33.2835 97.4457 33.6135C97.7507 33.9435 98.1477 34.1085 98.6387 34.1085C99.0257 34.1085 99.3457 34.0425 99.5987 33.9105C99.8507 33.7785 100.039 33.6265 100.163 33.4545V31.8155H98.6607V32.3565H99.4157V33.2505C99.3384 33.339 99.241 33.4076 99.1317 33.4505C98.9747 33.5114 98.807 33.5396 98.6387 33.5335C98.5091 33.5373 98.3807 33.5083 98.2654 33.4492C98.15 33.3901 98.0514 33.3029 97.9787 33.1955C97.8167 32.9705 97.7367 32.6785 97.7367 32.3205V31.4105C97.7367 31.0635 97.8167 30.7755 97.9767 30.5495C98.0446 30.4439 98.1382 30.3573 98.2487 30.2978C98.3593 30.2383 98.4832 30.208 98.6087 30.2095C98.8607 30.2095 99.0507 30.2755 99.1787 30.4085C99.3067 30.5395 99.3717 30.7375 99.3747 30.9985L100.093 30.9905L100.1 30.9675C100.107 30.5625 99.9787 30.2385 99.7127 29.9975C99.4477 29.7555 99.0797 29.6355 98.6087 29.6355ZM96.4677 25.8755H96.9117V21.5255H96.4677V25.0425L96.4457 25.0465L94.4077 21.5245H93.9627V25.8745H94.4077V22.3615L94.4297 22.3575L96.4677 25.8755ZM92.4397 25.4525C92.7137 25.1295 92.8497 24.6965 92.8497 24.1525V23.2465C92.8497 22.7085 92.7117 22.2765 92.4357 21.9525C92.1597 21.6275 91.7987 21.4655 91.3527 21.4655C90.9057 21.4655 90.5467 21.6275 90.2727 21.9525C89.9987 22.2775 89.8627 22.7085 89.8627 23.2465V24.1535C89.8627 24.6965 89.9997 25.1295 90.2747 25.4535C90.5497 25.7765 90.9107 25.9385 91.3587 25.9385C91.8057 25.9385 92.1667 25.7765 92.4397 25.4525ZM92.4067 24.1525C92.4067 24.6055 92.3137 24.9525 92.1267 25.1945C91.9407 25.4365 91.6847 25.5575 91.3587 25.5575C91.0287 25.5575 90.7707 25.4365 90.5847 25.1945C90.3987 24.9515 90.3057 24.6045 90.3057 24.1525V23.2395C90.3057 22.7945 90.3977 22.4515 90.5827 22.2095C90.7687 21.9665 91.0237 21.8455 91.3527 21.8455C91.6807 21.8455 91.9377 21.9665 92.1257 22.2095C92.3127 22.4515 92.4057 22.7945 92.4057 23.2395L92.4067 24.1525ZM87.9827 21.9055H89.1547V21.5255H86.4037V21.9055H87.5387V25.8755H87.9827V21.9055ZM83.7327 23.1235C83.6047 22.9985 83.5407 22.8285 83.5407 22.6105C83.5407 22.3905 83.6147 22.2085 83.7627 22.0635C83.9107 21.9185 84.1297 21.8455 84.4207 21.8455C84.6997 21.8455 84.9167 21.9335 85.0717 22.1075C85.2267 22.2815 85.3047 22.5075 85.3047 22.7825H85.7197L85.7267 22.7595C85.7367 22.3515 85.6247 22.0335 85.3917 21.8065C85.1587 21.5785 84.8347 21.4655 84.4217 21.4655C84.0137 21.4655 83.6917 21.5695 83.4517 21.7785C83.2127 21.9885 83.0937 22.2685 83.0937 22.6185C83.0937 22.9715 83.1957 23.2385 83.3997 23.4165C83.6047 23.5965 83.9287 23.7565 84.3727 23.8985C84.7447 24.0225 85.0007 24.1495 85.1397 24.2785C85.2797 24.4065 85.3497 24.5775 85.3497 24.7895C85.3497 25.0095 85.2637 25.1915 85.0937 25.3395C84.9237 25.4845 84.6887 25.5575 84.3877 25.5575C84.1389 25.565 83.8951 25.4862 83.6977 25.3345C83.5087 25.1845 83.4147 24.9465 83.4147 24.6195H82.9967L82.9897 24.6415C82.9767 25.0905 83.1067 25.4185 83.3777 25.6265C83.6477 25.8345 83.9857 25.9385 84.3877 25.9385C84.8167 25.9385 85.1587 25.8365 85.4137 25.6315C85.6687 25.4275 85.7967 25.1455 85.7967 24.7845C85.7967 24.4375 85.6927 24.1735 85.4867 23.9905C85.2787 23.8065 84.9567 23.6445 84.5167 23.5025C84.1227 23.3745 83.8607 23.2485 83.7327 23.1235ZM79.3827 25.8755H82.2567V25.4945H79.8267V23.2465H81.9427V22.8655H79.8267V20.8335H82.2347V20.4375H79.3827V25.8755ZM75.2717 30.2695H77.1647V29.6945H74.5247V34.0445H75.2717V32.1665H76.8947V31.5915H75.2717V30.2695ZM74.5747 21.9055H76.5797V21.5255H74.1317V25.8755H74.5757V23.8855H76.3177V23.4925H74.5757L74.5747 21.9055ZM73.1007 33.6175C73.3947 33.2905 73.5407 32.8585 73.5407 32.3235V31.4165C73.5407 30.8865 73.3927 30.4565 73.0977 30.1275C72.8017 29.7985 72.4177 29.6355 71.9467 29.6355C71.4737 29.6355 71.0907 29.7985 70.7967 30.1275C70.5037 30.4565 70.3567 30.8855 70.3567 31.4165V32.3235C70.3567 32.8585 70.5047 33.2905 70.7987 33.6175C71.0937 33.9445 71.4787 34.1075 71.9547 34.1075C72.4257 34.1075 72.8077 33.9445 73.1007 33.6175ZM72.7937 32.3185C72.7937 32.6985 72.7197 32.9965 72.5707 33.2115C72.5042 33.3135 72.4127 33.3967 72.3048 33.4531C72.1969 33.5095 72.0764 33.5372 71.9547 33.5335C71.8314 33.5381 71.7089 33.5109 71.5991 33.4545C71.4893 33.3981 71.3959 33.3145 71.3277 33.2115C71.1777 32.9965 71.1037 32.6985 71.1037 32.3185V31.4095C71.1037 31.0375 71.1777 30.7435 71.3257 30.5295C71.393 30.4273 71.4855 30.3442 71.5943 30.2881C71.703 30.2321 71.8244 30.205 71.9467 30.2095C72.069 30.2056 72.1904 30.2329 72.2992 30.2889C72.408 30.3449 72.5008 30.4277 72.5687 30.5295C72.7187 30.7435 72.7937 31.0375 72.7937 31.4095V32.3185ZM72.6087 25.4525C72.8827 25.1295 73.0187 24.6965 73.0187 24.1525V23.2465C73.0187 22.7085 72.8817 22.2765 72.6057 21.9525C72.3287 21.6275 71.9677 21.4655 71.5207 21.4655C71.0747 21.4655 70.7147 21.6275 70.4407 21.9525C70.1677 22.2775 70.0307 22.7085 70.0307 23.2465V24.1535C70.0307 24.6965 70.1677 25.1295 70.4427 25.4535C70.7187 25.7765 71.0807 25.9385 71.5287 25.9385C71.9757 25.9385 72.3347 25.7765 72.6087 25.4525ZM72.5757 24.1525C72.5757 24.6055 72.4827 24.9525 72.2957 25.1945C72.1107 25.4365 71.8547 25.5575 71.5287 25.5575C71.1987 25.5575 70.9397 25.4365 70.7537 25.1945C70.5677 24.9515 70.4737 24.6045 70.4737 24.1525V23.2395C70.4737 22.7945 70.5677 22.4515 70.7527 22.2095C70.9367 21.9665 71.1927 21.8455 71.5207 21.8455C71.8487 21.8455 72.1077 21.9665 72.2947 22.2095C72.4817 22.4515 72.5747 22.7945 72.5747 23.2395L72.5757 24.1525ZM66.6557 32.4805L67.9527 29.6945H67.1277L66.2997 31.7185H66.2777L65.4457 29.6945H64.6237L65.9037 32.4465V34.0445H66.6547L66.6557 32.4805ZM64.9487 24.1525V23.2395C64.9487 22.8325 65.0417 22.4985 65.2267 22.2375C65.4117 21.9765 65.6507 21.8455 65.9437 21.8455C66.2447 21.8455 66.4787 21.9355 66.6437 22.1145C66.8087 22.2945 66.8917 22.5575 66.8917 22.9065H67.3087L67.3197 22.8835C67.3277 22.4285 67.2057 22.0775 66.9557 21.8335C66.7057 21.5875 66.3677 21.4655 65.9437 21.4655C65.5227 21.4655 65.1777 21.6305 64.9087 21.9615C64.6387 22.2925 64.5057 22.7215 64.5057 23.2465V24.1535C64.5057 24.6815 64.6397 25.1105 64.9087 25.4415C65.1777 25.7725 65.5227 25.9385 65.9437 25.9385C66.3607 25.9385 66.6957 25.8165 66.9497 25.5725C67.2047 25.3285 67.3277 24.9775 67.3197 24.5195L67.3097 24.4965H66.8907C66.8907 24.8545 66.8087 25.1205 66.6427 25.2955C66.4777 25.4705 66.2447 25.5575 65.9437 25.5575C65.6507 25.5575 65.4117 25.4275 65.2267 25.1665C65.0417 24.9055 64.9487 24.5665 64.9487 24.1525ZM63.3997 34.0445H64.1727V33.9815C64.1339 33.9051 64.1117 33.8212 64.1077 33.7355C64.0968 33.6249 64.0915 33.5137 64.0917 33.4025V33.0025C64.0917 32.7415 64.0397 32.5225 63.9357 32.3435C63.8229 32.1586 63.6431 32.0243 63.4337 31.9685C63.6407 31.8715 63.7977 31.7385 63.9067 31.5685C64.0157 31.3995 64.0697 31.1985 64.0697 30.9685C64.0697 30.5675 63.9457 30.2555 63.6977 30.0305C63.4497 29.8065 63.1067 29.6945 62.6677 29.6945H61.2287V34.0445H61.9757V32.2825H62.7307C62.9277 32.2825 63.0797 32.3465 63.1857 32.4725C63.2907 32.5995 63.3437 32.7785 63.3437 33.0065V33.3985C63.3437 33.5285 63.3477 33.6555 63.3537 33.7785C63.3529 33.8693 63.3685 33.9594 63.3997 34.0445ZM63.3187 31.0015C63.3187 31.2285 63.2647 31.4015 63.1587 31.5245C63.0497 31.6465 62.8867 31.7075 62.6677 31.7075H61.9757V30.2695H62.6677C62.8847 30.2695 63.0477 30.3355 63.1557 30.4675C63.2647 30.5995 63.3187 30.7775 63.3187 31.0015ZM62.9557 25.8755H63.3957V21.5255H62.9557V25.8755ZM59.8637 25.8755H62.0277V25.4945H60.3077V21.5245H59.8637V25.8755ZM58.6097 24.0085C58.4846 23.8223 58.2927 23.6913 58.0737 23.6425C58.2608 23.5744 58.4195 23.4455 58.5247 23.2765C58.6337 23.1045 58.6877 22.9065 58.6877 22.6825C58.6877 22.2965 58.5707 22.0075 58.3357 21.8145C58.1027 21.6215 57.7737 21.5245 57.3527 21.5245H56.1877V25.8745H57.5677C57.9537 25.8745 58.2577 25.7725 58.4787 25.5685C58.6987 25.3645 58.8097 25.0675 58.8097 24.6765C58.8097 24.4225 58.7437 24.1995 58.6097 24.0085ZM58.0147 23.2875C57.8647 23.4215 57.6437 23.4885 57.3527 23.4885H56.6317V21.9505H57.3517C57.6507 21.9505 57.8727 22.0095 58.0207 22.1275C58.1667 22.2465 58.2407 22.4355 58.2407 22.6975C58.2407 22.9565 58.1647 23.1525 58.0147 23.2875ZM58.3657 24.6685C58.3657 24.9345 58.2967 25.1385 58.1587 25.2805C58.0207 25.4235 57.8237 25.4945 57.5667 25.4945H56.6317V23.8545H57.6037C57.8447 23.8625 58.0327 23.9395 58.1647 24.0865C58.2987 24.2335 58.3647 24.4265 58.3647 24.6685H58.3657ZM56.5297 29.9845C56.2797 29.7515 55.9307 29.6345 55.4847 29.6345C55.0507 29.6345 54.7067 29.7455 54.4507 29.9665C54.3255 30.074 54.226 30.2083 54.1597 30.3594C54.0934 30.5105 54.062 30.6746 54.0677 30.8395C54.0677 31.2095 54.1747 31.4895 54.3877 31.6755C54.6017 31.8615 54.9417 32.0215 55.4107 32.1525C55.7167 32.2545 55.9267 32.3605 56.0417 32.4715C56.1557 32.5815 56.2137 32.7255 56.2137 32.9045C56.2167 32.9894 56.2014 33.0738 56.1688 33.1522C56.1362 33.2305 56.087 33.3009 56.0247 33.3585C55.8987 33.4745 55.7127 33.5335 55.4667 33.5335C55.2628 33.5419 55.0625 33.4773 54.9017 33.3515C54.7557 33.2305 54.6817 33.0325 54.6817 32.7585H53.9647L53.9537 32.7815C53.9417 33.2265 54.0757 33.5595 54.3567 33.7795C54.6377 33.9995 55.0067 34.1075 55.4667 34.1075C55.9227 34.1075 56.2857 34.0005 56.5567 33.7855C56.8257 33.5705 56.9607 33.2755 56.9607 32.9015C56.9607 32.5355 56.8537 32.2575 56.6387 32.0645C56.4247 31.8725 56.0917 31.7095 55.6397 31.5775C55.3047 31.4735 55.0837 31.3695 54.9757 31.2655C54.9207 31.2081 54.8781 31.1398 54.8506 31.0652C54.8231 30.9905 54.8112 30.911 54.8157 30.8315C54.8157 30.6515 54.8697 30.5025 54.9797 30.3855C55.0897 30.2685 55.2577 30.2095 55.4847 30.2095C55.7087 30.2095 55.8787 30.2795 55.9937 30.4195C56.1087 30.5595 56.1657 30.7455 56.1657 30.9755H56.8827L56.8907 30.9535C56.9007 30.5395 56.7807 30.2185 56.5297 29.9845ZM54.6507 25.5315C54.9287 25.2595 55.0667 24.8835 55.0667 24.4035V21.5245H54.6227V24.4065C54.6227 24.7625 54.5257 25.0435 54.3307 25.2495C54.2333 25.3515 54.1154 25.4317 53.9847 25.4848C53.8541 25.5379 53.7137 25.5627 53.5727 25.5575C53.4318 25.5623 53.2915 25.5371 53.161 25.4837C53.0305 25.4302 52.9128 25.3498 52.8157 25.2475C52.6197 25.0405 52.5217 24.7605 52.5217 24.4065V21.5245H52.0777V24.4045C52.0777 24.8845 52.2167 25.2595 52.4947 25.5315C52.7717 25.8025 53.1317 25.9385 53.5727 25.9385C54.0137 25.9385 54.3727 25.8025 54.6507 25.5315ZM50.3777 34.0445H51.1277V29.6945H50.3777V32.6965L50.3547 32.7045L48.7017 29.6945H47.9547V34.0445H48.7017V31.0395L48.7237 31.0325L50.3777 34.0455V34.0445ZM50.7597 23.8665C50.9877 23.6165 51.1017 23.2905 51.1017 22.8875C51.1017 22.4875 50.9877 22.1605 50.7597 21.9075C50.5317 21.6515 50.2197 21.5245 49.8227 21.5245H48.4427V25.8745H48.8867V24.2425H49.8227C50.2197 24.2425 50.5317 24.1175 50.7597 23.8665ZM50.6547 22.8955C50.6547 23.1655 50.5847 23.3945 50.4437 23.5805C50.3037 23.7685 50.0957 23.8625 49.8227 23.8625H48.8867V21.9055H49.8227C50.0957 21.9055 50.3027 22.0005 50.4427 22.1905C50.5837 22.3805 50.6547 22.6155 50.6547 22.8955ZM44.9247 25.8755H47.3737V25.4945H45.3687V23.7985H47.1077V23.4185H45.3687V21.9055H47.3737V21.5255H44.9257L44.9247 25.8755ZM44.9587 28.6075H43.9887L42.7287 33.0445H42.7067L41.4487 28.6075H40.4837V34.0445H41.2267V31.9575L41.1567 29.8695L41.1787 29.8665L42.4697 34.0445H42.9657L44.2597 29.8625L44.2817 29.8665L44.2157 31.9565V34.0445H44.9587V28.6075ZM43.2687 25.8755H43.7237V25.7855C43.6421 25.6913 43.586 25.5777 43.5607 25.4555C43.5264 25.306 43.5096 25.153 43.5107 24.9995V24.4875C43.5107 24.1615 43.4507 23.8885 43.3307 23.6695C43.2117 23.4495 43.0157 23.2975 42.7407 23.2125C42.9907 23.1055 43.1827 22.9395 43.3187 22.7155C43.4537 22.4895 43.5217 22.2335 43.5217 21.9445C43.5217 21.4545 43.3937 21.0815 43.1377 20.8255C42.8807 20.5695 42.5107 20.4425 42.0277 20.4425H40.4817V25.8755H40.9257V23.4145H42.1387C42.4267 23.4145 42.6537 23.5115 42.8187 23.7065C42.9847 23.9015 43.0667 24.1625 43.0667 24.4925V24.9905C43.0667 25.1705 43.0807 25.3405 43.1097 25.5005C43.1377 25.6605 43.1897 25.7845 43.2667 25.8755H43.2687ZM41.9787 23.0335H40.9277V20.8335H42.0297C42.3827 20.8335 42.6447 20.9295 42.8177 21.1215C42.9897 21.3135 43.0757 21.5875 43.0757 21.9425C43.0757 22.2795 42.9887 22.5445 42.8117 22.7405C42.6357 22.9355 42.3587 23.0335 41.9787 23.0335ZM46.8377 29.6945H46.0907V34.0445H46.8377V29.6945ZM53.0137 29.6945H52.2667V34.0445H53.0137V29.6945ZM60.4337 29.6945H57.4827V30.2695H58.5727V34.0445H59.3207V30.2695H60.4337V29.6945ZM82.9917 28.6075H79.9177V34.0445H80.6677V31.6245H82.6697V31.0505H80.6687V29.1835H82.9917V28.6075ZM84.1117 30.1275C83.8187 30.4565 83.6717 30.8855 83.6717 31.4165V32.3235C83.6717 32.8585 83.8187 33.2905 84.1137 33.6175C84.4077 33.9445 84.7937 34.1075 85.2697 34.1075C85.7397 34.1075 86.1227 33.9445 86.4157 33.6175C86.7087 33.2905 86.8557 32.8585 86.8557 32.3235V31.4165C86.8557 30.8865 86.7077 30.4565 86.4117 30.1275C86.1167 29.7985 85.7317 29.6355 85.2617 29.6355C84.7887 29.6355 84.4047 29.7985 84.1117 30.1275ZM84.4187 31.4095C84.4187 31.0375 84.4917 30.7435 84.6407 30.5295C84.7081 30.4274 84.8006 30.3443 84.9093 30.2883C85.0181 30.2322 85.1395 30.2051 85.2617 30.2095C85.3839 30.2058 85.505 30.2332 85.6136 30.2892C85.7223 30.3452 85.8149 30.4279 85.8827 30.5295C86.0337 30.7435 86.1087 31.0375 86.1087 31.4095V32.3185C86.1087 32.6985 86.0347 32.9965 85.8847 33.2115C85.8183 33.3134 85.7269 33.3965 85.6193 33.4528C85.5116 33.5092 85.3912 33.537 85.2697 33.5335C85.1464 33.5381 85.0239 33.5109 84.9141 33.4545C84.8043 33.3981 84.7109 33.3145 84.6427 33.2115C84.4927 32.9965 84.4187 32.6985 84.4187 32.3185V31.4095ZM89.1267 29.6945H87.6877V34.0445H88.4357V32.2825H89.1897C89.3877 32.2825 89.5387 32.3465 89.6447 32.4725C89.7507 32.5995 89.8047 32.7785 89.8047 33.0065V33.3985C89.8047 33.5285 89.8067 33.6555 89.8127 33.7785C89.8128 33.8693 89.8287 33.9593 89.8597 34.0445H90.6327V33.9815C90.5938 33.905 90.5713 33.8213 90.5667 33.7355C90.5564 33.6248 90.551 33.5137 90.5507 33.4025V33.0025C90.5507 32.7415 90.4987 32.5225 90.3957 32.3435C90.2828 32.1583 90.1025 32.0239 89.8927 31.9685C90.0997 31.8715 90.2577 31.7385 90.3667 31.5685C90.4747 31.3995 90.5287 31.1985 90.5287 30.9685C90.5287 30.5675 90.4047 30.2555 90.1567 30.0305C89.9097 29.8065 89.5667 29.6945 89.1267 29.6945ZM88.4357 30.2695H89.1267C89.3437 30.2695 89.5067 30.3355 89.6157 30.4675C89.7227 30.5995 89.7777 30.7775 89.7777 31.0015C89.7777 31.2285 89.7237 31.4015 89.6177 31.5245C89.5097 31.6465 89.3467 31.7075 89.1277 31.7075H88.4357V30.2695ZM94.2237 29.6945H91.6197V34.0445H94.2237V33.4695H92.3667V32.0695H93.9537V31.4945H92.3667V30.2695H94.2237V29.6945ZM95.9917 29.6945H95.2437V34.0445H95.9917V29.6945Z" fill="white"/>
</g>
</g>
<defs>
<clipPath id="clip0_1924_2420">
<rect width="140" height="55" fill="white"/>
</clipPath>
<clipPath id="clip1_1924_2420">
<rect width="140" height="55" fill="white"/>
</clipPath>
</defs>
</svg>
