<svg width="139" height="37" viewBox="0 0 139 37" fill="none" xmlns="http://www.w3.org/2000/svg">
<g clip-path="url(#clip0_1924_2401)">
<g clip-path="url(#clip1_1924_2401)">
<g clip-path="url(#clip2_1924_2401)">
<path d="M11.5181 26.3302C11.3907 26.4143 11.2687 26.5065 11.1531 26.6062L11.1181 26.6342L11.0431 26.6902C11.0181 26.7102 10.9921 26.7272 10.9651 26.7452C10.9388 26.7648 10.9117 26.7835 10.8841 26.8012C10.8571 26.8198 10.8294 26.8375 10.8011 26.8542C10.7724 26.8725 10.743 26.8899 10.7131 26.9062C10.6535 26.9409 10.5932 26.9742 10.5321 27.0062L10.4371 27.0542L10.3391 27.0982L10.2391 27.1422L10.1391 27.1832L10.0371 27.2212L9.93713 27.2562L9.83712 27.2862C9.80402 27.2963 9.77068 27.3057 9.73713 27.3142C9.70501 27.324 9.67267 27.333 9.64013 27.3412L9.54212 27.3642L9.44712 27.3842C9.41412 27.3882 9.38312 27.3942 9.35112 27.4002C8.96912 27.4652 8.57112 27.4982 8.16112 27.5022H7.85712C5.87212 27.4542 4.21812 26.8112 2.89212 25.5712C1.56712 24.3312 0.879125 22.7782 0.828125 20.9102V13.5632C0.879125 11.6952 1.56712 10.1422 2.89212 8.90221C4.21812 7.66421 5.87212 7.01921 7.85712 6.97321H8.24713C8.62213 6.98021 8.97213 7.00421 9.29712 7.04821L9.39213 7.06321L9.49012 7.08121C9.52413 7.08821 9.55713 7.09421 9.59013 7.10321C9.65834 7.11758 9.72604 7.13426 9.79313 7.15321L9.89412 7.18121C9.92912 7.19121 9.96212 7.20321 9.99712 7.21421L10.1001 7.24921L10.2011 7.28821C10.268 7.31328 10.3341 7.34063 10.3991 7.37021L10.4931 7.41421C10.5554 7.44296 10.6165 7.47432 10.6761 7.50821C10.7041 7.52221 10.7341 7.53821 10.7621 7.55521L10.7891 7.57221L10.8261 7.59521L10.8621 7.61921L10.9001 7.64221L10.9351 7.66721L10.9701 7.69121L11.0051 7.71621L11.0401 7.73921L11.0731 7.76521L11.1061 7.79021L11.1381 7.81421L11.1691 7.83921L11.2011 7.86521L11.2311 7.89021L11.2611 7.91621L11.2891 7.94221L11.3171 7.96721L11.3451 7.99321C11.3451 7.99321 11.3701 8.01821 11.4021 8.03921C11.4599 8.07627 11.5275 8.09509 11.5961 8.09321C11.6211 8.09321 11.6461 8.09221 11.6691 8.08721C11.6941 8.08221 11.7151 8.07421 11.7391 8.06521C11.7816 8.04545 11.8208 8.01913 11.8551 7.98721C11.8892 7.95501 11.9158 7.91576 11.9331 7.87221C11.9529 7.82774 11.9637 7.77984 11.9651 7.73121C11.9611 7.49021 11.9561 7.16021 12.2321 7.08021C12.3961 7.03221 12.5971 7.05521 12.7621 7.05521H15.2721C15.5281 7.05521 15.9131 6.99321 16.0201 7.30321C16.1001 7.53321 16.0461 8.01321 16.0461 8.25921V19.7092L16.0441 23.9232C16.0441 25.3132 16.1011 26.7192 15.9441 28.1052C15.5001 31.9682 13.5451 35.2502 9.40913 35.9702C6.90513 36.4042 4.40912 35.5242 2.47712 33.9472C2.24112 33.7552 1.74913 33.4322 1.76913 33.1012C1.78101 32.9843 1.8313 32.8746 1.91212 32.7892C1.91212 32.7892 3.51612 31.1152 3.63212 30.9692C3.74712 30.8442 3.90613 30.6652 4.08413 30.6652C4.33613 30.6672 4.60012 30.9002 5.05912 31.1652C5.83912 31.6182 6.67613 32.0332 7.56612 32.1652C8.12913 32.2482 8.74213 32.1712 9.28113 31.9992C11.3791 31.3282 11.9601 28.7122 12.0811 26.6622V26.6272C12.0811 26.6142 12.0811 26.6032 12.0791 26.5912C12.0776 26.5792 12.0759 26.5672 12.0741 26.5552C12.0708 26.5439 12.0675 26.5325 12.0641 26.5212C12.0564 26.4994 12.0474 26.478 12.0371 26.4572C12.0331 26.4472 12.0261 26.4372 12.0191 26.4272C12.0001 26.3985 11.9765 26.3731 11.9491 26.3522C11.9411 26.3432 11.9311 26.3372 11.9211 26.3302L11.8911 26.3122L11.8601 26.2982C11.8495 26.2933 11.8385 26.2892 11.8271 26.2862C11.8151 26.2812 11.8031 26.2802 11.7921 26.2762L11.7551 26.2712L11.7191 26.2702L11.6821 26.2712L11.6461 26.2762C11.6341 26.2802 11.6221 26.2812 11.6111 26.2862C11.5999 26.2895 11.5889 26.2935 11.5781 26.2982L11.5181 26.3302ZM11.9581 20.9642V13.5902C11.9261 12.6092 11.5681 11.9972 10.8781 11.4472C10.1911 10.9002 9.54513 10.6192 8.56812 10.6112H8.18813C7.17212 10.6342 6.50812 10.9642 5.82412 11.5972C5.13812 12.2302 4.78312 12.8712 4.75612 13.8272V20.6472C4.78312 21.6022 5.13812 22.2432 5.82412 22.8772C6.50812 23.5092 7.17212 23.8392 8.18913 23.8622H8.56713C9.54513 23.8492 10.1911 23.5682 10.8791 23.0212C11.5681 22.4732 11.9261 21.8892 11.9581 20.9642ZM44.3701 27.0282V24.3302C44.3701 24.1732 44.3281 24.0602 44.2451 23.9882C44.1528 23.9117 44.0348 23.8734 43.9151 23.8812H36.3971C36.2171 23.8792 36.0881 23.8482 36.0101 23.7842C35.9721 23.7543 35.9415 23.7159 35.9207 23.6722C35.8999 23.6285 35.8894 23.5806 35.8901 23.5322C35.8918 23.4164 35.9253 23.3032 35.9871 23.2052L44.2251 7.85021C44.2505 7.79976 44.2716 7.74723 44.2881 7.69321C44.3047 7.64208 44.3141 7.58891 44.3161 7.53521C44.3081 7.30421 44.1421 7.18521 43.8151 7.17621H30.3201C30.0101 7.17021 29.8561 7.31921 29.8651 7.62621V10.3242C29.8561 10.6302 30.0091 10.7802 30.3201 10.7732H37.3681C37.5281 10.7732 37.6581 10.8012 37.7441 10.8632C37.7854 10.8946 37.8185 10.9356 37.8405 10.9827C37.8624 11.0297 37.8726 11.0814 37.8701 11.1332C37.8672 11.1865 37.8578 11.2392 37.8421 11.2902C37.8241 11.3492 37.8021 11.4012 37.7791 11.4472L29.4551 26.8042C29.4298 26.855 29.4087 26.9079 29.3921 26.9622C29.3753 27.013 29.3655 27.0658 29.3631 27.1192C29.3701 27.3502 29.5381 27.4702 29.8651 27.4792H43.9151C44.0741 27.4792 44.1901 27.4442 44.2631 27.3722C44.3361 27.3002 44.3711 27.1852 44.3711 27.0292L44.3701 27.0282ZM21.0291 4.56621C21.0327 4.69173 21.0801 4.81203 21.1631 4.90621C21.2531 4.99421 21.3911 5.04021 21.5771 5.04521H24.4171C24.6041 5.04021 24.7421 4.99421 24.8311 4.90521C24.8745 4.86129 24.9087 4.80909 24.9315 4.75171C24.9544 4.69433 24.9655 4.63295 24.9641 4.57121V1.37021C24.9591 1.18421 24.9161 1.04321 24.8261 0.955211C24.7361 0.866211 24.5991 0.820211 24.4131 0.814211H24.1871C24.0956 0.809692 24.0043 0.826074 23.9201 0.862114C23.8359 0.898154 23.761 0.952905 23.7011 1.02221L21.3161 3.65221L21.2011 3.78421C21.0731 3.93021 21.0251 4.05321 21.0251 4.21021V4.48821C21.0251 4.51121 21.0291 4.56621 21.0291 4.56621ZM24.9451 7.64021C24.9451 7.48021 24.9051 7.35521 24.8321 7.27821C24.7521 7.19821 24.6261 7.15721 24.4551 7.15821H21.4981C21.3261 7.16021 21.2021 7.20821 21.1221 7.29821C21.0424 7.39352 21.0011 7.51508 21.0061 7.63921V7.71921L21.0041 18.6942L21.0081 26.9972C21.0081 27.1562 21.0481 27.2802 21.1221 27.3572C21.2001 27.4372 21.3261 27.4772 21.4981 27.4772H24.4551C24.6251 27.4752 24.7521 27.4272 24.8301 27.3372C24.9092 27.242 24.9502 27.1209 24.9451 26.9972V7.64021ZM138.173 22.8872C138.173 22.7972 138.144 22.7302 138.086 22.6842C138.033 22.6413 137.967 22.6173 137.899 22.6162C137.831 22.6171 137.764 22.6411 137.711 22.6842C137.653 22.7302 137.625 22.7972 137.625 22.8872V24.7672H135.918V22.8872C135.918 22.7972 135.888 22.7302 135.83 22.6842C135.778 22.6411 135.712 22.6172 135.644 22.6162C135.576 22.6168 135.509 22.6408 135.456 22.6842C135.398 22.7302 135.37 22.7972 135.37 22.8872V27.3502C135.37 27.4402 135.398 27.5072 135.456 27.5502C135.51 27.5912 135.576 27.6135 135.643 27.6135C135.711 27.6135 135.776 27.5912 135.83 27.5502C135.888 27.5072 135.918 27.4402 135.918 27.3502V25.3062H137.625V27.3502C137.625 27.4452 137.653 27.5122 137.711 27.5532C137.769 27.5932 137.832 27.6142 137.899 27.6142C137.966 27.6137 138.031 27.5927 138.086 27.5542C138.144 27.5132 138.173 27.4452 138.173 27.3502V22.8872ZM133.47 26.4692C133.471 26.549 133.455 26.6281 133.424 26.7016C133.393 26.7751 133.347 26.8414 133.289 26.8962C133.232 26.9538 133.164 26.9991 133.088 27.0296C133.013 27.06 132.932 27.0748 132.851 27.0732H132.786C132.63 27.076 132.477 27.0228 132.356 26.9232C132.296 26.8738 132.248 26.8108 132.216 26.7395C132.184 26.6681 132.169 26.5903 132.173 26.5122V25.1922C132.173 25.0262 132.233 24.8932 132.356 24.7952C132.479 24.6952 132.621 24.6452 132.786 24.6452H132.851C133.023 24.6452 133.169 24.7052 133.289 24.8232C133.409 24.9412 133.47 25.0832 133.47 25.2492V26.4692ZM134.018 25.2512C134.018 25.0932 133.988 24.9462 133.927 24.8062C133.869 24.6682 133.785 24.5429 133.678 24.4377C133.572 24.3325 133.446 24.2494 133.307 24.1932C133.163 24.1334 133.008 24.1032 132.851 24.1042H132.799C132.675 24.1042 132.555 24.1242 132.439 24.1642C132.336 24.1971 132.244 24.2576 132.173 24.3392V22.8872C132.173 22.7972 132.143 22.7302 132.087 22.6842C132.034 22.6411 131.968 22.6171 131.899 22.6162C131.831 22.6169 131.765 22.6409 131.712 22.6842C131.653 22.7302 131.625 22.7972 131.625 22.8872V27.3652C131.625 27.4502 131.653 27.5132 131.712 27.5542C131.77 27.5932 131.831 27.6142 131.899 27.6142C131.961 27.6142 132.019 27.5962 132.072 27.5642C132.098 27.546 132.12 27.5222 132.136 27.4946C132.153 27.4669 132.162 27.4361 132.165 27.4042C132.233 27.467 132.313 27.5162 132.399 27.5492C132.504 27.5912 132.631 27.6142 132.786 27.6142H132.851C133.157 27.614 133.451 27.4954 133.671 27.2832C133.777 27.1812 133.86 27.0612 133.923 26.9232C133.985 26.7862 134.018 26.6372 134.018 26.4742V25.2512ZM130.293 25.2422C130.293 25.0492 130.26 24.8782 130.199 24.7342C130.143 24.5997 130.058 24.4795 129.95 24.3821C129.841 24.2847 129.713 24.2126 129.573 24.1712C129.431 24.1265 129.282 24.1039 129.133 24.1042H129.068C128.884 24.1042 128.718 24.1422 128.567 24.2142C128.418 24.2855 128.285 24.3858 128.175 24.5092C128.064 24.3867 127.93 24.2866 127.781 24.2142C127.625 24.1403 127.453 24.1027 127.28 24.1042H127.215C127.09 24.1042 126.972 24.1242 126.863 24.1622C126.763 24.1932 126.672 24.2462 126.595 24.3172C126.59 24.2852 126.579 24.2546 126.561 24.2272C126.544 24.1998 126.521 24.1764 126.494 24.1582C126.446 24.1239 126.389 24.105 126.33 24.1042C126.259 24.1042 126.189 24.1289 126.134 24.1742C126.105 24.1988 126.083 24.2296 126.068 24.2642C126.053 24.2989 126.046 24.3365 126.048 24.3742V27.3502C126.048 27.4402 126.077 27.5072 126.134 27.5502C126.188 27.5915 126.254 27.6139 126.322 27.6139C126.389 27.6139 126.455 27.5915 126.509 27.5502C126.567 27.5072 126.595 27.4402 126.595 27.3502V25.1932C126.595 25.0282 126.657 24.8952 126.783 24.7952C126.905 24.6961 127.058 24.643 127.215 24.6452H127.28C127.454 24.6452 127.6 24.7032 127.72 24.8162C127.839 24.9312 127.901 25.0762 127.901 25.2572V27.3352C127.901 27.4302 127.929 27.5012 127.987 27.5452C128.043 27.5912 128.107 27.6152 128.175 27.6152C128.243 27.6143 128.309 27.5896 128.361 27.5452C128.419 27.5012 128.447 27.4302 128.447 27.3352V25.2572C128.447 25.1759 128.462 25.0954 128.493 25.0203C128.525 24.9452 128.57 24.8771 128.628 24.82C128.686 24.763 128.755 24.7181 128.831 24.6881C128.906 24.658 128.987 24.6435 129.068 24.6452H129.133C129.315 24.6452 129.462 24.6952 129.574 24.7952C129.689 24.8952 129.745 25.0442 129.745 25.2422V27.3502C129.745 27.4402 129.774 27.5072 129.832 27.5502C129.885 27.5918 129.951 27.6144 130.019 27.6144C130.086 27.6144 130.152 27.5918 130.205 27.5502C130.264 27.5072 130.293 27.4402 130.293 27.3502V25.2422ZM124.727 25.1652C124.727 25.13 124.72 25.0951 124.706 25.0627C124.692 25.0304 124.672 25.0013 124.646 24.9772C124.622 24.9512 124.592 24.9305 124.559 24.9164C124.526 24.9023 124.491 24.8951 124.455 24.8952H123.424C123.333 24.8952 123.265 24.9232 123.218 24.9802C123.175 25.0322 123.151 25.0975 123.15 25.1652C123.15 25.2312 123.173 25.2932 123.218 25.3512C123.265 25.4072 123.333 25.4362 123.424 25.4362H124.181V26.2642C124.181 26.3782 124.16 26.4842 124.116 26.5812C124.029 26.773 123.873 26.9255 123.68 27.0092C123.579 27.0525 123.469 27.0743 123.359 27.0732H123.286C123.126 27.073 122.969 27.0261 122.835 26.9384C122.701 26.8507 122.596 26.7259 122.531 26.5792C122.487 26.4798 122.465 26.372 122.466 26.2632V23.9602C122.466 23.8522 122.487 23.7482 122.531 23.6512C122.595 23.5045 122.701 23.3797 122.835 23.2921C122.969 23.2045 123.126 23.158 123.286 23.1582H123.359C123.595 23.1582 123.781 23.2232 123.919 23.3562C124.055 23.4892 124.143 23.6562 124.181 23.8552C124.194 23.9352 124.229 23.9952 124.281 24.0302C124.333 24.0647 124.393 24.0831 124.455 24.0832C124.522 24.0832 124.585 24.0602 124.641 24.0162C124.699 23.9702 124.727 23.9062 124.727 23.8192V23.7762C124.684 23.4529 124.521 23.1574 124.271 22.9482C124.146 22.8446 124.004 22.7625 123.852 22.7052C123.695 22.646 123.527 22.6162 123.359 22.6172H123.286C123.019 22.6161 122.757 22.6933 122.533 22.8392C122.309 22.9851 122.133 23.1933 122.026 23.4382C121.953 23.606 121.916 23.7873 121.918 23.9702V26.2702C121.918 26.5368 121.997 26.7974 122.146 27.0186C122.295 27.2399 122.506 27.4117 122.753 27.5122C122.921 27.5802 123.1 27.6142 123.286 27.6142H123.359C123.721 27.6159 124.069 27.4763 124.329 27.2252C124.45 27.1052 124.548 26.9632 124.62 26.7992C124.693 26.6352 124.727 26.4582 124.727 26.2692V25.1652ZM119.025 24.3292C118.972 24.041 118.896 23.7574 118.798 23.4812C118.707 23.2308 118.592 22.99 118.454 22.7622C118.336 22.5629 118.192 22.38 118.026 22.2182C118.002 22.192 117.973 22.1709 117.941 22.1563C117.909 22.1416 117.874 22.1338 117.838 22.1332C117.769 22.1378 117.704 22.1652 117.652 22.2112C117.626 22.2341 117.604 22.2623 117.589 22.294C117.574 22.3257 117.565 22.3601 117.564 22.3952C117.564 22.4572 117.592 22.5152 117.644 22.5672C117.768 22.6852 117.888 22.8372 118.001 23.0222C118.114 23.2072 118.213 23.4172 118.3 23.6482C118.488 24.1638 118.583 24.7085 118.58 25.2572C118.58 25.5612 118.554 25.8512 118.502 26.1272C118.453 26.3861 118.382 26.6403 118.29 26.8872C118.2 27.1202 118.099 27.3272 117.982 27.5112C117.882 27.6758 117.761 27.827 117.622 27.9612C117.598 27.9833 117.578 28.01 117.565 28.0397C117.551 28.0694 117.543 28.1015 117.542 28.1342C117.542 28.2002 117.572 28.2622 117.63 28.3182C117.682 28.3707 117.752 28.4012 117.825 28.4032C117.888 28.4032 117.946 28.3752 118.004 28.3182C118.17 28.1567 118.316 27.9754 118.437 27.7782C118.572 27.5632 118.688 27.3262 118.786 27.0612C119.107 26.188 119.19 25.2449 119.025 24.3292ZM116.543 27.1222C116.496 27.0662 116.428 27.0372 116.337 27.0372H114.52L116.568 23.1572C116.6 23.1006 116.617 23.0371 116.618 22.9722C116.618 22.931 116.61 22.8902 116.594 22.8523C116.578 22.8143 116.555 22.7799 116.525 22.7512C116.493 22.7207 116.456 22.6968 116.414 22.681C116.373 22.6652 116.329 22.6578 116.285 22.6592H114.225C114.13 22.6592 114.059 22.6872 114.016 22.7442C113.974 22.7967 113.951 22.8622 113.951 22.9297C113.951 22.9972 113.974 23.0627 114.016 23.1152C114.059 23.1712 114.13 23.2002 114.225 23.2002H115.933L113.894 27.0662C113.865 27.118 113.85 27.1767 113.851 27.2362C113.851 27.3272 113.878 27.4062 113.934 27.4752C113.962 27.5095 113.998 27.5366 114.038 27.5545C114.079 27.5724 114.123 27.5805 114.167 27.5782H116.337C116.428 27.5782 116.496 27.5502 116.543 27.4932C116.587 27.441 116.611 27.3752 116.611 27.3072C116.61 27.2396 116.586 27.1743 116.543 27.1222ZM112.539 22.8872C112.539 22.7972 112.509 22.7302 112.453 22.6842C112.4 22.6409 112.334 22.617 112.265 22.6162C112.197 22.6169 112.131 22.6409 112.078 22.6842C112.02 22.7302 111.991 22.7972 111.991 22.8872V27.3502C111.991 27.4402 112.02 27.5072 112.078 27.5502C112.132 27.5916 112.198 27.6141 112.266 27.6141C112.333 27.6141 112.399 27.5916 112.453 27.5502C112.509 27.5072 112.539 27.4402 112.539 27.3502V22.8872ZM110.543 25.1652C110.543 25.1299 110.536 25.0949 110.521 25.0626C110.507 25.0302 110.486 25.0012 110.46 24.9772C110.436 24.9509 110.406 24.93 110.373 24.9159C110.34 24.9017 110.305 24.8947 110.269 24.8952H109.24C109.147 24.8952 109.079 24.9232 109.034 24.9802C108.991 25.0321 108.967 25.0976 108.967 25.1652C108.967 25.2329 108.991 25.2984 109.034 25.3502C109.079 25.4062 109.147 25.4362 109.24 25.4362H109.995V26.2642C109.997 26.3708 109.976 26.4765 109.935 26.5748C109.893 26.673 109.832 26.7617 109.755 26.8352C109.679 26.9117 109.589 26.9722 109.489 27.013C109.389 27.0539 109.282 27.0744 109.174 27.0732H109.102C108.992 27.0742 108.883 27.0524 108.782 27.0092C108.587 26.9266 108.431 26.7729 108.345 26.5792C108.302 26.4796 108.279 26.3719 108.28 26.2632V23.9602C108.28 23.8522 108.302 23.7482 108.345 23.6512C108.431 23.4574 108.587 23.3035 108.782 23.2212C108.883 23.1784 108.992 23.157 109.102 23.1582H109.174C109.409 23.1582 109.597 23.2232 109.733 23.3562C109.871 23.4906 109.963 23.6653 109.995 23.8552C110.01 23.9352 110.044 23.9952 110.097 24.0302C110.151 24.0669 110.215 24.0852 110.28 24.0825C110.344 24.0798 110.407 24.0562 110.457 24.0152C110.515 23.9702 110.543 23.9052 110.543 23.8192V23.7762C110.5 23.4529 110.337 23.1574 110.087 22.9482C109.962 22.8446 109.82 22.7625 109.668 22.7052C109.51 22.6459 109.343 22.6161 109.174 22.6172H109.102C108.923 22.6162 108.745 22.6506 108.579 22.7184C108.413 22.7861 108.262 22.886 108.134 23.0122C108.007 23.1371 107.906 23.2862 107.837 23.4507C107.768 23.6152 107.732 23.7918 107.732 23.9702V26.2702C107.732 26.537 107.812 26.7978 107.961 27.0191C108.11 27.2403 108.322 27.4121 108.569 27.5122C108.737 27.5802 108.915 27.6142 109.102 27.6142H109.174C109.361 27.6142 109.541 27.5802 109.708 27.5112C110.034 27.3771 110.295 27.1219 110.436 26.7992C110.507 26.6352 110.543 26.4582 110.543 26.2692V25.1652ZM106.444 27.5112C106.32 27.3147 106.217 27.1059 106.136 26.8882C105.842 26.0954 105.768 25.2375 105.924 24.4062C105.977 24.1342 106.047 23.8812 106.133 23.6482C106.213 23.4307 106.313 23.2211 106.432 23.0222C106.545 22.8382 106.661 22.6852 106.781 22.5672C106.805 22.5455 106.825 22.519 106.838 22.4894C106.852 22.4598 106.859 22.4278 106.86 22.3952C106.859 22.3603 106.851 22.326 106.836 22.2943C106.821 22.2627 106.8 22.2344 106.774 22.2112C106.722 22.165 106.656 22.1375 106.586 22.1332C106.551 22.1337 106.517 22.1416 106.485 22.1562C106.453 22.1708 106.424 22.192 106.401 22.2182C106.251 22.3702 106.11 22.5542 105.977 22.7692C105.84 22.9957 105.726 23.2352 105.637 23.4842C105.536 23.7579 105.458 24.0395 105.404 24.3262C105.346 24.6331 105.318 24.9449 105.32 25.2572C105.317 25.8728 105.424 26.484 105.638 27.0612C105.738 27.3262 105.854 27.5632 105.989 27.7782C106.123 27.9912 106.268 28.1722 106.42 28.3182C106.479 28.3752 106.538 28.4032 106.6 28.4032C106.637 28.4032 106.673 28.3956 106.707 28.381C106.741 28.3664 106.771 28.345 106.796 28.3182C106.825 28.2983 106.848 28.2718 106.864 28.241C106.88 28.2102 106.889 28.176 106.889 28.1412C106.889 28.0782 106.86 28.0192 106.804 27.9612C106.665 27.8275 106.544 27.6762 106.444 27.5112ZM102.374 27.1662C102.334 27.1142 102.269 27.0832 102.183 27.0732C102.076 27.0648 101.975 27.0236 101.892 26.9552C101.85 26.9206 101.817 26.8765 101.795 26.8267C101.773 26.7769 101.763 26.7226 101.766 26.6682V24.6672H102.155C102.246 24.6672 102.314 24.6392 102.361 24.5812C102.404 24.529 102.428 24.4638 102.429 24.3962C102.428 24.3286 102.404 24.2634 102.361 24.2112C102.314 24.1532 102.246 24.1262 102.155 24.1262H101.766V22.8872C101.766 22.7972 101.736 22.7302 101.68 22.6842C101.627 22.6412 101.561 22.6173 101.492 22.6162C101.424 22.6171 101.357 22.6411 101.304 22.6842C101.246 22.7302 101.218 22.7972 101.218 22.8872V24.1252H100.966C100.874 24.1252 100.806 24.1532 100.76 24.2112C100.717 24.2632 100.693 24.3285 100.692 24.3962C100.692 24.4632 100.715 24.5242 100.76 24.5812C100.806 24.6392 100.874 24.6672 100.966 24.6672H101.218V26.6812C101.217 26.866 101.271 27.0469 101.373 27.2005C101.476 27.3541 101.623 27.4731 101.794 27.5422C101.911 27.5902 102.035 27.6146 102.161 27.6142C102.258 27.6142 102.327 27.5862 102.37 27.5302C102.412 27.4786 102.435 27.4139 102.435 27.3472C102.436 27.282 102.414 27.2175 102.374 27.1662ZM99.5241 24.3752C99.5241 24.2852 99.4961 24.2172 99.4381 24.1712C99.3849 24.1282 99.3186 24.1046 99.2501 24.1042C99.1821 24.1051 99.1163 24.1287 99.0631 24.1712C99.0061 24.2172 98.9761 24.2852 98.9761 24.3752V27.3502C98.9761 27.4402 99.0061 27.5072 99.0631 27.5502C99.117 27.5913 99.1829 27.6136 99.2506 27.6136C99.3184 27.6136 99.3843 27.5913 99.4381 27.5502C99.4961 27.5072 99.5241 27.4402 99.5241 27.3502V24.3752ZM99.5241 22.8872C99.5241 22.7972 99.4961 22.7302 99.4381 22.6842C99.385 22.6409 99.3187 22.6169 99.2501 22.6162C99.182 22.6174 99.1161 22.6413 99.0631 22.6842C99.0061 22.7302 98.9761 22.7972 98.9761 22.8872V23.0432C98.9761 23.1332 99.0061 23.2032 99.0631 23.2462C99.116 23.2895 99.1823 23.3132 99.2506 23.3132C99.319 23.3132 99.3852 23.2895 99.4381 23.2462C99.4961 23.2022 99.5241 23.1332 99.5241 23.0432V22.8872ZM97.2031 25.6132H95.9041V25.2562C95.9041 25.0832 95.9661 24.9372 96.0891 24.8212C96.1466 24.7646 96.2148 24.7199 96.2896 24.6897C96.3644 24.6595 96.4444 24.6444 96.5251 24.6452H96.5971C96.7571 24.6452 96.8961 24.7052 97.0191 24.8212C97.0792 24.8776 97.1267 24.946 97.1584 25.022C97.1901 25.098 97.2053 25.1799 97.2031 25.2622V25.6132ZM97.7491 25.2572C97.7511 25.1041 97.7223 24.9522 97.6644 24.8105C97.6065 24.6688 97.5207 24.5401 97.4121 24.4322C97.3054 24.3277 97.1789 24.2454 97.0401 24.1902C96.8969 24.1334 96.7442 24.1042 96.5901 24.1042H96.5171C96.2103 24.1036 95.9157 24.2239 95.6971 24.4392C95.5891 24.5449 95.5034 24.6713 95.4452 24.8108C95.3869 24.9503 95.3573 25.1001 95.3581 25.2512V26.4742C95.3557 26.7007 95.4224 26.9224 95.5492 27.11C95.6761 27.2976 95.8571 27.4421 96.0681 27.5242C96.2101 27.5842 96.3591 27.6142 96.5181 27.6142H96.5901C96.8129 27.6194 97.0322 27.5577 97.2195 27.437C97.4069 27.3164 97.5538 27.1422 97.6411 26.9372C97.6621 26.9008 97.6725 26.8592 97.6711 26.8172C97.672 26.7796 97.6648 26.7423 97.65 26.7078C97.6351 26.6733 97.613 26.6424 97.5851 26.6172C97.5329 26.567 97.4635 26.5388 97.3911 26.5382C97.3423 26.5384 97.2945 26.5523 97.2531 26.5782C97.2055 26.6098 97.1697 26.6562 97.1511 26.7102C97.1016 26.8111 97.029 26.8988 96.9391 26.9662C96.838 27.0398 96.7151 27.0774 96.5901 27.0732H96.5171C96.437 27.0743 96.3576 27.0592 96.2835 27.0288C96.2094 26.9984 96.1423 26.9533 96.0861 26.8962C96.0285 26.8419 95.9827 26.7763 95.9516 26.7036C95.9204 26.6308 95.9046 26.5524 95.9051 26.4732V26.1122H97.4771C97.5134 26.1126 97.5493 26.1056 97.5827 26.0915C97.6161 26.0774 97.6462 26.0565 97.6711 26.0302C97.6962 26.0056 97.716 25.9761 97.7294 25.9437C97.7428 25.9112 97.7495 25.8763 97.7491 25.8412V25.2572ZM93.6261 26.4692C93.6261 26.6352 93.5661 26.7782 93.4461 26.8962C93.3884 26.9537 93.3197 26.9991 93.2441 27.0295C93.1685 27.0599 93.0876 27.0748 93.0061 27.0732H92.9421C92.7861 27.076 92.6342 27.0228 92.5141 26.9232C92.4533 26.874 92.4048 26.8111 92.3727 26.7397C92.3406 26.6684 92.3256 26.5904 92.3291 26.5122V25.1922C92.3291 25.0262 92.3911 24.8932 92.5141 24.7952C92.6351 24.6952 92.7781 24.6452 92.9421 24.6452H93.0071C93.1801 24.6452 93.3261 24.7052 93.4471 24.8232C93.5671 24.9412 93.6271 25.0832 93.6271 25.2492L93.6261 26.4692ZM94.1741 25.2512C94.1749 25.1001 94.1453 24.9503 94.0871 24.8108C94.0288 24.6713 93.9432 24.5449 93.8351 24.4392C93.7262 24.3312 93.5969 24.246 93.4548 24.1885C93.3126 24.131 93.1605 24.1023 93.0071 24.1042H92.9571C92.8311 24.1042 92.7111 24.1242 92.5971 24.1642C92.4935 24.197 92.4008 24.2575 92.3291 24.3392V22.8872C92.3291 22.7972 92.3011 22.7302 92.2431 22.6842C92.19 22.6409 92.1237 22.6169 92.0551 22.6162C91.987 22.6174 91.9211 22.6413 91.8681 22.6842C91.8111 22.7302 91.7811 22.7972 91.7811 22.8872V27.3652C91.7811 27.4502 91.8111 27.5132 91.8681 27.5542C91.9202 27.5917 91.9824 27.6127 92.0466 27.6145C92.1108 27.6162 92.174 27.5987 92.2281 27.5642C92.255 27.5465 92.2776 27.5229 92.294 27.4951C92.3105 27.4674 92.3204 27.4363 92.3231 27.4042C92.3741 27.4572 92.4531 27.5062 92.5571 27.5492C92.6601 27.5912 92.7871 27.6142 92.9421 27.6142H93.0071C93.3136 27.6141 93.6081 27.4955 93.8291 27.2832C93.9341 27.1812 94.0191 27.0612 94.0811 26.9232C94.1436 26.7818 94.1753 26.6288 94.1741 26.4742V25.2512ZM90.6071 24.4532C90.5251 24.3323 90.4083 24.2392 90.2721 24.1862C90.141 24.1328 90.0008 24.1049 89.8591 24.1042C89.7621 24.1042 89.6831 24.1112 89.6211 24.1252C89.5665 24.1375 89.513 24.1542 89.4611 24.1752C89.4161 24.1909 89.3746 24.2154 89.3391 24.2472C89.3202 24.1997 89.2846 24.1606 89.2391 24.1372C89.1963 24.1156 89.1491 24.1043 89.1011 24.1042C89.0318 24.1058 88.9649 24.1304 88.9111 24.1742C88.8814 24.1981 88.8578 24.2287 88.8422 24.2634C88.8265 24.2982 88.8193 24.3361 88.8211 24.3742V27.3352C88.8211 27.4302 88.8491 27.5012 88.9071 27.5452C88.9651 27.5912 89.0271 27.6152 89.0951 27.6152C89.1611 27.6152 89.2251 27.5912 89.2821 27.5452C89.3391 27.5012 89.3691 27.4302 89.3691 27.3352V25.1232C89.3691 25.0652 89.3741 25.0082 89.3821 24.9512C89.3918 24.8959 89.4141 24.8436 89.4471 24.7982C89.4856 24.7505 89.535 24.7128 89.5911 24.6882C89.6743 24.6563 89.7631 24.6417 89.8521 24.6452C89.9265 24.6417 90.0002 24.6602 90.0641 24.6982C90.1141 24.7342 90.1541 24.7672 90.1821 24.7952C90.2108 24.8264 90.2456 24.8513 90.2843 24.8685C90.323 24.8857 90.3648 24.8948 90.4071 24.8952C90.4763 24.8957 90.5431 24.87 90.5941 24.8232C90.6198 24.8001 90.6401 24.7717 90.6536 24.7399C90.667 24.7081 90.6734 24.6737 90.6721 24.6392C90.6694 24.5723 90.6462 24.5076 90.6071 24.4532ZM86.7651 26.4682C86.7651 26.6382 86.7041 26.7832 86.5811 26.8982C86.5238 26.9547 86.4558 26.9992 86.3811 27.0293C86.3065 27.0593 86.2266 27.0742 86.1461 27.0732H86.0811C85.9222 27.0803 85.7657 27.0323 85.6381 26.9372C85.583 26.8945 85.5388 26.8394 85.5093 26.7762C85.4797 26.7131 85.4656 26.6439 85.4681 26.5742V26.5172C85.4681 26.3942 85.5101 26.2992 85.5941 26.2332C85.6896 26.1606 85.7983 26.1073 85.9141 26.0762C86.0441 26.0382 86.1861 26.0082 86.3371 25.9872C86.4811 25.967 86.6239 25.9396 86.7651 25.9052V26.4682ZM87.6771 27.1832C87.6421 27.1332 87.5821 27.1012 87.5011 27.0862C87.3761 27.0632 87.3131 26.9842 87.3131 26.8522V25.2022C87.3131 25.0492 87.2851 24.9062 87.2271 24.7732C87.1709 24.6427 87.0901 24.5242 86.9891 24.4242C86.8853 24.3235 86.7631 24.2437 86.6291 24.1892C86.4869 24.1325 86.3352 24.1036 86.1821 24.1042H86.1311C86.0341 24.1042 85.9361 24.1162 85.8351 24.1372C85.7351 24.1582 85.6361 24.1932 85.5401 24.2442C85.3244 24.358 85.1545 24.5427 85.0591 24.7672C85.0376 24.8063 85.0272 24.8506 85.0291 24.8952C85.0291 24.9702 85.0591 25.0312 85.1151 25.0752C85.1599 25.1122 85.2145 25.1354 85.2722 25.1418C85.33 25.1482 85.3883 25.1375 85.4401 25.1112C85.4865 25.0865 85.5242 25.0481 85.5481 25.0012C85.6034 24.8958 85.6821 24.8045 85.7781 24.7342C85.8841 24.6697 86.0072 24.6386 86.1311 24.6452H86.1821C86.3401 24.6452 86.4761 24.6882 86.5921 24.7732C86.7071 24.8592 86.7651 25.0082 86.7651 25.2212L86.7621 25.2872C86.7612 25.3073 86.7546 25.3267 86.7431 25.3432C86.7151 25.3802 86.6491 25.4102 86.5461 25.4312C86.4431 25.4522 86.3231 25.4752 86.1891 25.5002C86.0463 25.5253 85.9045 25.556 85.7641 25.5922C85.6141 25.6302 85.4781 25.6852 85.3521 25.7592C85.2284 25.8319 85.1227 25.9318 85.0431 26.0512C84.9567 26.1887 84.9139 26.349 84.9201 26.5112V26.5962C84.9201 26.7612 84.9541 26.9092 85.0221 27.0362C85.0856 27.1604 85.1749 27.2695 85.2841 27.3562C85.3921 27.4422 85.5161 27.5072 85.6561 27.5502C85.7961 27.5932 85.9361 27.6142 86.0811 27.6142H86.1461C86.4481 27.6142 86.7071 27.5212 86.9241 27.3352C86.9731 27.4032 87.0341 27.4602 87.1121 27.5072C87.1891 27.5552 87.2901 27.5872 87.4141 27.6062C87.4191 27.6112 87.4361 27.6142 87.4641 27.6142C87.5511 27.6142 87.6171 27.5862 87.6621 27.5322C87.7079 27.4799 87.7328 27.4127 87.7321 27.3432C87.7315 27.2854 87.7122 27.2292 87.6771 27.1832ZM83.7941 25.2512C83.7941 25.0552 83.7641 24.8872 83.7011 24.7422C83.6445 24.6052 83.5585 24.4823 83.4491 24.3822C83.3426 24.2876 83.2177 24.2161 83.0821 24.1722C82.9398 24.127 82.7914 24.1041 82.6421 24.1042H82.5771C82.4531 24.1042 82.3351 24.1242 82.2241 24.1622C82.1141 24.1992 82.0241 24.2522 81.9581 24.3172C81.9529 24.2853 81.9412 24.2547 81.9239 24.2274C81.9065 24.2001 81.8838 24.1765 81.8571 24.1582C81.8023 24.12 81.7365 24.1009 81.6697 24.104C81.603 24.1071 81.5391 24.1321 81.4881 24.1752C81.4596 24.1999 81.4371 24.2307 81.4222 24.2654C81.4073 24.3 81.4005 24.3375 81.4021 24.3752V27.3502C81.4021 27.4402 81.4321 27.5072 81.4881 27.5502C81.542 27.5913 81.6079 27.6136 81.6756 27.6136C81.7434 27.6136 81.8093 27.5913 81.8631 27.5502C81.9211 27.5072 81.9501 27.4402 81.9501 27.3502V25.2502C81.9501 25.0802 82.0111 24.9362 82.1321 24.8202C82.1895 24.7638 82.2575 24.7193 82.3321 24.6892C82.4068 24.6592 82.4867 24.6442 82.5671 24.6452H82.6311C82.7124 24.6437 82.7931 24.6587 82.8684 24.6893C82.9437 24.7198 83.012 24.7654 83.0691 24.8232C83.126 24.8789 83.171 24.9456 83.2014 25.0191C83.2318 25.0927 83.247 25.1716 83.2461 25.2512V27.3512C83.2461 27.4412 83.2761 27.5082 83.3351 27.5512C83.39 27.5921 83.4567 27.6142 83.5251 27.6142C83.5926 27.6144 83.6581 27.5918 83.7111 27.5502C83.7661 27.5072 83.7951 27.4402 83.7951 27.3502V25.2502L83.7941 25.2512ZM79.6681 25.6132H78.3711V25.2562C78.3718 25.1754 78.3883 25.0956 78.4198 25.0212C78.4514 24.9469 78.4972 24.8794 78.5548 24.8228C78.6124 24.7662 78.6805 24.7214 78.7554 24.6911C78.8303 24.6608 78.9104 24.6456 78.9911 24.6462H79.0621C79.2221 24.6462 79.3611 24.7042 79.4841 24.8212C79.5442 24.8776 79.5917 24.946 79.6234 25.022C79.6551 25.098 79.6703 25.1799 79.6681 25.2622V25.6132ZM80.2161 25.2572C80.2166 25.1042 80.1869 24.9525 80.1287 24.811C80.0705 24.6694 79.985 24.5407 79.8771 24.4322C79.7707 24.3273 79.6441 24.245 79.5051 24.1902C79.3619 24.1333 79.2092 24.1042 79.0551 24.1042H78.9821C78.6753 24.1036 78.3807 24.2239 78.1621 24.4392C78.0541 24.5449 77.9684 24.6713 77.9102 24.8108C77.8519 24.9503 77.8223 25.1001 77.8231 25.2512V26.4742C77.8207 26.7007 77.8874 26.9224 78.0142 27.11C78.1411 27.2976 78.3221 27.4421 78.5331 27.5242C78.6751 27.5842 78.8251 27.6142 78.9831 27.6142H79.0551C79.2779 27.6194 79.4972 27.5577 79.6845 27.437C79.8719 27.3164 80.0188 27.1422 80.1061 26.9372C80.1271 26.9008 80.1375 26.8592 80.1361 26.8172C80.137 26.7796 80.1298 26.7423 80.115 26.7078C80.1001 26.6733 80.078 26.6424 80.0501 26.6172C79.9979 26.567 79.9285 26.5388 79.8561 26.5382C79.8073 26.5384 79.7595 26.5523 79.7181 26.5782C79.671 26.6101 79.6356 26.6564 79.6171 26.7102C79.5679 26.8116 79.4949 26.8994 79.4041 26.9662C79.303 27.0398 79.1801 27.0774 79.0551 27.0732H78.9821C78.9021 27.0743 78.8226 27.0592 78.7485 27.0288C78.6744 26.9984 78.6073 26.9533 78.5511 26.8962C78.4936 26.8419 78.4479 26.7763 78.4169 26.7035C78.3859 26.6307 78.3704 26.5523 78.3711 26.4732V26.1122H79.9421C79.9784 26.1126 80.0143 26.1056 80.0477 26.0915C80.0811 26.0774 80.1112 26.0565 80.1361 26.0302C80.1614 26.0057 80.1816 25.9763 80.1953 25.9438C80.2091 25.9114 80.2161 25.8765 80.2161 25.8412V25.2572ZM76.6161 25.2422C76.6161 25.0492 76.5851 24.8782 76.5231 24.7342C76.4671 24.5996 76.3817 24.4793 76.2732 24.3819C76.1648 24.2845 76.0359 24.2125 75.8961 24.1712C75.7541 24.1263 75.606 24.1037 75.4571 24.1042H75.3921C75.2101 24.1042 75.0421 24.1422 74.8911 24.2142C74.742 24.2863 74.6083 24.3865 74.4971 24.5092C74.3873 24.3862 74.2545 24.286 74.1061 24.2142C73.9492 24.1402 73.7776 24.1026 73.6041 24.1042H73.5391C73.4151 24.1042 73.2971 24.1242 73.1871 24.1622C73.0876 24.1931 72.9963 24.246 72.9201 24.3172C72.9149 24.2853 72.9032 24.2547 72.8859 24.2274C72.8685 24.2001 72.8458 24.1765 72.8191 24.1582C72.766 24.12 72.7015 24.1009 72.6362 24.104C72.5708 24.1071 72.5084 24.1322 72.4591 24.1752C72.4301 24.1995 72.4071 24.2302 72.392 24.2649C72.3769 24.2997 72.3701 24.3374 72.3721 24.3752V27.3502C72.3721 27.4402 72.4001 27.5072 72.4581 27.5502C72.5121 27.5914 72.5782 27.6137 72.6461 27.6137C72.7141 27.6137 72.7801 27.5914 72.8341 27.5502C72.8921 27.5072 72.9201 27.4402 72.9201 27.3502V25.1932C72.9201 25.0282 72.9811 24.8952 73.1081 24.7952C73.2298 24.6963 73.3823 24.6432 73.5391 24.6452H73.6041C73.7771 24.6452 73.9241 24.7032 74.0441 24.8162C74.1641 24.9312 74.2241 25.0762 74.2241 25.2572V27.3352C74.2241 27.4302 74.2541 27.5012 74.3111 27.5452C74.3634 27.5893 74.4297 27.6136 74.4981 27.6136C74.5666 27.6136 74.6328 27.5893 74.6851 27.5452C74.7431 27.5012 74.7711 27.4302 74.7711 27.3352V25.2572C74.7702 25.1758 74.7856 25.0951 74.8166 25.0198C74.8476 24.9445 74.8934 24.8762 74.9514 24.8191C75.0094 24.7619 75.0783 24.7171 75.154 24.6872C75.2298 24.6573 75.3107 24.6431 75.3921 24.6452H75.4571C75.6381 24.6452 75.7871 24.6952 75.8991 24.7952C76.0121 24.8952 76.0691 25.0442 76.0691 25.2422V27.3502C76.0691 27.4402 76.0991 27.5072 76.1561 27.5502C76.2095 27.5919 76.2754 27.6145 76.3431 27.6145C76.4109 27.6145 76.4767 27.5919 76.5301 27.5502C76.5881 27.5072 76.6161 27.4402 76.6161 27.3502V25.2422ZM71.0981 25.2422C71.0981 25.0492 71.0671 24.8782 71.0041 24.7342C70.9474 24.5974 70.8598 24.4755 70.7481 24.3782C70.6395 24.2857 70.5138 24.2153 70.3781 24.1712C70.2358 24.1263 70.0874 24.1037 69.9381 24.1042H69.8731C69.6901 24.1042 69.5241 24.1422 69.3711 24.2142C69.2227 24.286 69.0899 24.3862 68.9801 24.5092C68.8693 24.3861 68.7355 24.2859 68.5861 24.2142C68.4299 24.1402 68.259 24.1026 68.0861 24.1042H68.0211C67.8951 24.1042 67.7771 24.1242 67.6681 24.1622C67.5684 24.1933 67.4768 24.2462 67.4001 24.3172C67.3952 24.2853 67.3837 24.2547 67.3665 24.2274C67.3493 24.2 67.3268 24.1765 67.3001 24.1582C67.2519 24.1238 67.1944 24.1049 67.1351 24.1042C67.0639 24.1036 66.9948 24.1285 66.9401 24.1742C66.9113 24.1986 66.8885 24.2294 66.8736 24.2641C66.8587 24.2988 66.852 24.3365 66.8541 24.3742V27.3502C66.8541 27.4402 66.8821 27.5072 66.9401 27.5502C66.9935 27.5919 67.0594 27.6145 67.1271 27.6145C67.1949 27.6145 67.2607 27.5919 67.3141 27.5502C67.3721 27.5072 67.4001 27.4402 67.4001 27.3502V25.1932C67.4001 25.0282 67.4631 24.8952 67.5881 24.7952C67.7103 24.6959 67.8636 24.6428 68.0211 24.6452H68.0861C68.2591 24.6452 68.4051 24.7032 68.5251 24.8162C68.6451 24.9312 68.7051 25.0762 68.7051 25.2572V27.3352C68.7051 27.4302 68.7341 27.5012 68.7921 27.5452C68.8501 27.5912 68.9121 27.6152 68.9801 27.6152C69.0461 27.6152 69.1091 27.5912 69.1671 27.5452C69.2241 27.5012 69.2541 27.4302 69.2541 27.3352V25.2572C69.2541 25.0822 69.3141 24.9362 69.4331 24.8192C69.4912 24.7624 69.56 24.7177 69.6356 24.6878C69.7111 24.6579 69.7919 24.6434 69.8731 24.6452H69.9381C70.1201 24.6452 70.2681 24.6952 70.3811 24.7952C70.4941 24.8952 70.5511 25.0442 70.5511 25.2422V27.3502C70.5511 27.4402 70.5791 27.5072 70.6371 27.5502C70.691 27.5913 70.7569 27.6136 70.8246 27.6136C70.8924 27.6136 70.9583 27.5913 71.0121 27.5502C71.0701 27.5072 71.0981 27.4402 71.0981 27.3502V25.2422ZM64.7781 26.4682C64.7781 26.6382 64.7171 26.7832 64.5941 26.8982C64.5368 26.9547 64.4688 26.9992 64.3941 27.0293C64.3195 27.0593 64.2396 27.0742 64.1591 27.0732H64.0941C63.9352 27.0803 63.7787 27.0323 63.6511 26.9372C63.596 26.8945 63.5518 26.8394 63.5223 26.7762C63.4927 26.7131 63.4786 26.6439 63.4811 26.5742V26.5172C63.4811 26.3942 63.5231 26.2992 63.6081 26.2332C63.7034 26.1603 63.8122 26.1069 63.9281 26.0762C64.0581 26.0382 64.1981 26.0082 64.3501 25.9872C64.4941 25.967 64.6369 25.9396 64.7781 25.9052V26.4682ZM65.6901 27.1832C65.6463 27.1293 65.5832 27.0945 65.5141 27.0862C65.3881 27.0632 65.3261 26.9842 65.3261 26.8522V25.2022C65.3261 25.0492 65.2981 24.9062 65.2401 24.7732C65.1836 24.6431 65.1032 24.5247 65.0031 24.4242C64.8993 24.3235 64.7771 24.2437 64.6431 24.1892C64.5009 24.1325 64.3492 24.1037 64.1961 24.1042H64.1441C64.0481 24.1042 63.9501 24.1162 63.8491 24.1372C63.6347 24.1824 63.4383 24.2895 63.2841 24.4452C63.1942 24.539 63.1218 24.648 63.0701 24.7672C63.0497 24.8067 63.0397 24.8508 63.0411 24.8952C63.0411 24.9702 63.0701 25.0312 63.1281 25.0752C63.1729 25.1122 63.2275 25.1354 63.2852 25.1418C63.343 25.1482 63.4013 25.1375 63.4531 25.1112C63.4995 25.0865 63.5372 25.0481 63.5611 25.0012C63.6162 24.8954 63.6953 24.804 63.7921 24.7342C63.8978 24.6696 64.0205 24.6386 64.1441 24.6452H64.1961C64.3531 24.6452 64.4901 24.6882 64.6061 24.7732C64.7201 24.8592 64.7781 25.0082 64.7781 25.2212L64.7751 25.2872C64.7738 25.3071 64.7676 25.3263 64.7571 25.3432C64.7291 25.3802 64.6621 25.4102 64.5591 25.4312C64.4551 25.4522 64.3371 25.4752 64.2021 25.5002C64.0593 25.5252 63.9175 25.5559 63.7771 25.5922C63.6271 25.6302 63.4921 25.6852 63.3651 25.7592C63.2414 25.832 63.1357 25.9318 63.0561 26.0512C62.9701 26.1888 62.9276 26.3491 62.9341 26.5112V26.5962C62.9341 26.7612 62.9671 26.9092 63.0341 27.0362C63.0978 27.1605 63.1875 27.2696 63.2971 27.3562C63.4051 27.4422 63.5301 27.5072 63.6691 27.5502C63.8091 27.5932 63.9491 27.6142 64.0941 27.6142H64.1591C64.4611 27.6142 64.7201 27.5212 64.9381 27.3352C64.9876 27.4047 65.0509 27.4633 65.1241 27.5072C65.2021 27.5552 65.3021 27.5872 65.4281 27.6062C65.4331 27.6112 65.4491 27.6142 65.4781 27.6142C65.5641 27.6142 65.6301 27.5862 65.6751 27.5322C65.7209 27.4799 65.7458 27.4127 65.7451 27.3432C65.7446 27.2853 65.7253 27.2292 65.6901 27.1832ZM61.8881 26.5912C61.8881 26.3592 61.8391 26.1772 61.7461 26.0442C61.6569 25.9158 61.5387 25.8103 61.4011 25.7362C61.2588 25.6609 61.1067 25.6057 60.9491 25.5722C60.7871 25.5362 60.6371 25.5022 60.4991 25.4652C60.3776 25.4356 60.2613 25.3877 60.1541 25.3232C60.0591 25.2632 60.0131 25.1732 60.0131 25.0502V25.0302C60.0181 24.9242 60.0731 24.8342 60.1791 24.7592C60.2851 24.6832 60.4381 24.6452 60.6411 24.6452H60.6691C60.8311 24.6452 60.9591 24.6682 61.0511 24.7132C61.1411 24.7592 61.2271 24.8002 61.3031 24.8372C61.3611 24.8652 61.4131 24.8802 61.4611 24.8802C61.5391 24.8802 61.6011 24.8542 61.6481 24.8012C61.6947 24.7541 61.7209 24.6905 61.7211 24.6242C61.7221 24.5838 61.7135 24.5438 61.6961 24.5073C61.6788 24.4708 61.6531 24.4389 61.6211 24.4142C61.5232 24.3324 61.4119 24.2681 61.2921 24.2242C61.2032 24.1897 61.112 24.1617 61.0191 24.1402C60.9062 24.1149 60.7908 24.1029 60.6751 24.1042H60.6471C60.5331 24.1042 60.4071 24.1212 60.2691 24.1502C60.1345 24.1808 60.0056 24.2324 59.8871 24.3032C59.769 24.375 59.6669 24.4703 59.5871 24.5832C59.5025 24.7103 59.4598 24.8606 59.4651 25.0132C59.4651 25.2362 59.5111 25.4082 59.6061 25.5282C59.6991 25.6492 59.8161 25.7432 59.9511 25.8082C60.0891 25.8762 60.2391 25.9232 60.4011 25.9542C60.5661 25.9852 60.7151 26.0212 60.8531 26.0642C60.9891 26.1072 61.1051 26.1642 61.1981 26.2382C61.2911 26.3122 61.3401 26.4232 61.3401 26.5762V26.5972C61.3341 26.7152 61.2731 26.8242 61.1551 26.9242C61.0371 27.0222 60.8681 27.0732 60.6471 27.0732H60.6111C60.4641 27.0688 60.3216 27.0216 60.2011 26.9372C60.0689 26.8537 59.9519 26.7481 59.8551 26.6252C59.8267 26.5823 59.7864 26.5486 59.7391 26.5282C59.6976 26.5123 59.6536 26.5041 59.6091 26.5042C59.5382 26.5037 59.4694 26.5285 59.4151 26.5742C59.3868 26.5973 59.3643 26.6267 59.3493 26.66C59.3344 26.6933 59.3275 26.7297 59.3291 26.7662C59.3291 26.7862 59.3401 26.8302 59.3641 26.9022C59.4221 27.0112 59.4961 27.1112 59.5881 27.1992C59.6791 27.2882 59.7801 27.3632 59.8901 27.4222C60.0011 27.4822 60.1171 27.5292 60.2401 27.5632C60.3631 27.5962 60.4811 27.6142 60.5971 27.6142H60.6411C60.7881 27.6142 60.9381 27.5932 61.0871 27.5502C61.2351 27.5072 61.3691 27.4452 61.4911 27.3622C61.6084 27.2816 61.7064 27.1761 61.7781 27.0532C61.8537 26.9213 61.8918 26.7712 61.8881 26.6192V26.5912ZM58.1961 24.3752C58.1961 24.2852 58.1661 24.2172 58.1081 24.1712C58.0556 24.1284 57.9899 24.1047 57.9221 24.1042C57.854 24.1048 57.7881 24.1284 57.7351 24.1712C57.6761 24.2172 57.6481 24.2852 57.6481 24.3752V26.4692C57.6491 26.5489 57.6336 26.628 57.6026 26.7015C57.5717 26.7749 57.5259 26.8412 57.4681 26.8962C57.4106 26.954 57.342 26.9995 57.2663 27.0299C57.1907 27.0604 57.1096 27.0751 57.0281 27.0732H56.9621C56.8821 27.0743 56.8026 27.0592 56.7285 27.0287C56.6545 26.9983 56.5873 26.9532 56.5311 26.8962C56.4733 26.8413 56.4275 26.775 56.3965 26.7015C56.3656 26.628 56.3501 26.5489 56.3511 26.4692V24.3752C56.3511 24.2852 56.3211 24.2172 56.2631 24.1712C56.2106 24.1284 56.1449 24.1047 56.0771 24.1042C56.009 24.1048 55.9431 24.1284 55.8901 24.1712C55.8321 24.2172 55.8031 24.2852 55.8031 24.3752V26.4752C55.8031 26.6752 55.8331 26.8452 55.8961 26.9882C55.9591 27.1302 56.0421 27.2472 56.1491 27.3402C56.2551 27.4322 56.3781 27.5012 56.5191 27.5452C56.6621 27.5912 56.8091 27.6152 56.9631 27.6152H57.0271C57.1531 27.6152 57.2711 27.5962 57.3811 27.5602C57.4812 27.53 57.5727 27.4766 57.6481 27.4042C57.6527 27.4364 57.664 27.4672 57.6812 27.4948C57.6984 27.5223 57.7212 27.546 57.7481 27.5642C57.8011 27.5962 57.8591 27.6142 57.9221 27.6142C57.9903 27.6138 58.0562 27.5894 58.1081 27.5452C58.1374 27.5222 58.1606 27.4924 58.1759 27.4585C58.1913 27.4245 58.1982 27.3874 58.1961 27.3502V24.3752ZM54.6641 27.1222C54.6201 27.0662 54.5501 27.0372 54.4581 27.0372H52.6441L54.6891 23.1572C54.7216 23.1008 54.7395 23.0372 54.7411 22.9722C54.7414 22.9308 54.7331 22.8898 54.7167 22.8518C54.7004 22.8137 54.6764 22.7795 54.6461 22.7512C54.6148 22.7207 54.5777 22.6969 54.537 22.6811C54.4963 22.6653 54.4528 22.6578 54.4091 22.6592H52.3481C52.2521 22.6592 52.1821 22.6872 52.1381 22.7442C52.0965 22.7971 52.0739 22.8624 52.0739 22.9297C52.0739 22.997 52.0965 23.0623 52.1381 23.1152C52.1821 23.1712 52.2521 23.2002 52.3481 23.2002H54.0551L52.0151 27.0662C51.9808 27.1306 51.9663 27.2037 51.9735 27.2763C51.9806 27.3489 52.009 27.4177 52.0551 27.4742C52.0833 27.5089 52.1192 27.5365 52.1601 27.5545C52.201 27.5726 52.2455 27.5807 52.2901 27.5782H54.4581C54.5501 27.5782 54.6201 27.5502 54.6641 27.4932C54.7076 27.4409 54.7317 27.3752 54.7321 27.3072C54.7312 27.2396 54.7072 27.1743 54.6641 27.1222ZM105.085 17.8332H103.788V17.4742C103.788 17.3022 103.849 17.1572 103.972 17.0412C104.03 16.9848 104.097 16.9403 104.172 16.9102C104.247 16.8802 104.327 16.8652 104.407 16.8662H104.478C104.638 16.8662 104.777 16.9242 104.902 17.0412C104.962 17.0979 105.009 17.1664 105.04 17.2423C105.072 17.3183 105.087 17.4 105.085 17.4822V17.8332ZM105.632 17.4772C105.632 17.3122 105.603 17.1592 105.541 17.0182C105.484 16.8808 105.399 16.7562 105.293 16.6517C105.187 16.5471 105.061 16.4647 104.923 16.4092C104.78 16.3519 104.627 16.323 104.472 16.3242H104.4C104.173 16.3228 103.95 16.3884 103.759 16.5129C103.569 16.6374 103.419 16.8152 103.329 17.0242C103.27 17.1657 103.239 17.3177 103.24 17.4712V18.6942C103.238 18.845 103.267 18.9946 103.325 19.1338C103.383 19.2729 103.469 19.3987 103.578 19.5032C103.685 19.6052 103.808 19.6852 103.95 19.7462C104.092 19.8052 104.241 19.8342 104.4 19.8342H104.472C104.695 19.8392 104.915 19.7774 105.102 19.6567C105.29 19.5361 105.437 19.3622 105.525 19.1572C105.545 19.1203 105.554 19.0789 105.553 19.0372C105.554 18.9995 105.547 18.962 105.532 18.9274C105.517 18.8927 105.495 18.8619 105.466 18.8372C105.414 18.7869 105.345 18.7586 105.272 18.7582C105.223 18.7585 105.176 18.7723 105.134 18.7982C105.087 18.83 105.052 18.8769 105.035 18.9312C104.984 19.0316 104.91 19.1188 104.82 19.1862C104.719 19.2596 104.597 19.2973 104.472 19.2932H104.4C104.32 19.2942 104.24 19.2791 104.166 19.2486C104.091 19.2182 104.024 19.1732 103.967 19.1162C103.91 19.0619 103.864 18.9963 103.833 18.9235C103.802 18.8507 103.787 18.7723 103.788 18.6932V18.3322H105.358C105.395 18.3328 105.431 18.3258 105.464 18.3117C105.498 18.2976 105.528 18.2766 105.553 18.2502C105.578 18.2256 105.598 18.1962 105.612 18.1637C105.625 18.1313 105.632 18.0964 105.632 18.0612V17.4772ZM102.18 19.3802C102.137 19.3232 102.067 19.2932 101.973 19.2932C101.867 19.2901 101.766 19.2469 101.69 19.1722C101.653 19.1362 101.624 19.093 101.604 19.0451C101.584 18.9973 101.575 18.9459 101.576 18.8942V15.1072C101.576 15.0172 101.548 14.9502 101.49 14.9042C101.437 14.8615 101.371 14.8379 101.302 14.8372C101.234 14.8379 101.168 14.8615 101.114 14.9042C101.056 14.9502 101.028 15.0172 101.028 15.1072V18.9012C101.028 19.0292 101.051 19.1512 101.099 19.2652C101.195 19.491 101.377 19.6697 101.604 19.7622C101.721 19.8103 101.847 19.8347 101.973 19.8342C102.067 19.8342 102.137 19.8062 102.18 19.7512C102.223 19.6988 102.246 19.6333 102.246 19.5657C102.246 19.4981 102.223 19.4326 102.18 19.3802ZM98.9701 18.6882C98.9701 18.8582 98.9101 19.0032 98.7861 19.1192C98.6698 19.2324 98.5134 19.295 98.3511 19.2932H98.2861C98.1272 19.3003 97.9707 19.2523 97.8431 19.1572C97.788 19.1145 97.7438 19.0594 97.7143 18.9962C97.6847 18.9331 97.6706 18.8639 97.6731 18.7942V18.7372C97.6731 18.6142 97.7151 18.5192 97.8001 18.4532C97.8954 18.3803 98.0042 18.3269 98.1201 18.2962C98.2501 18.2582 98.3911 18.2292 98.5421 18.2072C98.6861 18.1869 98.8289 18.1595 98.9701 18.1252V18.6882ZM99.8821 19.4032C99.8605 19.3765 99.8338 19.3544 99.8036 19.3381C99.7734 19.3218 99.7403 19.3116 99.7061 19.3082C99.5801 19.2832 99.5181 19.2042 99.5181 19.0722V17.4202C99.5188 17.2026 99.4538 16.9899 99.3318 16.8098C99.2098 16.6296 99.0364 16.4904 98.8341 16.4102C98.6925 16.3525 98.541 16.3233 98.3881 16.3242H98.3361C98.2401 16.3242 98.1421 16.3342 98.0411 16.3552C97.8259 16.4009 97.6287 16.5087 97.4741 16.6652C97.3851 16.7593 97.3133 16.8683 97.2621 16.9872C97.242 17.0268 97.2324 17.0709 97.2341 17.1152C97.2341 17.1902 97.2621 17.2512 97.3201 17.2952C97.3646 17.3325 97.419 17.3558 97.4767 17.3622C97.5343 17.3686 97.5926 17.3578 97.6441 17.3312C97.6915 17.3071 97.73 17.2686 97.7541 17.2212C97.8083 17.1157 97.8864 17.0243 97.9821 16.9542C98.0886 16.8899 98.212 16.8593 98.3361 16.8662H98.3881C98.5451 16.8662 98.6821 16.9082 98.7981 16.9932C98.9121 17.0792 98.9701 17.2282 98.9701 17.4412L98.9671 17.5052C98.9658 17.5257 98.9596 17.5456 98.9491 17.5632C98.9211 17.6002 98.8541 17.6302 98.7511 17.6512C98.6471 17.6722 98.5291 17.6952 98.3941 17.7202C98.2513 17.7452 98.1095 17.7759 97.9691 17.8122C97.8191 17.8502 97.6841 17.9052 97.5581 17.9792C97.434 18.0518 97.328 18.1517 97.2481 18.2712C97.1621 18.4088 97.1196 18.5691 97.1261 18.7312V18.8162C97.1261 18.9812 97.1591 19.1292 97.2271 19.2562C97.2909 19.3807 97.3802 19.4904 97.4891 19.5782C97.5971 19.6642 97.7221 19.7282 97.8611 19.7702C98.0011 19.8132 98.1421 19.8342 98.2861 19.8342H98.3511C98.6531 19.8342 98.9121 19.7412 99.1301 19.5572C99.1761 19.6232 99.2401 19.6802 99.3161 19.7272C99.3941 19.7752 99.4941 19.8082 99.6201 19.8262C99.6231 19.8312 99.6411 19.8342 99.6701 19.8342C99.7561 19.8342 99.8221 19.8062 99.8671 19.7522C99.9126 19.7002 99.9375 19.6333 99.9371 19.5642C99.9367 19.506 99.9174 19.4495 99.8821 19.4032ZM96.0001 17.4702C96.0001 17.2752 95.9681 17.1062 95.9071 16.9602C95.8496 16.8237 95.7637 16.701 95.6551 16.6002C95.5479 16.5051 95.4218 16.4335 95.2851 16.3902C95.1435 16.3453 94.9957 16.3227 94.8471 16.3232H94.7831C94.6571 16.3232 94.5401 16.3432 94.4291 16.3812C94.3297 16.4128 94.2385 16.4661 94.1621 16.5372C94.157 16.5051 94.1456 16.4743 94.1284 16.4466C94.1112 16.419 94.0887 16.395 94.0621 16.3762C94.0109 16.342 93.9507 16.3235 93.8891 16.3232C93.8179 16.3226 93.7487 16.3475 93.6941 16.3932C93.6654 16.4178 93.6426 16.4485 93.6276 16.4832C93.6125 16.5178 93.6055 16.5555 93.6071 16.5932V19.5692C93.6071 19.6592 93.6371 19.7272 93.6941 19.7692C93.748 19.8102 93.8139 19.8323 93.8816 19.8323C93.9493 19.8323 94.0152 19.8102 94.0691 19.7692C94.1271 19.7272 94.1551 19.6592 94.1551 19.5692V17.4692C94.1551 17.2982 94.2161 17.1552 94.3381 17.0392C94.3953 16.9832 94.463 16.9389 94.5373 16.9091C94.6116 16.8792 94.6911 16.8643 94.7711 16.8652H94.8361C95.0091 16.8652 95.1531 16.9232 95.2731 17.0422C95.3931 17.1622 95.4521 17.3022 95.4521 17.4702V19.5702C95.4521 19.6602 95.4821 19.7272 95.5401 19.7702C95.5945 19.811 95.6606 19.8331 95.7286 19.8331C95.7966 19.8331 95.8628 19.811 95.9171 19.7702C95.9721 19.7272 96.0001 19.6602 96.0001 19.5702V17.4702ZM91.8091 18.6882C91.8091 18.8542 91.7491 18.9972 91.6291 19.1152C91.5725 19.1722 91.505 19.2172 91.4306 19.2476C91.3562 19.2781 91.2765 19.2932 91.1961 19.2922H91.1311C91.0496 19.2938 90.9687 19.279 90.8931 19.2485C90.8175 19.2181 90.7488 19.1728 90.6911 19.1152C90.6335 19.0602 90.5878 18.9939 90.557 18.9204C90.5262 18.8469 90.5109 18.7679 90.5121 18.6882V17.4682C90.5121 17.3022 90.5721 17.1602 90.6921 17.0422C90.7487 16.9851 90.8162 16.94 90.8906 16.9095C90.965 16.8791 91.0447 16.864 91.1251 16.8652H91.1961C91.2765 16.8642 91.3562 16.8794 91.4306 16.9098C91.505 16.9402 91.5725 16.9852 91.6291 17.0422C91.7491 17.1602 91.8091 17.3022 91.8091 17.4682V18.6882ZM92.3571 17.4702C92.3579 17.3191 92.3283 17.1693 92.2701 17.0298C92.2118 16.8903 92.1262 16.7639 92.0181 16.6582C91.91 16.5508 91.7817 16.4659 91.6406 16.4084C91.4996 16.3509 91.3485 16.322 91.1961 16.3232H91.1251C90.9728 16.322 90.8217 16.3509 90.6806 16.4084C90.5395 16.4659 90.4112 16.5508 90.3031 16.6582C90.1956 16.7643 90.1103 16.8908 90.0521 17.0302C89.9939 17.1696 89.964 17.3192 89.9641 17.4702V18.6932C89.963 18.844 89.9925 18.9934 90.0507 19.1324C90.109 19.2715 90.1949 19.3973 90.3031 19.5022C90.4091 19.6042 90.5321 19.6842 90.6751 19.7452C90.8151 19.8042 90.9651 19.8332 91.1251 19.8332H91.1961C91.3561 19.8332 91.5051 19.8032 91.6461 19.7452C91.9238 19.6334 92.1467 19.4173 92.2671 19.1432C92.3271 19.0052 92.3571 18.8562 92.3571 18.6932V17.4702ZM88.6741 16.5942C88.6741 16.5042 88.6461 16.4362 88.5871 16.3912C88.5343 16.3481 88.4683 16.3241 88.4001 16.3232C88.3316 16.3242 88.2654 16.3481 88.2121 16.3912C88.1561 16.4362 88.1261 16.5042 88.1261 16.5942V19.5692C88.1261 19.6592 88.1561 19.7272 88.2121 19.7692C88.266 19.8103 88.3319 19.8326 88.3996 19.8326C88.4674 19.8326 88.5333 19.8103 88.5871 19.7692C88.6461 19.7272 88.6741 19.6592 88.6741 19.5692V16.5942ZM88.6741 15.1062C88.6741 15.0162 88.6461 14.9492 88.5871 14.9032C88.5341 14.8605 88.4682 14.8369 88.4001 14.8362C88.3317 14.8369 88.2655 14.8605 88.2121 14.9032C88.1561 14.9492 88.1261 15.0162 88.1261 15.1062V15.2622C88.1261 15.3522 88.1561 15.4222 88.2121 15.4652C88.2654 15.5083 88.3316 15.5322 88.4001 15.5332C88.4681 15.5332 88.5301 15.5102 88.5871 15.4652C88.6461 15.4212 88.6741 15.3522 88.6741 15.2622V15.1062ZM86.9001 19.3862C86.8591 19.3332 86.7961 19.3022 86.7101 19.2922C86.6027 19.2836 86.5005 19.2424 86.4171 19.1742C86.3753 19.1395 86.3421 19.0954 86.3202 19.0456C86.2983 18.9958 86.2884 18.9416 86.2911 18.8872V16.8862H86.6811C86.7721 16.8862 86.8411 16.8562 86.8851 16.8012C86.9296 16.7494 86.9544 16.6835 86.9551 16.6152C86.9545 16.5472 86.9296 16.4816 86.8851 16.4302C86.8411 16.3722 86.7721 16.3452 86.6811 16.3452H86.2911V15.1062C86.2911 15.0162 86.2631 14.9492 86.2051 14.9032C86.152 14.86 86.0856 14.8364 86.0171 14.8362C85.9493 14.8367 85.8837 14.8604 85.8311 14.9032C85.7731 14.9492 85.7451 15.0162 85.7451 15.1062V16.3452H85.4921C85.4011 16.3452 85.3321 16.3722 85.2861 16.4302C85.2421 16.4818 85.2179 16.5474 85.2179 16.6152C85.2179 16.683 85.2421 16.7486 85.2861 16.8002C85.3311 16.8562 85.4011 16.8862 85.4921 16.8862H85.7451V18.9002C85.7444 19.0232 85.768 19.1452 85.8147 19.259C85.8614 19.3728 85.9302 19.4762 86.0171 19.5632C86.1962 19.7379 86.4369 19.8349 86.6871 19.8332C86.7841 19.8332 86.8541 19.8052 86.8971 19.7502C86.9386 19.6988 86.9615 19.6348 86.962 19.5687C86.9625 19.5027 86.9407 19.4383 86.9001 19.3862ZM83.5481 18.6862C83.5481 18.8572 83.4861 19.0022 83.3641 19.1182C83.2471 19.2315 83.09 19.2941 82.9271 19.2922H82.8641C82.7048 19.2995 82.548 19.2515 82.4201 19.1562C82.3652 19.1134 82.3212 19.0582 82.2918 18.9951C82.2624 18.932 82.2485 18.8628 82.2511 18.7932V18.7362C82.2511 18.6132 82.2921 18.5182 82.3771 18.4522C82.4724 18.3793 82.5811 18.3259 82.6971 18.2952C82.8271 18.2572 82.9671 18.2282 83.1191 18.2062C83.2634 18.1859 83.4066 18.1586 83.5481 18.1242V18.6862ZM84.4591 19.4022C84.4374 19.3754 84.4106 19.3532 84.3802 19.3369C84.3498 19.3206 84.3165 19.3105 84.2821 19.3072C84.1571 19.2822 84.0961 19.2032 84.0961 19.0712V17.4202C84.0967 17.2024 84.0316 16.9894 83.9092 16.8092C83.7868 16.629 83.6129 16.4899 83.4101 16.4102C83.2683 16.3523 83.1163 16.323 82.9631 16.3242H82.9131C82.8171 16.3242 82.7191 16.3342 82.6181 16.3552C82.4032 16.4011 82.2065 16.5088 82.0521 16.6652C81.9627 16.7592 81.8906 16.8682 81.8391 16.9872C81.819 17.0268 81.8094 17.0709 81.8111 17.1152C81.8111 17.1902 81.8391 17.2512 81.8971 17.2952C81.9416 17.3325 81.996 17.3558 82.0537 17.3622C82.1113 17.3686 82.1696 17.3578 82.2211 17.3312C82.2679 17.3069 82.3057 17.2684 82.3291 17.2212C82.3845 17.1159 82.4632 17.0246 82.5591 16.9542C82.6659 16.8897 82.7896 16.8591 82.9141 16.8662H82.9641C83.1231 16.8662 83.2591 16.9082 83.3751 16.9932C83.4901 17.0792 83.5481 17.2282 83.5481 17.4412C83.5481 17.4612 83.5461 17.4822 83.5441 17.5052C83.5428 17.5257 83.5366 17.5456 83.5261 17.5632C83.4961 17.6002 83.4321 17.6302 83.3271 17.6512C83.2241 17.6722 83.1071 17.6952 82.9721 17.7202C82.8293 17.7452 82.6875 17.7759 82.5471 17.8122C82.3971 17.8502 82.2591 17.9052 82.1351 17.9792C82.011 18.0518 81.905 18.1517 81.8251 18.2712C81.7384 18.4085 81.6958 18.569 81.7031 18.7312V18.8162C81.7006 18.9627 81.7322 19.1078 81.7954 19.2401C81.8586 19.3723 81.9516 19.4881 82.0671 19.5782C82.1751 19.6642 82.2971 19.7282 82.4371 19.7702C82.5771 19.8132 82.7191 19.8342 82.8641 19.8342H82.9271C83.2311 19.8342 83.4901 19.7412 83.7061 19.5572C83.7571 19.6253 83.8205 19.683 83.8931 19.7272C83.9701 19.7752 84.0711 19.8082 84.1951 19.8262C84.2001 19.8312 84.2171 19.8342 84.2471 19.8342C84.3331 19.8342 84.4001 19.8062 84.4451 19.7522C84.4867 19.7041 84.5108 19.6432 84.5133 19.5797C84.5159 19.5161 84.4968 19.4535 84.4591 19.4022ZM80.5771 17.4702C80.5771 17.2752 80.5461 17.1062 80.4831 16.9602C80.4266 16.8234 80.341 16.7005 80.2321 16.6002C80.1251 16.5052 79.9994 16.4337 79.8631 16.3902C79.7215 16.3454 79.5737 16.3228 79.4251 16.3232H79.3601C79.2341 16.3232 79.1161 16.3432 79.0061 16.3812C78.9067 16.4128 78.8155 16.4661 78.7391 16.5372C78.7338 16.505 78.7221 16.4742 78.7048 16.4466C78.6875 16.4189 78.6648 16.395 78.6381 16.3762C78.5833 16.3391 78.5178 16.3207 78.4516 16.324C78.3854 16.3272 78.3221 16.3519 78.2711 16.3942C78.2424 16.4188 78.2196 16.4495 78.2046 16.4842C78.1895 16.5188 78.1825 16.5565 78.1841 16.5942V19.5692C78.1841 19.6592 78.2141 19.7272 78.2711 19.7692C78.325 19.8103 78.3909 19.8326 78.4586 19.8326C78.5264 19.8326 78.5923 19.8103 78.6461 19.7692C78.7041 19.7272 78.7321 19.6592 78.7321 19.5692V17.4692C78.7321 17.2982 78.7941 17.1552 78.9151 17.0392C78.9721 16.9829 79.0398 16.9385 79.1141 16.9086C79.1885 16.8788 79.268 16.864 79.3481 16.8652H79.4131C79.5841 16.8652 79.7301 16.9232 79.8501 17.0422C79.9701 17.1622 80.0301 17.3022 80.0301 17.4702V19.5702C80.0301 19.6602 80.0601 19.7272 80.1171 19.7702C80.1719 19.8114 80.2386 19.8335 80.3071 19.8332C80.3745 19.8334 80.4401 19.8108 80.4931 19.7692C80.5491 19.7272 80.5771 19.6592 80.5771 19.5692V17.4702ZM77.1831 16.6732C77.101 16.5522 76.9842 16.4588 76.8481 16.4052C76.7166 16.3519 76.5761 16.324 76.4341 16.3232C76.3361 16.3232 76.2581 16.3302 76.1951 16.3452C76.1412 16.3573 76.0884 16.3737 76.0371 16.3942C75.9913 16.4088 75.9492 16.4334 75.9141 16.4662C75.8946 16.4185 75.8593 16.379 75.8141 16.3542C75.7615 16.3282 75.7024 16.3181 75.6441 16.3252C75.5859 16.3323 75.5309 16.3563 75.4861 16.3942C75.4564 16.4181 75.4328 16.4487 75.4172 16.4834C75.4015 16.5182 75.3943 16.5561 75.3961 16.5942V19.5562C75.3961 19.6502 75.4251 19.7202 75.4831 19.7662C75.5391 19.8102 75.6031 19.8332 75.6701 19.8332C75.7371 19.8332 75.8001 19.8102 75.8561 19.7662C75.9151 19.7202 75.9431 19.6502 75.9431 19.5562V17.3422C75.9431 17.2842 75.9481 17.2272 75.9581 17.1702C75.9675 17.115 75.9894 17.0627 76.0221 17.0172C76.0602 16.9687 76.1101 16.9308 76.1671 16.9072C76.2494 16.8746 76.3377 16.8599 76.4261 16.8642C76.5171 16.8642 76.5891 16.8832 76.6381 16.9172C76.6901 16.9532 76.7281 16.9862 76.7581 17.0142C76.8251 17.0792 76.8991 17.1142 76.9811 17.1142C77.0504 17.1151 77.1173 17.0893 77.1681 17.0422C77.1944 17.0191 77.2152 16.9904 77.2291 16.9582C77.2429 16.9261 77.2494 16.8912 77.2481 16.8562C77.2446 16.7902 77.222 16.7266 77.1831 16.6732ZM73.6811 17.8332H72.3831V17.4732C72.3831 17.3012 72.4441 17.1562 72.5671 17.0402C72.6248 16.9836 72.6931 16.9391 72.7681 16.909C72.8431 16.879 72.9233 16.8641 73.0041 16.8652H73.0751C73.2351 16.8652 73.3741 16.9232 73.4971 17.0402C73.5572 17.0966 73.6047 17.165 73.6364 17.241C73.6681 17.317 73.6833 17.3989 73.6811 17.4812V17.8332ZM74.2291 17.4762C74.2296 17.3232 74.1999 17.1715 74.1418 17.03C74.0836 16.8884 73.9981 16.7597 73.8901 16.6512C73.7835 16.5463 73.657 16.4637 73.5181 16.4082C73.3751 16.3509 73.2222 16.322 73.0681 16.3232H72.9951C72.7679 16.3223 72.5455 16.3881 72.3554 16.5126C72.1654 16.637 72.0161 16.8146 71.9261 17.0232C71.8661 17.1652 71.8361 17.3132 71.8361 17.4702V18.6932C71.8335 18.92 71.9 19.1421 72.0268 19.3301C72.1537 19.518 72.3348 19.6629 72.5461 19.7452C72.6861 19.8042 72.8381 19.8332 72.9961 19.8332H73.0681C73.2911 19.8386 73.5106 19.777 73.6981 19.6563C73.8857 19.5356 74.0327 19.3614 74.1201 19.1562C74.1411 19.1198 74.1515 19.0782 74.1501 19.0362C74.1509 18.9986 74.1435 18.9612 74.1285 18.9267C74.1135 18.8922 74.0912 18.8613 74.0631 18.8362C74.0109 18.786 73.9415 18.7578 73.8691 18.7572C73.8203 18.7574 73.7725 18.7713 73.7311 18.7972C73.6838 18.8293 73.6483 18.876 73.6301 18.9302C73.5802 19.0308 73.5072 19.1182 73.4171 19.1852C73.316 19.2588 73.1931 19.2964 73.0681 19.2922H72.9951C72.9151 19.2933 72.8356 19.2782 72.7615 19.2478C72.6874 19.2174 72.6203 19.1723 72.5641 19.1152C72.5065 19.0609 72.4607 18.9953 72.4296 18.9226C72.3984 18.8498 72.3826 18.7714 72.3831 18.6922V18.3312H73.9551C73.9914 18.3316 74.0273 18.3246 74.0607 18.3105C74.0941 18.2964 74.1242 18.2755 74.1491 18.2492C74.1744 18.2247 74.1946 18.1953 74.2083 18.1628C74.2221 18.1304 74.2291 18.0955 74.2291 18.0602V17.4762ZM70.7791 19.3862C70.7371 19.3332 70.6741 19.3022 70.5881 19.2922C70.4806 19.2842 70.3782 19.243 70.2951 19.1742C70.253 19.1397 70.2197 19.0957 70.1978 19.0458C70.1759 18.9959 70.1661 18.9416 70.1691 18.8872V16.8862H70.5581C70.6491 16.8862 70.7181 16.8562 70.7641 16.8012C70.8074 16.7488 70.8314 16.6832 70.8321 16.6152C70.8314 16.5476 70.8074 16.4822 70.7641 16.4302C70.7171 16.3722 70.6491 16.3452 70.5581 16.3452H70.1691V15.1062C70.1691 15.0162 70.1391 14.9492 70.0831 14.9032C70.0297 14.8605 69.9635 14.8369 69.8951 14.8362C69.827 14.8369 69.7612 14.8605 69.7081 14.9032C69.6491 14.9492 69.6211 15.0162 69.6211 15.1062V16.3452H69.3691C69.2781 16.3452 69.2091 16.3722 69.1631 16.4302C69.1198 16.4822 69.0958 16.5476 69.0951 16.6152C69.0951 16.6812 69.1181 16.7432 69.1631 16.8012C69.2091 16.8562 69.2781 16.8862 69.3691 16.8862H69.6211V18.9002C69.6207 19.0847 69.6752 19.2652 69.7778 19.4186C69.8804 19.5719 70.0264 19.6912 70.1971 19.7612C70.3142 19.8093 70.4396 19.8338 70.5661 19.8332C70.6611 19.8332 70.7301 19.8052 70.7741 19.7502C70.8159 19.698 70.8385 19.6331 70.8381 19.5662C70.8388 19.5012 70.8187 19.4378 70.7791 19.3862ZM68.0791 17.4702C68.0791 17.2752 68.0471 17.1062 67.9841 16.9602C67.9283 16.8259 67.8439 16.7054 67.7368 16.607C67.6298 16.5086 67.5026 16.4346 67.3641 16.3902C67.2218 16.3453 67.0734 16.3227 66.9241 16.3232H66.8601C66.7351 16.3232 66.6171 16.3432 66.5081 16.3812C66.4083 16.4126 66.3167 16.4659 66.2401 16.5372C66.2353 16.505 66.2239 16.4741 66.2067 16.4464C66.1895 16.4187 66.1668 16.3949 66.1401 16.3762C66.0852 16.3388 66.0195 16.3204 65.9531 16.3236C65.8867 16.3269 65.8232 16.3516 65.7721 16.3942C65.7433 16.4186 65.7205 16.4494 65.7056 16.4841C65.6907 16.5188 65.684 16.5565 65.6861 16.5942V19.5692C65.6861 19.6592 65.7141 19.7272 65.7721 19.7692C65.826 19.8103 65.8919 19.8326 65.9596 19.8326C66.0274 19.8326 66.0933 19.8103 66.1471 19.7692C66.2041 19.7272 66.2341 19.6592 66.2341 19.5692V17.4692C66.2341 17.2982 66.2951 17.1552 66.4171 17.0392C66.4741 16.9829 66.5418 16.9385 66.6161 16.9086C66.6905 16.8788 66.77 16.864 66.8501 16.8652H66.9151C67.0851 16.8652 67.2321 16.9232 67.3511 17.0422C67.4711 17.1622 67.5311 17.3022 67.5311 17.4702V19.5702C67.5311 19.6602 67.5611 19.7272 67.6191 19.7702C67.6736 19.8112 67.74 19.8333 67.8081 19.8332C67.8755 19.8334 67.9411 19.8108 67.9941 19.7692C68.0501 19.7272 68.0791 19.6592 68.0791 19.5692V17.4702ZM64.2291 15.1062C64.2291 15.0162 64.2011 14.9492 64.1431 14.9032C64.09 14.8607 64.0242 14.8371 63.9561 14.8362C63.8877 14.8367 63.8214 14.8603 63.7681 14.9032C63.7101 14.9492 63.6821 15.0162 63.6821 15.1062V19.5692C63.6821 19.6592 63.7101 19.7272 63.7681 19.7692C63.822 19.8103 63.8879 19.8326 63.9556 19.8326C64.0234 19.8326 64.0893 19.8103 64.1431 19.7692C64.2011 19.7272 64.2301 19.6592 64.2301 19.5692L64.2291 15.1062ZM60.1211 16.6732C60.0393 16.5519 59.9224 16.4584 59.7861 16.4052C59.6549 16.3518 59.5148 16.324 59.3731 16.3232C59.2374 16.3196 59.1024 16.3434 58.9761 16.3932C58.9304 16.4084 58.8884 16.4333 58.8531 16.4662C58.8343 16.4181 58.7988 16.3784 58.7531 16.3542C58.7004 16.3281 58.6411 16.3179 58.5826 16.325C58.5242 16.3322 58.4691 16.3562 58.4241 16.3942C58.3944 16.4181 58.3708 16.4487 58.3552 16.4834C58.3395 16.5182 58.3323 16.5561 58.3341 16.5942V19.5562C58.3341 19.6502 58.3631 19.7202 58.4211 19.7662C58.4791 19.8102 58.5411 19.8332 58.6091 19.8332C58.6751 19.8332 58.7391 19.8102 58.7961 19.7662C58.8531 19.7202 58.8831 19.6502 58.8831 19.5562V17.3422C58.8831 17.2842 58.8881 17.2272 58.8961 17.1702C58.9062 17.1123 58.9307 17.0578 58.9674 17.0118C59.0041 16.9658 59.0518 16.9299 59.1061 16.9072C59.1888 16.8747 59.2774 16.86 59.3661 16.8642C59.4405 16.8607 59.5142 16.8792 59.5781 16.9172C59.6281 16.9532 59.6681 16.9862 59.6961 17.0142C59.7651 17.0792 59.8381 17.1142 59.9211 17.1142C59.9903 17.1147 60.0571 17.089 60.1081 17.0422C60.1338 17.0187 60.1541 16.9899 60.1676 16.9578C60.1811 16.9257 60.1874 16.891 60.1861 16.8562C60.1826 16.7902 60.16 16.7266 60.1211 16.6732ZM57.0501 16.5932C57.0501 16.5032 57.0201 16.4362 56.9631 16.3902C56.91 16.3477 56.8442 16.3241 56.7761 16.3232C56.7076 16.3239 56.6413 16.3479 56.5881 16.3912C56.5301 16.4352 56.5021 16.5042 56.5021 16.5922V18.6882C56.5021 18.8542 56.4421 18.9952 56.3211 19.1152C56.2638 19.1729 56.1953 19.2184 56.1198 19.2488C56.0443 19.2793 55.9635 19.294 55.8821 19.2922H55.8181C55.7376 19.2937 55.6575 19.2788 55.5829 19.2483C55.5083 19.2179 55.4407 19.1726 55.3841 19.1152C55.3264 19.0602 55.2807 18.9939 55.2497 18.9204C55.2187 18.847 55.2032 18.7679 55.2041 18.6882V16.5922C55.2041 16.5042 55.1741 16.4352 55.1181 16.3912C55.0651 16.3483 54.9993 16.3244 54.9311 16.3232C54.8626 16.324 54.7963 16.3479 54.7431 16.3912C54.6851 16.4362 54.6571 16.5042 54.6571 16.5942V18.6942C54.6571 18.8942 54.6881 19.0642 54.7501 19.2072C54.8131 19.3492 54.8961 19.4662 55.0021 19.5592C55.1081 19.6512 55.2321 19.7202 55.3741 19.7662C55.5151 19.8102 55.6641 19.8332 55.8181 19.8332H55.8821C56.0071 19.8332 56.1251 19.8152 56.2341 19.7792C56.3345 19.7491 56.4264 19.6956 56.5021 19.6232C56.5067 19.6554 56.5179 19.6863 56.5351 19.7138C56.5524 19.7414 56.5752 19.765 56.6021 19.7832C56.6541 19.8152 56.7121 19.8332 56.7761 19.8332C56.8421 19.8332 56.9061 19.8102 56.9631 19.7662C56.992 19.7424 57.0149 19.7122 57.03 19.678C57.0451 19.6438 57.052 19.6066 57.0501 19.5692V16.5932ZM55.4571 15.1062C55.4571 15.0162 55.4271 14.9492 55.3691 14.9032C55.3166 14.8604 55.2509 14.8367 55.1831 14.8362C55.1147 14.8367 55.0484 14.8603 54.9951 14.9032C54.9371 14.9492 54.9091 15.0162 54.9091 15.1062V15.2622C54.9091 15.3522 54.9371 15.4222 54.9961 15.4652C55.0541 15.5102 55.1161 15.5332 55.1831 15.5332C55.2501 15.5332 55.3131 15.5102 55.3691 15.4652C55.4271 15.4212 55.4571 15.3522 55.4571 15.2622V15.1062ZM56.7821 15.1062C56.7821 15.0162 56.7521 14.9492 56.6921 14.9032C56.6377 14.861 56.571 14.8375 56.5021 14.8362C56.4345 14.836 56.369 14.8598 56.3171 14.9032C56.2631 14.9492 56.2341 15.0162 56.2341 15.1062V15.2622C56.2341 15.3522 56.2641 15.4222 56.3211 15.4652C56.3741 15.5081 56.44 15.532 56.5081 15.5332C56.5761 15.5332 56.6381 15.5102 56.6961 15.4652C56.7541 15.4212 56.7821 15.3522 56.7821 15.2622V15.1062ZM53.5761 14.9212C53.5291 14.8632 53.4611 14.8362 53.3701 14.8362C53.2468 14.8333 53.1242 14.8555 53.0097 14.9014C52.8952 14.9473 52.7913 15.0159 52.7041 15.1032C52.6183 15.1874 52.5521 15.2895 52.5101 15.4022C52.4632 15.5209 52.4394 15.6475 52.4401 15.7752V16.3452H52.2821C52.1911 16.3452 52.1221 16.3722 52.0761 16.4302C52.0328 16.4822 52.0088 16.5476 52.0081 16.6152C52.0081 16.6812 52.0311 16.7432 52.0761 16.8012C52.1231 16.8562 52.1911 16.8862 52.2821 16.8862H52.4401V19.5692C52.4401 19.6592 52.4701 19.7272 52.5261 19.7692C52.58 19.8103 52.6459 19.8326 52.7136 19.8326C52.7814 19.8326 52.8473 19.8103 52.9011 19.7692C52.9601 19.7272 52.9881 19.6592 52.9881 19.5692V16.8862H53.3271C53.4181 16.8862 53.4871 16.8562 53.5331 16.8012C53.5764 16.7488 53.6004 16.6832 53.6011 16.6152C53.6008 16.548 53.5779 16.4829 53.5361 16.4302C53.4931 16.3722 53.4231 16.3452 53.3261 16.3452H52.9881V15.7752C52.9861 15.6713 53.0236 15.5705 53.0931 15.4932C53.1281 15.4549 53.171 15.4247 53.2188 15.4047C53.2667 15.3846 53.3183 15.3753 53.3701 15.3772C53.4611 15.3772 53.5301 15.3472 53.5761 15.2922C53.6193 15.2398 53.6433 15.1741 53.6441 15.1062C53.6434 15.0386 53.6194 14.9732 53.5761 14.9212ZM120.387 11.6072C120.347 11.5542 120.282 11.5232 120.196 11.5132C120.089 11.5049 119.987 11.4637 119.904 11.3952C119.862 11.3604 119.829 11.3163 119.808 11.2665C119.786 11.2167 119.776 11.1625 119.779 11.1082V9.10821H120.168C120.257 9.10821 120.327 9.07921 120.372 9.02221C120.417 8.97039 120.441 8.90452 120.442 8.83621C120.441 8.76829 120.416 8.7029 120.372 8.65121C120.327 8.59421 120.257 8.56621 120.168 8.56621H119.779V7.32721C119.779 7.23721 119.749 7.17021 119.691 7.12421C119.639 7.08122 119.573 7.05757 119.505 7.05721C119.437 7.05766 119.371 7.08129 119.318 7.12421C119.259 7.17021 119.231 7.23721 119.231 7.32821V8.56621H118.979C118.887 8.56621 118.819 8.59421 118.773 8.65121C118.73 8.7033 118.706 8.76859 118.705 8.83621C118.705 8.90421 118.728 8.96421 118.773 9.02221C118.819 9.07921 118.887 9.10721 118.979 9.10721H119.231V11.1212C119.229 11.3061 119.283 11.4872 119.386 11.6408C119.489 11.7945 119.636 11.9135 119.807 11.9822C119.923 12.0306 120.048 12.0554 120.174 12.0552C120.271 12.0552 120.34 12.0272 120.384 11.9712C120.426 11.919 120.448 11.854 120.448 11.7872C120.449 11.722 120.427 11.6585 120.387 11.6072ZM118.022 7.14221C117.978 7.08521 117.909 7.05721 117.818 7.05721C117.691 7.05622 117.564 7.08 117.446 7.12721C117.335 7.17172 117.234 7.23864 117.15 7.32379C117.065 7.40894 117 7.51052 116.956 7.62221C116.91 7.74189 116.887 7.86907 116.888 7.99721V8.56621H116.73C116.639 8.56621 116.571 8.59421 116.525 8.65121C116.481 8.7028 116.457 8.76839 116.457 8.83621C116.457 8.90403 116.481 8.96962 116.525 9.02121C116.571 9.07921 116.639 9.10721 116.73 9.10721H116.888V11.7902C116.888 11.8802 116.918 11.9482 116.975 11.9902C117.029 12.0316 117.095 12.0541 117.163 12.0541C117.23 12.0541 117.296 12.0316 117.35 11.9902C117.408 11.9482 117.436 11.8802 117.436 11.7902V9.10721H117.775C117.866 9.10721 117.934 9.07921 117.979 9.02221C118.024 8.97066 118.049 8.90462 118.049 8.83621C118.048 8.76907 118.026 8.70404 117.984 8.65121C117.941 8.59421 117.871 8.56621 117.775 8.56621H117.436V7.99621C117.434 7.89264 117.472 7.79225 117.541 7.71521C117.576 7.67679 117.619 7.64642 117.667 7.62622C117.715 7.60602 117.766 7.59646 117.818 7.59821C117.909 7.59821 117.978 7.57021 118.022 7.51321C118.067 7.46166 118.092 7.39562 118.092 7.32721C118.092 7.25915 118.067 7.1935 118.022 7.14221ZM114.696 10.9082C114.698 10.989 114.682 11.0692 114.65 11.1435C114.619 11.2178 114.572 11.2845 114.512 11.3392C114.454 11.3957 114.386 11.4402 114.311 11.47C114.236 11.4999 114.156 11.5146 114.075 11.5132H114.011C113.853 11.5202 113.696 11.4721 113.569 11.3772C113.514 11.3348 113.47 11.2798 113.44 11.2169C113.41 11.1539 113.396 11.0848 113.398 11.0152V10.9572C113.398 10.8342 113.441 10.7392 113.526 10.6732C113.621 10.5999 113.73 10.5465 113.846 10.5162C113.976 10.4782 114.117 10.4492 114.268 10.4272C114.412 10.407 114.555 10.3796 114.696 10.3452V10.9082ZM115.608 11.6232C115.586 11.5964 115.559 11.5742 115.529 11.5579C115.498 11.5416 115.465 11.5315 115.43 11.5282C115.306 11.5032 115.244 11.4252 115.244 11.2922V9.64021C115.244 9.49021 115.214 9.34721 115.156 9.21421C115.1 9.08205 115.019 8.96233 114.916 8.86205C114.814 8.76177 114.692 8.68295 114.559 8.63021C114.418 8.57291 114.267 8.54402 114.114 8.54521H114.062C113.966 8.54521 113.868 8.55621 113.766 8.57721C113.663 8.59917 113.564 8.63517 113.471 8.68421C113.375 8.73421 113.285 8.80021 113.2 8.88621C113.112 8.98026 113.04 9.08886 112.989 9.20721C112.968 9.24631 112.957 9.2906 112.959 9.33521C112.959 9.41121 112.989 9.47121 113.046 9.51721C113.091 9.55365 113.145 9.57633 113.203 9.58254C113.26 9.58875 113.318 9.57822 113.37 9.55221C113.417 9.52762 113.454 9.48918 113.478 9.44221C113.534 9.33632 113.613 9.24463 113.71 9.17421C113.816 9.10985 113.939 9.07916 114.062 9.08621H114.114C114.271 9.08621 114.407 9.12821 114.524 9.21421C114.638 9.29921 114.696 9.44821 114.696 9.66121L114.693 9.72721C114.692 9.74709 114.686 9.76634 114.675 9.78321C114.645 9.82121 114.58 9.85021 114.477 9.87321C114.373 9.89421 114.255 9.91621 114.119 9.94021C113.976 9.96556 113.834 9.99625 113.693 10.0322C113.549 10.0685 113.411 10.1247 113.283 10.1992C113.16 10.2725 113.054 10.3722 112.973 10.4912C112.887 10.6288 112.845 10.7892 112.852 10.9512V11.0362C112.849 11.189 112.883 11.3403 112.951 11.4772C113.016 11.6012 113.106 11.7102 113.215 11.7972C113.323 11.8842 113.448 11.9472 113.585 11.9912C113.727 12.0332 113.868 12.0552 114.011 12.0552H114.075C114.379 12.0552 114.638 11.9612 114.854 11.7752C114.905 11.8449 114.968 11.9037 115.042 11.9482C115.118 11.9952 115.219 12.0282 115.344 12.0462C115.349 12.0512 115.366 12.0552 115.395 12.0552C115.432 12.0574 115.469 12.0512 115.504 12.037C115.538 12.0228 115.568 12.001 115.593 11.9732C115.639 11.9206 115.663 11.8528 115.661 11.7832C115.661 11.7255 115.643 11.6693 115.608 11.6232ZM111.742 9.69121C111.743 9.54012 111.714 9.39037 111.656 9.25088C111.598 9.11138 111.512 8.98499 111.404 8.87921C111.184 8.66455 110.889 8.54463 110.582 8.54521H110.524C110.399 8.54521 110.279 8.56521 110.163 8.60221C110.063 8.63183 109.972 8.68538 109.898 8.75821V7.32821C109.898 7.23821 109.868 7.17021 109.811 7.12421C109.758 7.08164 109.692 7.05805 109.624 7.05721C109.556 7.05783 109.49 7.08143 109.436 7.12421C109.378 7.17021 109.35 7.23721 109.35 7.32821V11.7902C109.35 11.8802 109.378 11.9482 109.436 11.9902C109.49 12.0319 109.556 12.0547 109.624 12.0552C109.692 12.0549 109.757 12.0324 109.811 11.9912C109.868 11.9482 109.898 11.8812 109.898 11.7912V9.65421C109.898 9.56421 109.917 9.48421 109.956 9.41321C109.992 9.34235 110.042 9.27977 110.104 9.22949C110.165 9.17921 110.237 9.14232 110.313 9.12121C110.467 9.07376 110.631 9.07376 110.784 9.12121C110.86 9.14437 110.931 9.1817 110.993 9.23121C111.056 9.28178 111.107 9.34608 111.141 9.41921C111.178 9.5046 111.196 9.59709 111.194 9.69021V11.7902C111.194 11.8802 111.223 11.9472 111.281 11.9902C111.335 12.0314 111.4 12.0539 111.468 12.0542C111.535 12.0542 111.598 12.0322 111.656 11.9902C111.712 11.9472 111.742 11.8802 111.742 11.7902V9.69021V9.69121ZM108.111 10.6982C108.058 10.6547 107.992 10.631 107.923 10.6312C107.856 10.6304 107.79 10.6542 107.739 10.6982C107.684 10.7422 107.654 10.8132 107.649 10.9082C107.641 11.0687 107.575 11.2207 107.462 11.3352C107.408 11.3931 107.341 11.4388 107.268 11.4694C107.195 11.5001 107.116 11.515 107.036 11.5132H106.972C106.891 11.5148 106.81 11.5 106.734 11.4695C106.658 11.4391 106.59 11.3938 106.532 11.3362C106.474 11.2814 106.429 11.2153 106.398 11.142C106.367 11.0687 106.351 10.9898 106.352 10.9102V9.69021C106.352 9.52421 106.412 9.38121 106.532 9.26321C106.588 9.20623 106.656 9.16118 106.73 9.13077C106.804 9.10036 106.883 9.0852 106.963 9.08621H107.036C107.206 9.08621 107.345 9.14321 107.462 9.25621C107.576 9.37121 107.639 9.51721 107.649 9.69821C107.654 9.78821 107.684 9.85521 107.739 9.89821C107.791 9.93998 107.856 9.96257 107.923 9.96221C107.99 9.96221 108.053 9.93921 108.111 9.89421C108.167 9.84821 108.197 9.78121 108.197 9.69121C108.197 9.53421 108.166 9.38621 108.103 9.24721C108.015 9.0372 107.867 8.85818 107.677 8.7331C107.487 8.60802 107.264 8.54259 107.036 8.54521H106.963C106.658 8.54438 106.365 8.66322 106.146 8.87621C106.042 8.98074 105.957 9.10341 105.897 9.23821C105.834 9.38088 105.803 9.53531 105.804 9.69121V10.9152C105.801 11.1419 105.868 11.3639 105.995 11.5516C106.122 11.7393 106.304 11.8836 106.515 11.9652C106.655 12.0252 106.806 12.0552 106.963 12.0552H107.036C107.194 12.0552 107.345 12.0232 107.486 11.9652C107.763 11.8494 107.986 11.6323 108.108 11.3582C108.167 11.2202 108.197 11.0682 108.197 10.9082C108.197 10.8132 108.167 10.7422 108.111 10.6982ZM104.699 11.0312C104.699 10.8002 104.652 10.6182 104.559 10.4852C104.47 10.3564 104.351 10.2508 104.212 10.1772C104.071 10.1015 103.919 10.0459 103.762 10.0122C103.599 9.97621 103.448 9.94221 103.312 9.90621C103.19 9.87628 103.073 9.82807 102.965 9.76321C102.872 9.70421 102.825 9.61321 102.825 9.49121V9.47021C102.83 9.36521 102.885 9.27421 102.992 9.19921C103.096 9.12421 103.251 9.08621 103.451 9.08621H103.481C103.644 9.08621 103.772 9.10921 103.862 9.15321L104.116 9.27821C104.165 9.30403 104.218 9.3184 104.273 9.32021C104.35 9.32021 104.413 9.29421 104.461 9.24221C104.507 9.19454 104.533 9.13058 104.532 9.06421C104.533 9.02391 104.525 8.98392 104.508 8.94745C104.49 8.91098 104.465 8.87904 104.433 8.85421C104.335 8.77338 104.223 8.7092 104.104 8.66421C104.015 8.63035 103.923 8.60262 103.83 8.58121C103.718 8.55592 103.603 8.54384 103.488 8.54521H103.46C103.344 8.54521 103.217 8.55921 103.081 8.59021C102.946 8.62044 102.817 8.6721 102.699 8.74321C102.581 8.81528 102.48 8.91054 102.4 9.02321C102.315 9.14994 102.272 9.30056 102.278 9.45321C102.278 9.67621 102.324 9.84821 102.417 9.96821C102.509 10.0876 102.628 10.1835 102.764 10.2482C102.9 10.3162 103.051 10.3632 103.214 10.3952C103.377 10.4252 103.528 10.4622 103.664 10.5052C103.802 10.5472 103.916 10.6052 104.011 10.6782C104.104 10.7522 104.152 10.8642 104.152 11.0162V11.0382C104.147 11.1562 104.084 11.2642 103.968 11.3642C103.85 11.4642 103.681 11.5142 103.46 11.5142H103.423C103.276 11.5097 103.133 11.4621 103.013 11.3772C102.88 11.2942 102.762 11.1882 102.666 11.0642C102.638 11.0217 102.598 10.9887 102.551 10.9692C102.51 10.953 102.466 10.9446 102.422 10.9442C102.351 10.9434 102.281 10.9682 102.226 11.0142C102.198 11.0377 102.176 11.0673 102.161 11.1007C102.146 11.1342 102.139 11.1706 102.14 11.2072C102.14 11.2272 102.153 11.2702 102.176 11.3432C102.299 11.563 102.482 11.7433 102.703 11.8632C102.812 11.9232 102.93 11.9692 103.051 12.0032C103.174 12.0372 103.294 12.0552 103.408 12.0552H103.451C103.601 12.0552 103.75 12.0332 103.898 11.9912C104.048 11.9482 104.182 11.8862 104.302 11.8012C104.42 11.7219 104.519 11.617 104.591 11.4942C104.665 11.362 104.702 11.2126 104.699 11.0612V11.0312ZM101.14 11.6012C101.097 11.5412 101.027 11.5132 100.931 11.5132C100.825 11.5101 100.724 11.4668 100.649 11.3922C100.612 11.3565 100.582 11.3135 100.562 11.2658C100.543 11.2181 100.533 11.1668 100.534 11.1152V7.32721C100.534 7.23721 100.506 7.17021 100.448 7.12421C100.395 7.08122 100.329 7.05759 100.26 7.05721C100.192 7.05791 100.126 7.08149 100.072 7.12421C100.016 7.17021 99.9861 7.23721 99.9861 7.32821V11.1212C99.9857 11.2443 100.01 11.3663 100.057 11.4801C100.104 11.5939 100.173 11.6973 100.26 11.7842C100.44 11.958 100.681 12.0548 100.931 12.0542C101.027 12.0542 101.097 12.0272 101.14 11.9712C101.183 11.9189 101.206 11.8536 101.206 11.7862C101.206 11.7189 101.183 11.6536 101.14 11.6012ZM98.8771 11.6012C98.8341 11.5412 98.7641 11.5132 98.6671 11.5132C98.5617 11.5103 98.4615 11.467 98.3871 11.3922C98.3494 11.3568 98.3196 11.3138 98.2997 11.266C98.2797 11.2183 98.27 11.1669 98.2711 11.1152V7.32721C98.2711 7.23721 98.2431 7.17021 98.1841 7.12421C98.1312 7.08122 98.0653 7.05758 97.9971 7.05721C97.9293 7.05765 97.8636 7.08129 97.8111 7.12421C97.7531 7.17021 97.7241 7.23721 97.7241 7.32821V11.1212C97.7237 11.2443 97.7475 11.3662 97.7944 11.48C97.8412 11.5938 97.9101 11.6972 97.9971 11.7842C98.0851 11.8692 98.1841 11.9342 98.3011 11.9822C98.4174 12.0306 98.5422 12.0554 98.6681 12.0552C98.7641 12.0552 98.8341 12.0272 98.8771 11.9712C98.9193 11.9191 98.9422 11.8542 98.9421 11.7872C98.9419 11.7194 98.919 11.6545 98.8771 11.6012ZM95.9491 10.0532H94.6531V9.69621C94.6531 9.52421 94.7131 9.37821 94.8371 9.26121C94.8944 9.2047 94.9624 9.16013 95.0371 9.13009C95.1117 9.10005 95.1916 9.08514 95.2721 9.08621H95.3451C95.5031 9.08621 95.6441 9.14521 95.7651 9.26121C95.8252 9.31755 95.8727 9.38598 95.9044 9.46199C95.9361 9.53801 95.9513 9.61988 95.9491 9.70221V10.0532ZM96.4971 9.69821C96.4985 9.54504 96.4692 9.39315 96.4109 9.25147C96.3527 9.1098 96.2668 8.98119 96.1581 8.87321C96.052 8.7681 95.9259 8.68545 95.7871 8.63021C95.6441 8.57276 95.4912 8.54389 95.3371 8.54521H95.2651C95.1128 8.54378 94.9618 8.57257 94.8207 8.6299C94.6796 8.68723 94.5513 8.77197 94.4431 8.87921C94.3354 8.98509 94.2499 9.11151 94.1919 9.25098C94.1338 9.39045 94.1043 9.54014 94.1051 9.69121V10.9152C94.104 11.0657 94.1334 11.2149 94.1915 11.3538C94.2496 11.4927 94.3352 11.6183 94.4431 11.7232C94.664 11.9359 94.9585 12.0549 95.2651 12.0552H95.3371C95.56 12.0598 95.7792 11.9977 95.9667 11.8769C96.1541 11.7561 96.3012 11.5821 96.3891 11.3772C96.409 11.3404 96.419 11.299 96.4181 11.2572C96.4192 11.2195 96.412 11.1821 96.397 11.1475C96.382 11.1129 96.3595 11.0821 96.3311 11.0572C96.2789 11.007 96.2095 10.9788 96.1371 10.9782C96.0883 10.9784 96.0405 10.9923 95.9991 11.0182C95.9516 11.0498 95.9163 11.0968 95.8991 11.1512C95.8492 11.2518 95.7766 11.3394 95.6871 11.4072C95.5853 11.4801 95.4623 11.5174 95.3371 11.5132H95.2651C95.1847 11.5144 95.105 11.4993 95.0306 11.4689C94.9562 11.4385 94.8887 11.3933 94.8321 11.3362C94.7746 11.2819 94.7289 11.2163 94.6979 11.1435C94.667 11.0707 94.6514 10.9923 94.6521 10.9132V10.5532H96.2231C96.2596 10.5537 96.2958 10.5465 96.3294 10.5322C96.3629 10.5179 96.3932 10.4968 96.4181 10.4702C96.4434 10.4457 96.4636 10.4163 96.4773 10.3838C96.4911 10.3514 96.4981 10.3165 96.4981 10.2812L96.4971 9.69821ZM93.0021 11.0312C93.0021 10.8002 92.9561 10.6182 92.8621 10.4852C92.7729 10.3568 92.6547 10.2513 92.5171 10.1772C92.3748 10.1015 92.2227 10.046 92.0651 10.0122C91.9031 9.97621 91.7521 9.94221 91.6151 9.90621C91.4935 9.87629 91.3772 9.82808 91.2701 9.76321C91.1751 9.70421 91.1291 9.61321 91.1291 9.49121V9.47021C91.1341 9.36521 91.1891 9.27421 91.2951 9.19921C91.4011 9.12421 91.5541 9.08621 91.7571 9.08621H91.7851C91.9481 9.08621 92.0751 9.10921 92.1671 9.15321L92.4191 9.27821C92.4771 9.30621 92.5291 9.32021 92.5771 9.32021C92.6551 9.32021 92.7171 9.29421 92.7651 9.24221C92.7909 9.21607 92.8108 9.18471 92.8236 9.15025C92.8363 9.11578 92.8415 9.079 92.8388 9.04237C92.8362 9.00573 92.8257 8.97008 92.8082 8.9378C92.7906 8.90553 92.7664 8.87737 92.7371 8.85521C92.6393 8.77327 92.528 8.70898 92.4081 8.66521C92.3193 8.6307 92.228 8.60263 92.1351 8.58121C92.0222 8.55592 91.9068 8.54384 91.7911 8.54521H91.7631C91.6491 8.54521 91.5231 8.55921 91.3851 8.59021C91.2505 8.62077 91.1216 8.67241 91.0031 8.74321C90.885 8.81503 90.7829 8.91033 90.7031 9.02321C90.6186 9.15029 90.5759 9.30066 90.5811 9.45321C90.5811 9.67621 90.6271 9.84821 90.7221 9.96821C90.8151 10.0902 90.9321 10.1832 91.0681 10.2482C91.2051 10.3162 91.3551 10.3632 91.5181 10.3952C91.6821 10.4252 91.8311 10.4622 91.9691 10.5052C92.1051 10.5472 92.2221 10.6052 92.3151 10.6782C92.4081 10.7522 92.4551 10.8642 92.4551 11.0162V11.0382C92.4511 11.1562 92.3891 11.2642 92.2711 11.3642C92.1531 11.4642 91.9841 11.5142 91.7631 11.5142H91.7271C91.58 11.5095 91.4375 11.4619 91.3171 11.3772C91.1837 11.2948 91.0665 11.1887 90.9711 11.0642C90.9421 11.0223 90.9019 10.9894 90.8551 10.9692C90.8137 10.953 90.7696 10.9445 90.7251 10.9442C90.6542 10.9438 90.5854 10.9686 90.5311 11.0142C90.5027 11.0374 90.4801 11.067 90.4652 11.1005C90.4503 11.134 90.4434 11.1706 90.4451 11.2072C90.4451 11.2272 90.4561 11.2702 90.4811 11.3432C90.5381 11.4512 90.6131 11.5512 90.7041 11.6392C90.7951 11.7292 90.8961 11.8042 91.0061 11.8632C91.1171 11.9232 91.2341 11.9692 91.3561 12.0032C91.4791 12.0372 91.5971 12.0552 91.7131 12.0552H91.7571C91.9041 12.0552 92.0541 12.0332 92.2031 11.9912C92.3511 11.9482 92.4851 11.8862 92.6071 11.8012C92.7245 11.7216 92.8226 11.6167 92.8941 11.4942C92.9689 11.3624 93.0063 11.2127 93.0021 11.0612V11.0312ZM88.8621 10.0532H87.5661V9.69621C87.5661 9.52421 87.6261 9.37821 87.7501 9.26121C87.8074 9.2047 87.8754 9.16013 87.9501 9.13009C88.0247 9.10005 88.1046 9.08514 88.1851 9.08621H88.2581C88.4161 9.08621 88.5571 9.14521 88.6781 9.26121C88.7382 9.31755 88.7857 9.38598 88.8174 9.46199C88.8491 9.53801 88.8643 9.61988 88.8621 9.70221V10.0532ZM89.4101 9.69821C89.415 9.46912 89.3497 9.24401 89.223 9.05311C89.0963 8.8622 88.9141 8.71463 88.7011 8.63021C88.5577 8.573 88.4045 8.54414 88.2501 8.54521H88.1781C88.0258 8.54378 87.8748 8.57257 87.7337 8.6299C87.5926 8.68723 87.4643 8.77197 87.3561 8.87921C87.2484 8.98509 87.1629 9.11151 87.1049 9.25098C87.0468 9.39045 87.0173 9.54014 87.0181 9.69121V10.9152C87.017 11.0657 87.0464 11.2149 87.1045 11.3538C87.1626 11.4927 87.2482 11.6183 87.3561 11.7232C87.577 11.9359 87.8715 12.0549 88.1781 12.0552H88.2501C88.4731 12.0599 88.6923 11.9978 88.8798 11.877C89.0672 11.7562 89.2143 11.5822 89.3021 11.3772C89.322 11.3404 89.332 11.299 89.3311 11.2572C89.3323 11.2195 89.3251 11.182 89.3101 11.1474C89.295 11.1129 89.2725 11.082 89.2441 11.0572C89.1921 11.0068 89.1226 10.9785 89.0501 10.9782C89.0019 10.9785 88.9548 10.9924 88.9141 11.0182C88.866 11.0497 88.83 11.0966 88.8121 11.1512C88.7622 11.2518 88.6896 11.3394 88.6001 11.4072C88.4983 11.4801 88.3753 11.5174 88.2501 11.5132H88.1781C88.0981 11.5143 88.0186 11.4992 87.9445 11.4688C87.8704 11.4384 87.8033 11.3933 87.7471 11.3362C87.6892 11.2822 87.6432 11.2166 87.612 11.1438C87.5809 11.071 87.5652 10.9924 87.5661 10.9132V10.5532H89.1361C89.1726 10.5537 89.2088 10.5465 89.2424 10.5322C89.2759 10.5179 89.3062 10.4968 89.3311 10.4702C89.3564 10.4457 89.3766 10.4163 89.3903 10.3838C89.4041 10.3514 89.4111 10.3165 89.4111 10.2812L89.4101 9.69821ZM85.7521 9.60621C85.7524 9.57082 85.7454 9.53575 85.7314 9.50322C85.7175 9.47069 85.697 9.4414 85.6711 9.41721C85.6463 9.3916 85.6166 9.37117 85.5838 9.35709C85.551 9.34302 85.5158 9.33558 85.4801 9.33521H84.4491C84.3571 9.33521 84.2891 9.36321 84.2431 9.42021C84.1996 9.47248 84.1756 9.53821 84.1751 9.60621C84.1751 9.67121 84.1981 9.73421 84.2431 9.79121C84.2891 9.84721 84.3571 9.87621 84.4491 9.87621H85.2061V10.7052C85.2071 10.8118 85.1861 10.9175 85.1442 11.0156C85.1024 11.1137 85.0407 11.2021 84.9631 11.2752C84.8884 11.3488 84.8005 11.4078 84.7041 11.4492C84.603 11.4924 84.4941 11.5141 84.3841 11.5132H84.3111C84.2034 11.5143 84.0966 11.4939 83.997 11.453C83.8974 11.4121 83.807 11.3517 83.7311 11.2752C83.657 11.202 83.5973 11.1155 83.5551 11.0202C83.5116 10.9203 83.4898 10.8122 83.4911 10.7032V8.40021C83.4904 8.29417 83.5123 8.1892 83.5551 8.09221C83.62 7.94567 83.7259 7.82105 83.8601 7.73339C83.9942 7.64573 84.1509 7.59878 84.3111 7.59821H84.3841C84.6201 7.59821 84.8061 7.66421 84.9421 7.79721C85.0801 7.92921 85.1661 8.09721 85.2061 8.29521C85.2191 8.37521 85.2541 8.43521 85.3061 8.47121C85.3578 8.50525 85.4183 8.52333 85.4801 8.52321C85.5461 8.52321 85.6101 8.50021 85.6661 8.45621C85.695 8.43295 85.7179 8.4031 85.7328 8.36917C85.7478 8.33524 85.7544 8.29822 85.7521 8.26121V8.21621C85.7081 7.8932 85.5456 7.59809 85.2961 7.38821C85.1705 7.28513 85.029 7.20307 84.8771 7.14521C84.7195 7.0861 84.5524 7.05628 84.3841 7.05721H84.3111C84.0439 7.05687 83.7824 7.13445 83.5586 7.28044C83.3348 7.42644 83.1585 7.63452 83.0511 7.87921C82.9787 8.04681 82.9419 8.22764 82.9431 8.41021V10.7082C82.9414 10.8867 82.976 11.0636 83.0447 11.2283C83.1135 11.393 83.215 11.542 83.3431 11.6662C83.4661 11.7872 83.6101 11.8822 83.7781 11.9512C83.9481 12.0212 84.1251 12.0552 84.3111 12.0552H84.3841C84.7459 12.0565 85.0939 11.9166 85.3541 11.6652C85.4741 11.5452 85.5731 11.4032 85.6441 11.2392C85.7173 11.0719 85.7541 10.8909 85.7521 10.7082V9.60621ZM78.8281 10.0532H77.5301V9.69621C77.5308 9.61545 77.5473 9.5356 77.5788 9.46124C77.6104 9.38687 77.6562 9.31944 77.7138 9.2628C77.7714 9.20615 77.8395 9.16141 77.9144 9.13111C77.9893 9.10081 78.0694 9.08555 78.1501 9.08621H78.2201C78.3801 9.08621 78.5201 9.14521 78.6431 9.26121C78.7032 9.31755 78.7507 9.38598 78.7824 9.46199C78.8141 9.53801 78.8293 9.61988 78.8271 9.70221L78.8281 10.0532ZM79.3761 9.69821C79.3791 9.46939 79.3129 9.24501 79.1862 9.05444C79.0596 8.86387 78.8783 8.71601 78.6661 8.63021C78.5231 8.57291 78.3702 8.54404 78.2161 8.54521H78.1441C77.8368 8.54387 77.5414 8.6639 77.3221 8.87921C77.2142 8.98501 77.1286 9.11138 77.0703 9.25086C77.0121 9.39033 76.9825 9.54007 76.9831 9.69121V10.9152C76.9809 11.1416 77.0476 11.3633 77.1744 11.5509C77.3012 11.7385 77.4822 11.883 77.6931 11.9652C77.8351 12.0252 77.9841 12.0552 78.1431 12.0552H78.2151C78.4591 12.0552 78.6751 11.9922 78.8591 11.8652C79.0461 11.7412 79.1821 11.5792 79.2681 11.3772C79.2877 11.3403 79.2973 11.299 79.2961 11.2572C79.2974 11.2196 79.2904 11.1822 79.2755 11.1476C79.2607 11.113 79.2383 11.0821 79.2101 11.0572C79.1579 11.007 79.0885 10.9788 79.0161 10.9782C78.9673 10.9784 78.9195 10.9923 78.8781 11.0182C78.8304 11.0501 78.7945 11.0968 78.7761 11.1512C78.7272 11.2525 78.6545 11.3403 78.5641 11.4072C78.4629 11.4805 78.34 11.5178 78.2151 11.5132H78.1441C78.0636 11.5145 77.9836 11.4995 77.909 11.4691C77.8344 11.4387 77.7668 11.3935 77.7101 11.3362C77.6528 11.2818 77.6073 11.2162 77.5765 11.1434C77.5457 11.0706 77.5302 10.9922 77.5311 10.9132V10.5532H79.1011C79.1376 10.5537 79.1738 10.5465 79.2074 10.5322C79.2409 10.5179 79.2711 10.4968 79.2961 10.4702C79.3214 10.4457 79.3416 10.4163 79.3553 10.3838C79.3691 10.3514 79.3761 10.3165 79.3761 10.2812V9.69821ZM75.8021 9.69121C75.8028 9.54006 75.7732 9.39031 75.715 9.25082C75.6568 9.11134 75.5711 8.98497 75.4631 8.87921C75.2443 8.66439 74.9497 8.5444 74.6431 8.54521H74.5851C74.4611 8.54521 74.3401 8.56521 74.2251 8.60221C74.1248 8.63179 74.0332 8.68533 73.9581 8.75821V7.32821C73.9581 7.23821 73.9301 7.17021 73.8711 7.12421C73.8182 7.08122 73.7523 7.05758 73.6841 7.05721C73.6163 7.05773 73.5507 7.08136 73.4981 7.12421C73.4401 7.17021 73.4101 7.23721 73.4101 7.32821V11.7902C73.4101 11.8802 73.4401 11.9482 73.4981 11.9902C73.5515 12.0316 73.6171 12.0541 73.6846 12.0541C73.7522 12.0541 73.8178 12.0316 73.8711 11.9902C73.9301 11.9482 73.9581 11.8802 73.9581 11.7902V9.65521C73.9581 9.56521 73.9781 9.48521 74.0161 9.41421C74.0531 9.34413 74.1037 9.28217 74.165 9.23202C74.2263 9.18186 74.2971 9.14452 74.3731 9.12221C74.5266 9.0755 74.6906 9.0755 74.8441 9.12221C74.9211 9.14521 74.9911 9.18221 75.0541 9.23221C75.1171 9.28121 75.1641 9.34521 75.2011 9.42021C75.239 9.50538 75.2572 9.59803 75.2541 9.69121V11.7912C75.2541 11.8812 75.2841 11.9482 75.3421 11.9912C75.3955 12.0329 75.4614 12.0555 75.5291 12.0555C75.5969 12.0555 75.6627 12.0329 75.7161 11.9912C75.7741 11.9482 75.8031 11.8812 75.8031 11.7912L75.8021 9.69121ZM72.1021 10.6982C72.0492 10.6546 71.9827 10.6309 71.9141 10.6312C71.847 10.6305 71.782 10.6544 71.7311 10.6982C71.6751 10.7422 71.6451 10.8132 71.6401 10.9082C71.6331 11.0691 71.566 11.2214 71.4521 11.3352C71.3978 11.3932 71.3319 11.439 71.2587 11.4697C71.1854 11.5004 71.1065 11.5152 71.0271 11.5132H70.9621C70.8809 11.5149 70.8003 11.5001 70.725 11.4696C70.6497 11.4392 70.5814 11.3938 70.5241 11.3362C70.466 11.2817 70.4199 11.2156 70.3888 11.1423C70.3576 11.0689 70.3421 10.9899 70.3431 10.9102V9.69021C70.3431 9.52421 70.4031 9.38121 70.5231 9.26321C70.5795 9.20589 70.647 9.16064 70.7214 9.13021C70.7959 9.09978 70.8757 9.08481 70.9561 9.08621H71.0261C71.1961 9.08621 71.3371 9.14321 71.4521 9.25621C71.5681 9.37121 71.6301 9.51721 71.6401 9.69821C71.6451 9.78821 71.6741 9.85521 71.7311 9.89821C71.7837 9.94056 71.8493 9.96332 71.9168 9.96259C71.9843 9.96186 72.0495 9.93769 72.1011 9.89421C72.1591 9.84821 72.1881 9.78121 72.1881 9.69121C72.1886 9.53833 72.1569 9.38705 72.0951 9.24721C72.0346 9.11051 71.9499 8.98584 71.8451 8.87921C71.7382 8.77149 71.6106 8.68641 71.4701 8.62903C71.3296 8.57164 71.1789 8.54314 71.0271 8.54521H70.9551C70.729 8.54337 70.5074 8.6081 70.3179 8.73133C70.1283 8.85456 69.9792 9.03084 69.8891 9.23821C69.8259 9.3808 69.7939 9.53524 69.7951 9.69121V10.9152C69.7941 11.0658 69.8237 11.215 69.8819 11.3539C69.9402 11.4928 70.026 11.6184 70.1341 11.7232C70.355 11.9359 70.6495 12.0549 70.9561 12.0552H71.0261C71.2533 12.0556 71.4757 11.9898 71.6661 11.8659C71.8565 11.7419 72.0066 11.5651 72.0981 11.3572C72.1581 11.2202 72.1881 11.0692 72.1881 10.9082C72.1881 10.8132 72.1601 10.7422 72.1021 10.6982ZM68.6891 11.0312C68.6891 10.8002 68.6421 10.6182 68.5491 10.4852C68.4597 10.3564 68.3407 10.2508 68.2021 10.1772C68.0607 10.1013 67.9091 10.0457 67.7521 10.0122C67.5901 9.97621 67.4391 9.94221 67.3021 9.90621C67.1805 9.87628 67.0642 9.82806 66.9571 9.76321C66.8621 9.70421 66.8161 9.61321 66.8161 9.49121V9.47021C66.8211 9.36521 66.8761 9.27421 66.9821 9.19921C67.0871 9.12421 67.2411 9.08621 67.4441 9.08621H67.4721C67.6351 9.08621 67.7621 9.10921 67.8541 9.15321L68.1061 9.27821C68.1641 9.30621 68.2161 9.32021 68.2641 9.32021C68.3421 9.32021 68.4041 9.29421 68.4521 9.24221C68.4989 9.19474 68.5251 9.13082 68.5251 9.06421C68.5258 9.02365 68.517 8.9835 68.4992 8.94701C68.4815 8.91053 68.4554 8.87873 68.4231 8.85421C68.3253 8.77221 68.214 8.70791 68.0941 8.66421C68.0056 8.63009 67.9146 8.60235 67.8221 8.58121C67.7092 8.55592 67.5938 8.54383 67.4781 8.54521H67.4501C67.3361 8.54521 67.2101 8.55921 67.0721 8.59021C66.9375 8.62075 66.8086 8.67239 66.6901 8.74321C66.572 8.81503 66.4699 8.91033 66.3901 9.02321C66.3055 9.15026 66.2628 9.30065 66.2681 9.45321C66.2681 9.67621 66.3141 9.84821 66.4091 9.96821C66.5021 10.0902 66.6191 10.1832 66.7541 10.2482C66.8921 10.3162 67.0421 10.3632 67.2041 10.3952C67.3691 10.4252 67.5181 10.4622 67.6561 10.5052C67.7921 10.5472 67.9081 10.6052 68.0011 10.6782C68.0941 10.7522 68.1431 10.8642 68.1431 11.0162V11.0382C68.1381 11.1562 68.0761 11.2642 67.9581 11.3642C67.8401 11.4642 67.6711 11.5142 67.4501 11.5142H67.4141C67.267 11.5095 67.1245 11.4619 67.0041 11.3772C66.8711 11.2943 66.7539 11.1883 66.6581 11.0642C66.6292 11.0223 66.589 10.9893 66.5421 10.9692C66.5007 10.953 66.4566 10.9445 66.4121 10.9442C66.3412 10.9438 66.2724 10.9686 66.2181 11.0142C66.1897 11.0374 66.1671 11.067 66.1522 11.1005C66.1373 11.134 66.1304 11.1706 66.1321 11.2072C66.1321 11.2272 66.1431 11.2702 66.1671 11.3432C66.2251 11.4512 66.2991 11.5512 66.3911 11.6392C66.4821 11.7292 66.5831 11.8042 66.6931 11.8632C66.8041 11.9232 66.9211 11.9692 67.0431 12.0032C67.1661 12.0372 67.2841 12.0552 67.4001 12.0552H67.4441C67.5911 12.0552 67.7411 12.0332 67.8901 11.9912C68.0381 11.9482 68.1721 11.8862 68.2941 11.8012C68.4116 11.7216 68.5096 11.6167 68.5811 11.4942C68.6559 11.3624 68.6933 11.2127 68.6891 11.0612V11.0312ZM65.1371 11.6072C65.0971 11.5542 65.0321 11.5232 64.9471 11.5132C64.8403 11.5048 64.7386 11.4636 64.6561 11.3952C64.6138 11.3608 64.5803 11.3168 64.5582 11.2669C64.5361 11.2171 64.5262 11.1627 64.5291 11.1082V9.10821H64.9181C65.0091 9.10821 65.0781 9.07921 65.1241 9.02221C65.1676 8.96994 65.1917 8.90421 65.1921 8.83621C65.1912 8.7686 65.1672 8.70334 65.1241 8.65121C65.0771 8.59421 65.0091 8.56621 64.9181 8.56621H64.5291V7.32721C64.5291 7.23721 64.4991 7.17021 64.4431 7.12421C64.3897 7.08149 64.3235 7.05791 64.2551 7.05721C64.187 7.05782 64.1211 7.08143 64.0681 7.12421C64.0101 7.17021 63.9811 7.23721 63.9811 7.32821V8.56621H63.7291C63.6381 8.56621 63.5691 8.59421 63.5231 8.65121C63.4801 8.70338 63.4562 8.76862 63.4551 8.83621C63.4551 8.90421 63.4781 8.96421 63.5231 9.02221C63.5701 9.07921 63.6381 9.10721 63.7291 9.10721H63.9811V11.1212C63.9807 11.3057 64.0352 11.4862 64.1378 11.6396C64.2404 11.7929 64.3864 11.9122 64.5571 11.9822C64.6737 12.0308 64.7988 12.0556 64.9251 12.0552C65.0211 12.0552 65.0911 12.0272 65.1341 11.9712C65.1758 11.9198 65.1987 11.8559 65.1993 11.7897C65.1998 11.7236 65.1779 11.6593 65.1371 11.6072ZM62.3431 8.81521C62.3431 8.72521 62.3131 8.65821 62.2561 8.61221C62.2027 8.56949 62.1365 8.54591 62.0681 8.54521C62 8.54582 61.9341 8.56943 61.8811 8.61221C61.8231 8.65821 61.7941 8.72521 61.7941 8.81521V10.9102C61.7937 10.9907 61.7773 11.0704 61.7458 11.1445C61.7143 11.2186 61.6684 11.2857 61.6106 11.3418C61.5529 11.3979 61.4846 11.442 61.4096 11.4714C61.3347 11.5009 61.2546 11.5151 61.1741 11.5132H61.1101C61.0298 11.5144 60.95 11.4993 60.8756 11.4689C60.8012 11.4385 60.7337 11.3933 60.6771 11.3362C60.6196 11.2813 60.5739 11.2152 60.5429 11.1419C60.512 11.0686 60.4964 10.9898 60.4971 10.9102V8.81521C60.4971 8.72521 60.4671 8.65821 60.4111 8.61221C60.358 8.5697 60.2922 8.54613 60.2241 8.54521C60.1557 8.54559 60.0894 8.56922 60.0361 8.61221C59.9781 8.65821 59.9501 8.72521 59.9501 8.81521V10.9152C59.9501 11.1152 59.9811 11.2852 60.0431 11.4282C60.1061 11.5712 60.1911 11.6882 60.2951 11.7812C60.4011 11.8722 60.5251 11.9412 60.6671 11.9862C60.8081 12.0312 60.9561 12.0552 61.1101 12.0552H61.1751C61.3001 12.0552 61.4181 12.0372 61.5271 12.0002C61.6271 11.9702 61.7185 11.9171 61.7941 11.8452C61.7993 11.8773 61.811 11.908 61.8285 11.9354C61.8461 11.9627 61.8691 11.9862 61.8961 12.0042C61.9491 12.0372 62.0061 12.0542 62.0681 12.0542C62.1351 12.0542 62.1981 12.0312 62.2561 11.9862C62.2851 11.9628 62.3082 11.9328 62.3233 11.8987C62.3384 11.8646 62.3452 11.8274 62.3431 11.7902V8.81521ZM58.2491 10.0532H56.9521V9.69621C56.9521 9.52421 57.0141 9.37821 57.1371 9.26121C57.1945 9.20474 57.2624 9.16021 57.3371 9.13017C57.4118 9.10013 57.4916 9.08519 57.5721 9.08621H57.6451C57.8031 9.08621 57.9441 9.14521 58.0671 9.26121C58.1266 9.31788 58.1736 9.38642 58.2049 9.46239C58.2363 9.53835 58.2514 9.62006 58.2491 9.70221V10.0532ZM58.7971 9.69821C58.8022 9.46909 58.7369 9.24392 58.6102 9.05299C58.4834 8.86205 58.3012 8.71451 58.0881 8.63021C57.9447 8.573 57.7915 8.54414 57.6371 8.54521H57.5651C57.4128 8.54378 57.2618 8.57257 57.1207 8.6299C56.9796 8.68723 56.8513 8.77197 56.7431 8.87921C56.6377 8.98508 56.5532 9.10994 56.4941 9.24721C56.4341 9.38621 56.4041 9.53421 56.4041 9.69121V10.9152C56.4033 11.0659 56.433 11.2152 56.4914 11.354C56.5498 11.4929 56.6358 11.6185 56.7441 11.7232C56.9648 11.9356 57.2589 12.0545 57.5651 12.0552H57.6371C57.86 12.0598 58.0793 11.9977 58.2667 11.8769C58.4541 11.7561 58.6012 11.5821 58.6891 11.3772C58.7098 11.3407 58.7198 11.2991 58.7181 11.2572C58.7192 11.2195 58.712 11.1821 58.697 11.1475C58.6819 11.1129 58.6595 11.0821 58.6311 11.0572C58.5791 11.0068 58.5096 10.9785 58.4371 10.9782C58.3889 10.9786 58.3418 10.9924 58.3011 11.0182C58.2533 11.0498 58.2177 11.0967 58.2001 11.1512C58.1498 11.2518 58.0769 11.3395 57.9871 11.4072C57.8853 11.4801 57.7623 11.5174 57.6371 11.5132H57.5651C57.4848 11.5142 57.405 11.4991 57.3307 11.4686C57.2563 11.4382 57.1888 11.3932 57.1321 11.3362C57.0746 11.2819 57.0289 11.2163 56.9979 11.1435C56.967 11.0707 56.9514 10.9923 56.9521 10.9132V10.5532H58.5231C58.5596 10.5537 58.5958 10.5465 58.6294 10.5322C58.6629 10.5179 58.6932 10.4968 58.7181 10.4702C58.7434 10.4457 58.7636 10.4163 58.7773 10.3838C58.7911 10.3514 58.7981 10.3165 58.7981 10.2812L58.7971 9.69821ZM54.5901 10.6652C54.5915 10.7723 54.5708 10.8785 54.5294 10.9773C54.4879 11.0761 54.4266 11.1652 54.3491 11.2392C54.274 11.3129 54.1859 11.3719 54.0891 11.4132C53.9887 11.4563 53.8804 11.4781 53.7711 11.4772H52.8811V7.64121H53.7781C53.8849 7.64002 53.9908 7.6605 54.0895 7.70141C54.1882 7.74231 54.2775 7.8028 54.3521 7.87921C54.4247 7.95384 54.4833 8.04088 54.5251 8.13621C54.5691 8.23605 54.5913 8.34412 54.5901 8.45321V10.6652ZM55.1361 8.44521C55.1361 8.26121 55.1011 8.08521 55.0281 7.92121C54.9588 7.76242 54.8604 7.61795 54.7381 7.49521C54.6128 7.37264 54.4656 7.27462 54.3041 7.20621C54.1365 7.13522 53.9562 7.09915 53.7741 7.10021H52.6071C52.5714 7.10036 52.5361 7.10769 52.5033 7.12178C52.4705 7.13587 52.4408 7.15642 52.4161 7.18221C52.3902 7.20626 52.3695 7.23534 52.3553 7.26766C52.341 7.29999 52.3335 7.33488 52.3331 7.37021V11.7482C52.3331 11.8182 52.3611 11.8822 52.4161 11.9362C52.4711 11.9912 52.5361 12.0182 52.6071 12.0182H53.7741C54.1345 12.0178 54.4803 11.876 54.7371 11.6232C54.9907 11.3686 55.134 11.0245 55.1361 10.6652V8.44521Z" fill="white"/>
</g>
</g>
</g>
<defs>
<clipPath id="clip0_1924_2401">
<rect width="138" height="36" fill="white" transform="translate(0.5 0.5)"/>
</clipPath>
<clipPath id="clip1_1924_2401">
<rect width="138" height="36" fill="white" transform="translate(0.5 0.5)"/>
</clipPath>
<clipPath id="clip2_1924_2401">
<rect width="138" height="36" fill="white" transform="translate(0.5 0.5)"/>
</clipPath>
</defs>
</svg>
