<svg width="49" height="49" viewBox="0 0 49 49" fill="none" xmlns="http://www.w3.org/2000/svg">
<g clip-path="url(#clip0_1924_2413)">
<g clip-path="url(#clip1_1924_2413)">
<path d="M13.2931 19.4639C13.3831 19.4639 13.4741 19.5539 13.4741 19.6449V31.1699C13.4741 31.2599 13.3841 31.3519 13.2931 31.3519H9.84506C9.79797 31.3486 9.75368 31.3283 9.7204 31.2948C9.68711 31.2614 9.66709 31.217 9.66406 31.1699V19.6449C9.66406 19.5549 9.75406 19.4649 9.84506 19.4649L13.2931 19.4639ZM25.8151 19.4639C25.9051 19.4639 25.9961 19.5539 25.9961 19.6449V22.4579C25.9961 22.5489 25.9061 22.6399 25.8151 22.6399H22.8211C22.7301 22.6399 22.6391 22.7299 22.6391 22.8209V31.1689C22.6391 31.2589 22.5491 31.3509 22.4581 31.3509H19.0091C18.9618 31.3478 18.9173 31.3277 18.8838 31.2942C18.8503 31.2607 18.8301 31.2161 18.8271 31.1689V22.8209C18.8271 22.7309 18.7371 22.6399 18.6461 22.6399H15.7421C15.695 22.6366 15.6507 22.6163 15.6174 22.5828C15.5841 22.5494 15.5641 22.505 15.5611 22.4579V19.6449C15.5611 19.5549 15.6511 19.4649 15.7421 19.4649H25.8141L25.8151 19.4639ZM39.2441 19.4639C39.3341 19.4639 39.4251 19.5539 39.4251 19.6449V25.5429C39.4251 29.4449 37.3381 31.5329 33.5271 31.5329C29.8071 31.5329 27.9021 29.5359 27.9021 25.4529V19.6449C27.9021 19.5549 27.9921 19.4649 28.0831 19.4649H31.5311C31.6221 19.4649 31.7131 19.5549 31.7131 19.6449V25.4529C31.7131 26.7229 32.0761 28.2659 33.6181 28.2659C34.8881 28.2659 35.5241 27.3579 35.5241 25.4529V19.6449C35.5241 19.5549 35.6141 19.4649 35.7051 19.4649L39.2441 19.4639Z" fill="white"/>
<path d="M42.8735 43.2367C40.4084 42.0552 37.9871 40.7843 35.6145 39.4267C36.0298 39.1206 36.424 38.7868 36.7944 38.4277C40.5145 35.0707 42.7835 30.2617 42.7835 24.9077C42.7835 21.0977 41.6035 17.5577 39.6075 14.6547C36.3405 9.75473 30.7155 6.57873 24.3635 6.57873C20.8245 6.57873 17.4675 7.57673 14.5634 9.39173C13.0195 7.17548 11.5074 4.93725 10.0274 2.67773C10.4804 3.67573 12.0234 6.76073 13.7474 9.93673C9.84545 12.7497 7.03245 17.0137 6.21645 22.0047C6.0315 22.9613 5.94007 23.9335 5.94345 24.9077C5.94345 27.7207 6.57945 30.4427 7.75845 32.8017C10.7524 38.9717 17.0135 43.2367 24.2725 43.2367C27.9925 43.2367 31.5325 42.1477 34.4355 40.1517C37.3385 41.3317 40.1515 42.3297 42.8735 43.2367ZM22.7305 41.6947C18.4655 41.2407 14.6544 39.2447 11.9324 36.2507C11.4784 35.6147 11.2974 34.8887 11.2064 34.0727C12.9304 35.7057 15.0175 37.2487 17.4675 38.3367C20.0984 39.6067 22.9115 40.4237 25.6335 40.6967C24.7265 41.4217 23.7285 41.7847 22.7305 41.6947ZM10.7524 32.5297V32.9837C10.5715 32.8017 10.4804 32.6207 10.2994 32.5297H9.75445C10.0274 32.8927 10.3895 33.2557 10.7524 33.6197C10.7524 34.1637 10.8435 34.6167 10.9345 35.0697C8.75645 32.2577 7.48645 28.7197 7.48645 24.9077C7.48645 21.4597 8.48445 18.2847 10.2994 15.6527C10.1146 16.4866 10.0233 17.3386 10.0274 18.1927H10.4804C10.3904 16.8327 10.6624 15.6527 11.1154 14.4727C11.7515 13.6567 12.5675 12.8397 13.3844 12.1137C13.8384 11.8417 14.2914 11.6607 14.6544 11.4787C15.6524 13.2027 16.6504 14.9267 17.6484 16.1067C17.4675 16.1067 15.9244 16.1967 14.3825 16.0157L14.5634 16.1057H14.3825C14.7455 16.8327 15.1084 17.4677 15.4714 18.1937H22.4585C22.0954 17.9217 21.7324 17.5587 21.3684 17.2857C23.0024 16.0157 24.7265 14.8357 26.3595 14.0197C26.9045 14.6547 27.6295 15.1997 28.4465 15.6527C29.4667 16.1633 30.5761 16.4717 31.7135 16.5607C31.8035 17.1047 31.9855 17.7407 31.9855 18.2847H32.4395C32.3485 17.6487 32.2575 17.1047 32.1665 16.5607C33.1644 16.5607 34.0725 16.1967 34.6165 15.5617C35.5245 16.3787 36.2505 17.2857 36.9765 18.2847H37.4295C36.6884 17.1735 35.8374 16.1397 34.8895 15.1987C35.1614 14.6547 35.2514 14.1107 35.0704 13.4747C34.9837 13.0443 34.7974 12.6402 34.5265 12.2947C35.3425 12.4767 36.0684 12.7487 36.5224 13.2937C39.5164 16.2877 41.4225 20.4617 41.4225 25.0897C41.4225 27.2667 41.0595 29.2637 40.2425 31.1697C38.7905 34.1627 35.3425 35.7967 31.0785 35.8877C32.8925 35.4337 34.3444 34.7977 35.9785 33.7097C35.3425 33.4377 34.7075 33.0747 34.0725 32.8017H33.4375C29.8985 32.8017 27.6295 31.2597 26.9945 28.1747C25.9065 27.3577 24.8175 26.4507 23.7285 25.5437V28.1737C25.1805 29.5357 26.7225 30.8057 28.0835 31.8947C26.9944 32.6207 23.5465 33.6187 22.9115 33.7997C23.4565 34.2537 24.0914 34.7077 24.7264 35.1617C23.2745 34.7987 21.9134 34.2537 20.4614 33.5277C20.2804 33.4377 20.1895 33.4377 20.0085 33.3467H19.9174C19.6454 33.2567 19.3724 33.0747 19.1914 32.9837C17.4674 31.9857 15.9244 30.8967 14.6544 29.6267V30.1707C15.0174 30.5337 15.4714 30.8967 15.9244 31.2597C17.2854 32.3487 18.8284 33.2557 20.5524 34.0727C22.2764 34.8887 24.0005 35.4327 25.6335 35.8877C26.5415 36.5227 27.5395 37.0677 28.5375 37.6117V37.7017C27.8115 38.9717 26.9944 39.9707 26.0875 40.6967C23.158 40.4099 20.3017 39.6111 17.6484 38.3367C15.1084 37.0667 12.8394 35.5247 11.1154 33.7997V32.8927H10.7524V32.5297ZM25.5424 12.2957C25.6334 12.7497 25.9065 13.2027 26.2695 13.6557C24.4912 14.5946 22.8181 15.7203 21.2784 17.0137C19.4634 15.2897 17.7394 13.2937 16.0154 11.0247C16.7414 10.7527 17.5584 10.4807 18.3754 10.3897C20.7334 9.93673 23.2754 10.0267 25.7255 10.5717C25.4524 11.1157 25.3615 11.6607 25.5435 12.2957H25.5424ZM25.9065 12.2057C25.8216 11.951 25.7938 11.6807 25.8251 11.4141C25.8564 11.1474 25.9459 10.8909 26.0875 10.6627C27.3575 11.0247 28.7185 11.4787 29.9895 12.1137L29.1725 12.3867C28.3555 12.6587 27.4485 13.0217 26.5415 13.4747C26.2684 13.1127 25.9965 12.6587 25.9055 12.2047L25.9065 12.2057ZM30.1705 11.8417C28.9904 11.2067 27.7205 10.7527 26.4505 10.3897C26.9945 9.93673 27.7205 9.66373 28.6285 9.66373C29.2555 10.3027 29.7761 11.038 30.1705 11.8417ZM29.2635 9.66373C30.0795 9.75473 30.9875 10.0267 31.8945 10.4807C32.5295 10.8437 33.0744 11.2067 33.5285 11.6607C32.7115 11.6607 31.7134 11.7507 30.7155 12.0237C30.2614 11.1157 29.8075 10.2997 29.2635 9.66373ZM29.3535 12.8397C29.7175 12.7497 30.1705 12.5677 30.5335 12.4767C30.7155 12.8397 30.8965 13.2027 30.9875 13.6567C31.2595 14.4727 31.5315 15.2897 31.7135 16.1967C30.8055 16.1067 29.7174 15.8347 28.8095 15.3807C28.0835 15.0177 27.4495 14.4727 26.9045 13.9287C27.6857 13.4908 28.5049 13.1262 29.3535 12.8397ZM31.3505 13.4747C31.2595 13.2027 31.1685 13.0217 31.0785 12.7487C32.2585 13.4747 33.4375 14.2917 34.4355 15.1987C33.9815 15.7437 33.1655 16.0157 32.1665 16.1067C31.8945 15.1987 31.6224 14.2917 31.3505 13.4747ZM31.0785 12.2947C32.0765 12.1147 33.0744 12.0237 33.8904 12.1147C34.2535 12.5677 34.5265 13.0217 34.7075 13.5657C34.7975 14.1107 34.7975 14.5637 34.6175 14.9267C33.5326 13.9285 32.3461 13.0466 31.0774 12.2957L31.0785 12.2947ZM32.0765 10.1177C31.0562 9.60743 29.9468 9.29944 28.8095 9.21073C28.5375 8.93874 28.1745 8.66573 27.8115 8.39373C30.5335 8.93873 33.0744 10.1177 35.1614 11.8417L34.0714 11.5697C33.6185 11.1157 32.8925 10.5717 32.0765 10.1177ZM28.1744 9.30073C27.2675 9.39173 26.4505 9.66373 25.9065 10.2997C23.3835 9.66594 20.7549 9.57291 18.1934 10.0267C17.2865 10.2087 16.4694 10.4807 15.6535 10.7527H15.5624C15.5624 10.7527 15.5624 10.6627 15.4714 10.6627C18.0114 9.11973 21.0975 8.21273 24.3635 8.21273C24.9075 8.21273 25.3615 8.21273 25.9065 8.30273C26.7225 8.30273 27.5394 8.66573 28.1744 9.30073ZM26.2695 40.8777C26.8135 40.8777 27.3575 40.9677 27.8115 40.9677H28.9004C29.4445 40.9677 29.8985 40.8777 30.3525 40.7877C28.5375 41.4227 26.6325 41.7847 24.7264 41.8757C25.2705 41.5127 25.7245 41.2407 26.2695 40.8777ZM26.7225 40.4237C27.5394 39.6987 28.2654 38.7907 28.9004 37.6107V37.5207C30.2127 38.2222 31.5439 38.8878 32.8925 39.5167C32.8025 39.6067 32.7114 39.6067 32.6204 39.6977C30.9874 40.3337 28.9904 40.6057 26.7225 40.4237ZM30.9875 36.1597C31.5315 36.1597 32.1675 36.0687 32.7115 36.0687C35.5245 35.7057 37.7924 34.7077 39.3354 33.1647C38.1554 35.3427 36.4315 37.2487 34.4355 38.6997C33.2445 37.911 32.0938 37.0633 30.9875 36.1597Z" fill="white"/>
</g>
</g>
<defs>
<clipPath id="clip0_1924_2413">
<rect width="48" height="48" fill="white" transform="translate(0.5 0.5)"/>
</clipPath>
<clipPath id="clip1_1924_2413">
<rect width="48" height="48" fill="white" transform="translate(0.5 0.5)"/>
</clipPath>
</defs>
</svg>
