<svg width="274" height="69" viewBox="0 0 274 69" fill="none"
    xmlns="http://www.w3.org/2000/svg">
    <path d="M46.6903 23.4091C46.4474 21.358 45.4624 19.7656 43.7351 18.6321C42.0078 17.4986 39.8892 16.9318 37.3793 16.9318C35.544 16.9318 33.9382 17.2287 32.5618 17.8224C31.1989 18.4162 30.1328 19.2326 29.3636 20.2717C28.608 21.3107 28.2301 22.4915 28.2301 23.8139C28.2301 24.9205 28.4933 25.8718 29.0195 26.668C29.5593 27.4506 30.2475 28.1051 31.0842 28.6314C31.9208 29.1442 32.7979 29.5692 33.7156 29.9066C34.6332 30.2305 35.4766 30.4936 36.2457 30.696L40.456 31.8295C41.5355 32.1129 42.7365 32.5043 44.0589 33.0036C45.3949 33.5028 46.6701 34.1843 47.8846 35.0479C49.1126 35.8981 50.1246 36.9911 50.9208 38.3271C51.717 39.663 52.1151 41.3026 52.1151 43.2457C52.1151 45.4858 51.5281 47.5099 50.3541 49.3182C49.1935 51.1264 47.4933 52.5636 45.2532 53.6296C43.0266 54.6957 40.321 55.2287 37.1364 55.2287C34.1676 55.2287 31.5969 54.7496 29.4244 53.7915C27.2653 52.8335 25.565 51.4975 24.3235 49.7837C23.0955 48.07 22.4006 46.0795 22.2386 43.8125H27.4205C27.5554 45.3778 28.0817 46.6733 28.9993 47.6989C29.9304 48.7109 31.1044 49.4666 32.5213 49.9659C33.9517 50.4517 35.4901 50.6946 37.1364 50.6946C39.0526 50.6946 40.7731 50.3842 42.2979 49.7635C43.8228 49.1293 45.0305 48.2521 45.9212 47.1321C46.8118 45.9986 47.2571 44.6761 47.2571 43.1648C47.2571 41.7884 46.8725 40.6683 46.1033 39.8047C45.3342 38.9411 44.3221 38.2393 43.0671 37.6996C41.8121 37.1598 40.456 36.6875 38.9986 36.2827L33.8977 34.8253C30.6591 33.8942 28.0952 32.565 26.206 30.8377C24.3168 29.1104 23.3722 26.8501 23.3722 24.0568C23.3722 21.7358 23.9996 19.7116 25.2546 17.9844C26.5231 16.2436 28.2234 14.8942 30.3555 13.9361C32.5011 12.9645 34.8963 12.4787 37.5412 12.4787C40.2131 12.4787 42.5881 12.9577 44.6662 13.9158C46.7443 14.8604 48.3906 16.1559 49.6051 17.8022C50.8331 19.4485 51.4808 21.3175 51.5483 23.4091H46.6903ZM68.6199 55.2287C66.6498 55.2287 64.8618 54.8576 63.2559 54.1154C61.6501 53.3597 60.3749 52.2734 59.4303 50.8565C58.4857 49.4261 58.0134 47.6989 58.0134 45.6747C58.0134 43.8935 58.3643 42.4496 59.066 41.343C59.7677 40.223 60.7055 39.3459 61.8795 38.7116C63.0535 38.0774 64.349 37.6051 65.7659 37.2947C67.1963 36.9709 68.6334 36.7145 70.0773 36.5256C71.9665 36.2827 73.4981 36.1005 74.6721 35.979C75.8596 35.8441 76.7233 35.6214 77.2631 35.3111C77.8163 35.0007 78.093 34.4609 78.093 33.6918V33.5298C78.093 31.5327 77.5464 29.9808 76.4534 28.8743C75.3738 27.7678 73.7343 27.2145 71.5347 27.2145C69.2542 27.2145 67.4662 27.7138 66.1707 28.7124C64.8753 29.7109 63.9644 30.777 63.4381 31.9105L58.904 30.2912C59.7137 28.402 60.7932 26.9311 62.1427 25.8786C63.5056 24.8125 64.99 24.0703 66.5958 23.652C68.2151 23.2202 69.8074 23.0043 71.3728 23.0043C72.3714 23.0043 73.5184 23.1257 74.8138 23.3686C76.1228 23.598 77.3845 24.0771 78.599 24.8058C79.827 25.5344 80.8458 26.6342 81.6555 28.1051C82.4651 29.576 82.8699 31.5462 82.8699 34.0156V54.5H78.093V50.2898H77.8501C77.5262 50.9645 76.9864 51.6864 76.2307 52.4556C75.4751 53.2248 74.4697 53.8793 73.2148 54.419C71.9598 54.9588 70.4282 55.2287 68.6199 55.2287ZM69.3486 50.9375C71.2378 50.9375 72.8302 50.5664 74.1256 49.8242C75.4346 49.082 76.4197 48.1239 77.0809 46.9499C77.7556 45.7759 78.093 44.5412 78.093 43.2457V38.8736C77.8905 39.1165 77.4452 39.3391 76.757 39.5415C76.0823 39.7305 75.2996 39.8991 74.409 40.0476C73.5319 40.1825 72.675 40.304 71.8383 40.4119C71.0152 40.5064 70.3472 40.5874 69.8344 40.6548C68.593 40.8168 67.4324 41.0799 66.3529 41.4442C65.2868 41.7951 64.4232 42.3281 63.762 43.0433C63.1143 43.745 62.7904 44.7031 62.7904 45.9176C62.7904 47.5774 63.4044 48.8324 64.6324 49.6825C65.8738 50.5192 67.4459 50.9375 69.3486 50.9375ZM96.1159 35.7969V54.5H91.339V23.4091H95.954V28.267H96.3588C97.0875 26.6882 98.1941 25.4197 99.6784 24.4616C101.163 23.4901 103.079 23.0043 105.427 23.0043C107.532 23.0043 109.374 23.4361 110.953 24.2997C112.532 25.1499 113.76 26.4453 114.637 28.1861C115.514 29.9134 115.953 32.0994 115.953 34.7443V54.5H111.176V35.0682C111.176 32.6257 110.541 30.723 109.273 29.3601C108.004 27.9837 106.264 27.2955 104.051 27.2955C102.526 27.2955 101.163 27.6261 99.9618 28.2873C98.7743 28.9485 97.8365 29.9134 97.1483 31.1818C96.4601 32.4503 96.1159 33.9886 96.1159 35.7969ZM136.172 55.1477C133.581 55.1477 131.294 54.4933 129.31 53.1843C127.326 51.8619 125.774 49.9996 124.654 47.5977C123.534 45.1822 122.974 42.3281 122.974 39.0355C122.974 35.7699 123.534 32.9361 124.654 30.5341C125.774 28.1321 127.333 26.2766 129.33 24.9677C131.327 23.6587 133.635 23.0043 136.253 23.0043C138.277 23.0043 139.876 23.3416 141.05 24.0163C142.237 24.6776 143.142 25.4332 143.762 26.2834C144.397 27.12 144.889 27.8082 145.24 28.348H145.645V13.0455H150.422V54.5H145.807V49.723H145.24C144.889 50.2898 144.39 51.005 143.742 51.8686C143.094 52.7187 142.17 53.4812 140.969 54.1559C139.768 54.8171 138.169 55.1477 136.172 55.1477ZM136.82 50.8565C138.736 50.8565 140.355 50.3572 141.677 49.3587C143 48.3466 144.005 46.9499 144.693 45.1687C145.382 43.3739 145.726 41.3026 145.726 38.9545C145.726 36.6335 145.388 34.6026 144.714 32.8619C144.039 31.1076 143.04 29.7447 141.718 28.7731C140.396 27.788 138.763 27.2955 136.82 27.2955C134.795 27.2955 133.109 27.815 131.759 28.854C130.423 29.8796 129.418 31.2763 128.743 33.044C128.082 34.7983 127.751 36.7685 127.751 38.9545C127.751 41.1676 128.089 43.1783 128.763 44.9865C129.452 46.7812 130.464 48.2116 131.8 49.2777C133.149 50.3303 134.822 50.8565 136.82 50.8565ZM160.232 54.5V13.0455H165.009V28.348H165.414C165.764 27.8082 166.25 27.12 166.871 26.2834C167.505 25.4332 168.409 24.6776 169.583 24.0163C170.771 23.3416 172.377 23.0043 174.401 23.0043C177.019 23.0043 179.326 23.6587 181.323 24.9677C183.321 26.2766 184.879 28.1321 185.999 30.5341C187.119 32.9361 187.679 35.7699 187.679 39.0355C187.679 42.3281 187.119 45.1822 185.999 47.5977C184.879 49.9996 183.327 51.8619 181.344 53.1843C179.36 54.4933 177.073 55.1477 174.482 55.1477C172.485 55.1477 170.886 54.8171 169.685 54.1559C168.484 53.4812 167.559 52.7187 166.911 51.8686C166.264 51.005 165.764 50.2898 165.414 49.723H164.847V54.5H160.232ZM164.928 38.9545C164.928 41.3026 165.272 43.3739 165.96 45.1687C166.648 46.9499 167.654 48.3466 168.976 49.3587C170.299 50.3572 171.918 50.8565 173.834 50.8565C175.831 50.8565 177.498 50.3303 178.834 49.2777C180.183 48.2116 181.195 46.7812 181.87 44.9865C182.558 43.1783 182.902 41.1676 182.902 38.9545C182.902 36.7685 182.565 34.7983 181.89 33.044C181.229 31.2763 180.224 29.8796 178.874 28.854C177.538 27.815 175.858 27.2955 173.834 27.2955C171.891 27.2955 170.258 27.788 168.936 28.7731C167.613 29.7447 166.615 31.1076 165.94 32.8619C165.265 34.6026 164.928 36.6335 164.928 38.9545ZM207.367 55.1477C204.56 55.1477 202.098 54.4798 199.979 53.1438C197.874 51.8079 196.228 49.9389 195.04 47.5369C193.866 45.1349 193.279 42.3281 193.279 39.1165C193.279 35.8778 193.866 33.0508 195.04 30.6353C196.228 28.2198 197.874 26.3441 199.979 25.0082C202.098 23.6722 204.56 23.0043 207.367 23.0043C210.174 23.0043 212.63 23.6722 214.735 25.0082C216.854 26.3441 218.5 28.2198 219.674 30.6353C220.861 33.0508 221.455 35.8778 221.455 39.1165C221.455 42.3281 220.861 45.1349 219.674 47.5369C218.5 49.9389 216.854 51.8079 214.735 53.1438C212.63 54.4798 210.174 55.1477 207.367 55.1477ZM207.367 50.8565C209.499 50.8565 211.253 50.31 212.63 49.217C214.006 48.1239 215.025 46.6868 215.686 44.9055C216.348 43.1243 216.678 41.1946 216.678 39.1165C216.678 37.0384 216.348 35.1019 215.686 33.3072C215.025 31.5124 214.006 30.0618 212.63 28.9553C211.253 27.8487 209.499 27.2955 207.367 27.2955C205.235 27.2955 203.481 27.8487 202.104 28.9553C200.728 30.0618 199.709 31.5124 199.048 33.3072C198.387 35.1019 198.056 37.0384 198.056 39.1165C198.056 41.1946 198.387 43.1243 199.048 44.9055C199.709 46.6868 200.728 48.1239 202.104 49.217C203.481 50.31 205.235 50.8565 207.367 50.8565ZM230.779 23.4091L238.228 36.1207L245.677 23.4091H251.183L241.143 38.9545L251.183 54.5H245.677L238.228 42.4361L230.779 54.5H225.274L235.152 38.9545L225.274 23.4091H230.779Z" fill="#2249EF"/>
    <rect y="65" width="24" height="4" fill="#2249EF"/>
    <rect y="65" width="20" height="4" transform="rotate(-90 0 65)" fill="#2249EF"/>
    <rect x="250" width="24" height="4" fill="#2249EF"/>
    <rect x="270" y="24" width="20" height="4" transform="rotate(-90 270 24)" fill="#2249EF"/>
</svg>
