<svg width="85" height="40" viewBox="0 0 85 40" fill="none"
    xmlns="http://www.w3.org/2000/svg">
    <path d="M85 40V14.7359H82.8207V37.8949H67.5652V40H85ZM74.66 25.2641L72.2421 21.7607L74.66 18.2572H72.5894L70.6539 21.059H69.3999V14.7538H67.5864V25.2641H69.3999V22.4624H70.6539L72.5894 25.2641H74.66ZM61.6688 21.7607C61.6688 20.6082 62.6365 19.6581 63.8454 19.6581C64.495 19.6581 65.0836 19.9347 65.4786 20.3726L66.7035 19.3354C66.0089 18.562 64.9802 18.0805 63.8481 18.0805C61.7483 18.0805 60.0409 19.7298 60.0409 21.7581C60.0409 23.7864 61.7483 25.4357 63.8481 25.4357C64.9802 25.4357 66.0089 24.9542 66.7035 24.1808L65.4786 23.1436C65.0862 23.5815 64.4977 23.8581 63.8454 23.8581C62.6365 23.8581 61.6688 22.9234 61.6688 21.7556V21.7607ZM57.2703 25.2641H59.0838V18.2572H57.2703V19.0307C56.6658 18.4314 55.8359 18.0805 54.9133 18.0805C52.9487 18.0805 51.4666 19.6581 51.4666 21.7581C51.4666 23.8581 52.9487 25.4357 54.9133 25.4357C55.8359 25.4357 56.6658 25.0848 57.2703 24.4856V25.259V25.2641ZM57.4506 21.7607C57.4506 22.9285 56.4696 23.8632 55.2739 23.8632C54.0781 23.8632 53.0972 22.9285 53.0972 21.7607C53.0972 20.5929 54.0649 19.6581 55.2739 19.6581C56.4828 19.6581 57.4506 20.6057 57.4506 21.7607ZM47.7045 25.2641H50.7879V23.8632H49.5179V19.6581H50.6978V18.2572H49.5179V17.0894H47.7045V25.2641ZM39.9071 17.6426C39.9071 16.6925 40.7236 16.1547 42.1739 16.1547C43.6241 16.1547 44.4407 16.754 44.4407 17.8193H46.4345C46.4345 15.7321 44.9074 14.5797 42.1739 14.5797C39.4404 14.5797 37.9133 15.6758 37.9133 17.6452C37.9133 22.1115 44.5335 19.484 44.5335 22.3753C44.5335 23.3382 43.6878 23.8632 42.1765 23.8632C40.6653 23.8632 39.8196 23.264 39.8196 22.1986H37.8258C37.8258 24.2858 39.3821 25.4382 42.1792 25.4382C44.9763 25.4382 46.5326 24.3421 46.5326 22.3727C46.5326 17.9064 39.9124 20.534 39.9124 17.6426H39.9071ZM33.5599 25.6124L37.1418 18.2547H35.2382L33.5599 21.6992L31.8816 18.2547H29.978L33.5599 25.6124ZM30.0522 21.7607C30.0522 19.7324 28.3448 18.0831 26.245 18.0831C24.1452 18.0831 22.4378 19.7324 22.4378 21.7607C22.4378 23.789 24.1452 25.4382 26.245 25.4382C28.3448 25.4382 30.0522 23.789 30.0522 21.7607ZM28.4217 21.7607C28.4217 22.9285 27.4381 23.8632 26.245 23.8632C25.0519 23.8632 24.0683 22.9285 24.0683 21.7607C24.0683 20.5929 25.036 19.6581 26.245 19.6581C27.454 19.6581 28.4217 20.6057 28.4217 21.7607ZM21.6822 20.009C21.6822 19.7913 21.6663 19.571 21.6371 19.3662H16.1516V20.9412H19.7494C19.3411 22.5187 17.92 23.6865 16.2444 23.6865C14.1446 23.6865 12.4371 22.0373 12.4371 20.009C12.4371 17.9807 14.1446 16.3314 16.2444 16.3314C17.3791 16.3314 18.4052 16.8129 19.0998 17.5863L20.4758 16.4338C19.4471 15.2942 17.9226 14.5797 16.2444 14.5797C13.1318 14.5797 10.6237 17.0177 10.6237 20.009C10.6237 23.0002 13.1318 25.4382 16.2444 25.4382C19.357 25.4382 21.6848 23.0156 21.6848 20.009H21.6822ZM2.17935 2.10513H17.4348V0H0V25.2641H2.17935V2.10513Z" fill="#2249EF"/>
</svg>
