<svg width="21" height="24" viewBox="0 0 21 24" fill="none" xmlns="http://www.w3.org/2000/svg">
<path d="M19.0664 1.99805H1.92914C1.14388 1.99805 0.505859 2.64488 0.505859 3.43893V20.5422C0.505859 21.3362 1.14388 21.983 1.92914 21.983H19.0664C19.8517 21.983 20.4942 21.3362 20.4942 20.5422V3.43893C20.4942 2.64488 19.8517 1.99805 19.0664 1.99805ZM6.54697 19.128H3.58442V9.59056H6.55144V19.128H6.54697ZM5.0657 8.28797C4.11536 8.28797 3.34795 7.51623 3.34795 6.57051C3.34795 5.62479 4.11536 4.85305 5.0657 4.85305C6.01157 4.85305 6.78344 5.62479 6.78344 6.57051C6.78344 7.52069 6.01603 8.28797 5.0657 8.28797ZM17.6521 19.128H14.6895V14.4887C14.6895 13.3824 14.6672 11.9593 13.1503 11.9593C11.6065 11.9593 11.37 13.1638 11.37 14.4084V19.128H8.40749V9.59056H11.2496V10.8932H11.2897C11.6868 10.1437 12.655 9.35413 14.0961 9.35413C17.0944 9.35413 17.6521 11.3303 17.6521 13.8998V19.128Z" fill="white"/>
</svg>
